<?xml version="1.0" standalone="no"?><!DOCTYPE svg PUBLIC "-//W3C//DTD SVG 1.1//EN" "http://www.w3.org/Graphics/SVG/1.1/DTD/svg11.dtd" ><svg xmlns="http://www.w3.org/2000/svg"><metadata></metadata><defs><font id="fonteditor" horiz-adv-x="1000"><font-face font-family="ùe¹[WOS" font-weight="400" font-stretch="normal" units-per-em="1000" panose-1="2 11 3 0 0 0 0 0 0 0" ascent="1060" descent="-340" x-height="0" bbox="-15 -212 970 837" underline-thickness="0" underline-position="0" unicode-range="U+0021-ff1b" /><missing-glyph horiz-adv-x="1000"  /><glyph glyph-name="exclam" unicode="!" d="M133 714 L201 714 L191 185 L143 185 L133 714 ZM167 100 Q189 100 203 86 Q218 73 218 50 Q218 29 203 14 Q187 0 167 0 Q145 0 131 15 Q116 30 116 50 Q116 73 131 86 Q144 100 167 100 Z" /><glyph glyph-name="ampersand" unicode="&amp;" d="M301 678 Q250 678 221 652 Q191 627 191 581 Q191 548 225 502 Q242 479 280 438 Q298 450 315 458 Q410 514 410 582 Q410 624 383 649 Q354 678 301 678 ZM229 410 Q178 464 162 491 Q130 538 130 580 Q130 650 182 690 Q227 728 302 728 Q376 728 424 689 Q471 650 471 585 Q471 522 418 474 Q370 435 315 402 L515 191 Q560 284 569 418 L629 418 Q623 256 558 146 L696 0 L617 0 L525 97 Q435 -14 288 -14 Q182 -14 114 39 Q43 95 43 192 Q43 293 138 360 Q171 379 229 410 ZM286 42 Q409 42 484 140 L264 372 Q216 345 174 315 Q104 264 104 191 Q104 124 157 83 Q209 42 286 42 Z" /><glyph glyph-name="hyphen" unicode="-" d="M50 285 L555 285 L555 233 L50 233 L50 285 Z" /><glyph glyph-name="period" unicode="." d="M129 100 Q151 100 165 86 Q180 73 180 50 Q180 30 164 14 Q148 0 129 0 Q107 0 93 15 Q78 30 78 50 Q78 73 93 86 Q106 100 129 100 Z" /><glyph glyph-name="zero" unicode="0" d="M300 728 Q429 728 492 610 Q544 514 544 357 Q544 202 492 104 Q428 -14 300 -14 Q172 -14 108 104 Q56 199 56 357 Q56 516 108 610 Q171 728 300 728 ZM300 674 Q196 674 151 568 Q118 490 118 357 Q118 226 151 146 Q196 40 300 40 Q402 40 449 146 Q483 228 483 357 Q483 488 449 568 Q403 674 300 674 Z" /><glyph glyph-name="one" unicode="1" d="M350 714 L350 0 L289 0 L289 638 Q220 563 118 533 L118 595 Q169 610 217 640 Q264 671 301 714 L350 714 Z" /><glyph glyph-name="two" unicode="2" d="M309 728 Q406 728 468 672 Q531 617 531 524 Q531 432 460 356 Q425 319 312 242 Q160 139 143 56 L532 56 L532 0 L68 0 Q68 92 139 170 Q183 220 289 293 Q379 357 410 388 Q469 452 469 525 Q469 596 425 635 Q382 674 308 674 Q230 674 185 622 Q137 570 137 470 L75 470 Q75 590 141 659 Q204 728 309 728 Z" /><glyph glyph-name="three" unicode="3" d="M307 728 Q407 728 468 676 Q528 624 528 536 Q528 413 412 374 Q474 355 508 311 Q543 267 543 205 Q543 109 476 47 Q407 -14 302 -14 Q207 -14 143 36 Q66 95 57 217 L119 217 Q123 126 183 78 Q231 39 301 39 Q382 39 434 86 Q482 133 482 203 Q482 269 436 309 Q392 347 315 347 L252 347 L252 397 L309 397 Q384 397 427 432 Q467 469 467 533 Q467 596 426 635 Q383 674 307 674 Q231 674 188 631 Q143 589 134 512 L73 512 Q82 612 147 671 Q209 728 307 728 Z" /><glyph glyph-name="four" unicode="4" d="M394 714 L453 714 L453 218 L574 218 L574 167 L453 167 L453 0 L394 0 L394 167 L26 167 L26 226 L394 714 ZM391 631 L81 218 L394 218 L394 631 L391 631 Z" /><glyph glyph-name="five" unicode="5" d="M112 714 L516 714 L516 658 L163 658 L138 395 L141 395 Q173 433 220 452 Q262 471 313 471 Q415 471 478 408 Q543 341 543 227 Q543 122 470 52 Q400 -14 295 -14 Q203 -14 138 37 Q65 92 57 189 L118 189 Q126 116 178 76 Q226 39 295 39 Q376 39 429 92 Q482 147 482 227 Q482 318 432 370 Q384 419 301 419 Q247 419 203 395 Q158 370 134 324 L76 324 L112 714 Z" /><glyph glyph-name="six" unicode="6" d="M311 728 Q502 728 532 540 L471 540 Q446 675 310 675 Q218 675 167 584 Q117 499 117 363 L117 328 L121 328 Q145 391 199 427 Q250 463 319 463 Q421 463 482 398 Q544 333 544 229 Q544 124 478 55 Q412 -14 310 -14 Q180 -14 115 85 Q57 174 57 339 Q57 508 121 614 Q190 728 311 728 ZM309 411 Q233 411 183 358 Q131 307 131 228 Q131 149 177 96 Q227 39 308 39 Q387 39 435 93 Q483 147 483 229 Q483 311 436 361 Q389 411 309 411 Z" /><glyph glyph-name="seven" unicode="7" d="M70 714 L531 714 L531 663 L261 0 L194 0 L467 657 L70 657 L70 714 Z" /><glyph glyph-name="eight" unicode="8" d="M300 728 Q410 728 471 671 Q527 620 527 543 Q527 487 498 444 Q467 401 410 383 L410 379 Q468 367 510 316 Q552 265 552 195 Q552 103 488 45 Q421 -14 300 -14 Q179 -14 112 45 Q48 102 48 195 Q48 265 90 316 Q130 367 191 379 L191 383 Q133 401 102 444 Q73 485 73 543 Q73 621 129 671 Q189 728 300 728 ZM300 676 Q216 676 171 634 Q132 598 132 541 Q132 482 168 446 Q212 404 300 404 Q387 404 432 446 Q468 482 468 541 Q468 598 429 634 Q383 676 300 676 ZM300 354 Q206 354 156 307 Q108 265 108 195 Q108 124 155 83 Q206 37 300 37 Q394 37 446 83 Q492 126 492 195 Q492 265 444 307 Q394 354 300 354 Z" /><glyph glyph-name="nine" unicode="9" d="M291 728 Q421 728 485 630 Q544 539 544 375 Q544 210 480 100 Q411 -14 290 -14 Q99 -14 69 174 L130 174 Q154 39 291 39 Q381 39 434 130 Q484 218 484 351 L484 386 L480 386 Q455 325 402 287 Q350 251 282 251 Q180 251 118 317 Q57 381 57 485 Q57 590 123 659 Q189 728 291 728 ZM293 675 Q214 675 166 621 Q118 567 118 485 Q118 403 165 353 Q213 303 292 303 Q365 303 418 356 Q470 410 470 486 Q470 563 424 618 Q373 675 293 675 Z" /><glyph glyph-name="colon" unicode=":" d="M129 466 Q151 466 165 452 Q180 439 180 416 Q180 396 164 380 Q148 366 129 366 Q107 366 93 381 Q78 396 78 416 Q78 439 93 452 Q106 466 129 466 ZM129 100 Q151 100 165 86 Q180 73 180 50 Q180 30 164 14 Q148 0 129 0 Q107 0 93 15 Q78 30 78 50 Q78 73 93 86 Q106 100 129 100 Z" /><glyph glyph-name="semicolon" unicode=";" d="M129 466 Q151 466 165 452 Q180 439 180 416 Q180 396 164 380 Q148 366 129 366 Q107 366 93 381 Q78 396 78 416 Q78 439 93 452 Q106 466 129 466 ZM129 100 Q189 100 189 17 Q189 -101 89 -156 L68 -121 Q140 -73 144 1 L129 0 Q107 0 92 13 Q78 26 78 49 Q78 75 92 86 Q105 100 129 100 Z" /><glyph glyph-name="at" unicode="@" d="M437 728 Q591 728 682 636 Q768 550 768 417 Q768 311 701 224 Q636 144 562 144 Q501 144 496 213 Q440 142 364 142 Q302 142 266 183 Q229 224 229 287 Q229 405 299 485 Q365 564 454 564 Q528 564 552 485 L569 545 L619 545 L547 273 Q536 240 536 216 Q536 189 567 189 Q616 189 666 250 Q723 322 723 417 Q723 529 647 605 Q566 683 434 683 Q293 683 200 589 Q106 496 106 353 Q106 200 197 113 Q287 29 433 29 Q544 29 628 71 Q701 109 745 171 L800 171 Q747 84 652 36 Q554 -14 433 -14 Q263 -14 158 86 Q53 188 53 355 Q53 512 161 618 Q270 728 437 728 ZM461 515 Q391 515 339 451 Q283 385 283 286 Q283 241 305 216 Q328 188 367 188 Q410 188 452 224 Q491 257 503 299 L526 386 Q536 426 536 432 Q536 461 517 486 Q497 515 461 515 Z" /><glyph glyph-name="A" unicode="a" d="M286 714 L358 714 L644 0 L577 0 L494 213 L150 213 L67 0 L0 0 L286 714 ZM170 265 L474 265 L324 648 L321 648 L170 265 Z" /><glyph glyph-name="B" unicode="b" d="M73 714 L387 714 Q485 714 541 667 Q598 619 598 535 Q598 474 563 430 Q529 389 474 372 Q544 360 586 315 Q627 268 627 197 Q627 96 554 44 Q490 0 384 0 L73 0 L73 714 ZM134 661 L134 395 L374 395 Q450 395 493 429 Q537 464 537 529 Q537 595 494 629 Q452 661 375 661 L134 661 ZM134 343 L134 53 L382 53 Q461 53 510 85 Q566 124 566 198 Q566 271 514 308 Q466 343 381 343 L134 343 Z" /><glyph glyph-name="C" unicode="c" d="M381 728 Q495 728 575 666 Q658 603 672 498 L613 498 Q600 581 532 627 Q468 672 380 672 Q249 672 174 579 Q104 493 104 354 Q104 215 173 131 Q245 42 374 42 Q464 42 531 91 Q602 145 623 244 L682 244 Q659 120 570 50 Q486 -14 375 -14 Q215 -14 125 96 Q43 196 43 354 Q43 512 127 615 Q218 728 381 728 Z" /><glyph glyph-name="D" unicode="d" d="M73 714 L327 714 Q494 714 578 614 Q655 523 655 357 Q655 194 569 99 Q479 0 314 0 L73 0 L73 714 ZM134 660 L134 54 L305 54 Q448 54 523 135 Q595 213 595 357 Q595 507 532 580 Q464 660 318 660 L134 660 Z" /><glyph glyph-name="E" unicode="e" d="M73 714 L574 714 L574 660 L134 660 L134 397 L550 397 L550 342 L134 342 L134 54 L591 54 L591 0 L73 0 L73 714 Z" /><glyph glyph-name="F" unicode="f" d="M73 714 L546 714 L546 660 L134 660 L134 395 L525 395 L525 341 L134 341 L134 0 L73 0 L73 714 Z" /><glyph glyph-name="G" unicode="g" d="M375 728 Q507 728 586 661 Q659 598 679 483 L617 483 Q600 571 541 620 Q479 672 375 672 Q250 672 176 582 Q104 495 104 353 Q104 214 176 131 Q253 41 396 41 Q458 41 518 59 Q579 78 615 103 L615 306 L371 306 L371 360 L676 360 L676 74 Q624 33 553 10 Q475 -14 391 -14 Q223 -14 129 95 Q43 194 43 353 Q43 512 128 615 Q219 728 375 728 Z" /><glyph glyph-name="H" unicode="h" d="M73 714 L134 714 L134 397 L577 397 L577 714 L638 714 L638 0 L577 0 L577 342 L134 342 L134 0 L73 0 L73 714 Z" /><glyph glyph-name="I" unicode="i" d="M82 714 L143 714 L143 0 L82 0 L82 714 Z" /><glyph glyph-name="J" unicode="j" d="M371 714 L433 714 L433 227 Q433 114 387 53 Q334 -14 219 -14 Q122 -14 71 39 Q15 94 15 198 L15 225 L76 225 L76 199 Q76 42 220 42 Q301 42 337 89 Q371 135 371 228 L371 714 Z" /><glyph glyph-name="K" unicode="k" d="M550 714 L632 714 L304 409 L677 0 L593 0 L262 370 L134 251 L134 0 L73 0 L73 714 L134 714 L134 322 L550 714 Z" /><glyph glyph-name="L" unicode="l" d="M73 714 L134 714 L134 54 L563 54 L563 0 L73 0 L73 714 Z" /><glyph glyph-name="M" unicode="m" d="M73 714 L154 714 L434 77 L437 77 L715 714 L796 714 L796 0 L735 0 L735 613 L732 613 L464 0 L405 0 L138 613 L134 613 L134 0 L73 0 L73 714 Z" /><glyph glyph-name="N" unicode="n" d="M73 714 L142 714 L574 95 L577 95 L577 714 L639 714 L639 0 L571 0 L137 624 L134 624 L134 0 L73 0 L73 714 Z" /><glyph glyph-name="O" unicode="o" d="M382 728 Q539 728 632 620 Q719 518 719 357 Q719 195 632 93 Q539 -14 381 -14 Q222 -14 130 94 Q43 196 43 357 Q43 518 130 620 Q223 728 382 728 ZM382 672 Q251 672 176 582 Q104 495 104 357 Q104 216 175 132 Q250 42 381 42 Q511 42 586 131 Q658 217 658 357 Q658 499 586 583 Q512 672 382 672 Z" /><glyph glyph-name="P" unicode="p" d="M73 714 L363 714 Q601 714 601 509 Q601 303 362 303 L134 303 L134 0 L73 0 L73 714 ZM134 660 L134 357 L359 357 Q450 357 496 395 Q539 433 539 509 Q539 584 496 621 Q451 660 359 660 L134 660 Z" /><glyph glyph-name="Q" unicode="q" d="M382 728 Q539 728 632 620 Q719 518 719 357 Q719 195 632 93 L622 81 Q659 32 706 -35 L664 -71 Q612 5 581 45 Q498 -14 381 -14 Q222 -14 130 94 Q43 196 43 357 Q43 518 130 620 Q223 728 382 728 ZM382 672 Q251 672 176 582 Q104 495 104 357 Q104 216 175 132 Q250 42 381 42 Q478 42 545 92 Q483 171 416 243 L454 280 Q526 203 585 129 Q585 131 586 131 Q658 217 658 357 Q658 499 586 583 Q512 672 382 672 Z" /><glyph glyph-name="R" unicode="r" d="M73 714 L375 714 Q482 714 541 664 Q602 612 602 518 Q602 457 568 409 Q532 361 467 346 L467 344 Q575 320 587 212 L597 105 Q603 38 632 0 L565 0 Q543 35 537 97 L528 195 Q522 261 479 290 Q440 317 370 317 L134 317 L134 0 L73 0 L73 714 ZM134 660 L134 371 L369 371 Q452 371 499 412 Q541 451 541 516 Q541 587 500 623 Q459 660 368 660 L134 660 Z" /><glyph glyph-name="S" unicode="s" d="M306 728 Q423 728 492 671 Q563 614 572 503 L511 503 Q499 586 448 630 Q398 673 304 673 Q218 673 168 643 Q112 611 112 542 Q112 483 179 447 Q215 430 316 401 Q455 361 500 333 Q589 280 589 183 Q589 91 512 37 Q439 -14 317 -14 Q194 -14 123 42 Q42 106 33 236 L93 236 Q104 135 163 86 Q218 42 316 42 Q409 42 469 79 Q527 117 527 180 Q527 253 454 294 Q414 317 297 349 Q169 385 133 406 Q51 452 51 540 Q51 633 128 682 Q196 728 306 728 Z" /><glyph glyph-name="T" unicode="t" d="M18 714 L603 714 L603 660 L341 660 L341 0 L280 0 L280 660 L18 660 L18 714 Z" /><glyph glyph-name="U" unicode="u" d="M73 714 L134 714 L134 276 Q134 160 184 103 Q238 41 351 41 Q464 41 518 103 Q568 162 568 276 L568 714 L629 714 L629 276 Q629 138 562 63 Q491 -14 351 -14 Q211 -14 141 62 Q73 136 73 276 L73 714 Z" /><glyph glyph-name="V" unicode="v" d="M5 714 L73 714 L312 65 L315 65 L554 714 L622 714 L353 0 L275 0 L5 714 Z" /><glyph glyph-name="W" unicode="w" d="M5 714 L74 714 L245 82 L248 82 L423 714 L494 714 L669 82 L672 82 L843 714 L912 714 L707 0 L635 0 L460 628 L457 628 L282 0 L210 0 L5 714 Z" /><glyph glyph-name="X" unicode="x" d="M26 714 L102 714 L310 421 L519 714 L595 714 L347 371 L616 0 L539 0 L310 323 L81 0 L5 0 L273 371 L26 714 Z" /><glyph glyph-name="Y" unicode="y" d="M5 714 L80 714 L323 351 L565 714 L640 714 L353 294 L353 0 L292 0 L292 294 L5 714 Z" /><glyph glyph-name="Z" unicode="z" d="M55 714 L566 714 L566 661 L104 54 L590 54 L590 0 L25 0 L25 53 L488 660 L55 660 L55 714 Z" /><glyph glyph-name="a" unicode="a" d="M282 531 Q391 531 443 472 Q489 421 489 333 L489 0 L432 0 L432 99 Q400 53 348 22 Q287 -14 213 -14 Q137 -14 90 25 Q43 65 43 132 Q43 231 124 276 Q189 313 297 313 L429 314 L429 333 Q429 480 279 480 Q210 480 171 451 Q127 422 118 361 L59 361 Q71 448 132 491 Q188 531 282 531 ZM429 265 L300 264 Q104 263 104 133 Q104 90 137 63 Q169 36 225 36 Q306 36 369 90 Q429 143 429 205 L429 265 Z" /><glyph glyph-name="b" unicode="b" d="M63 728 L123 728 L123 408 Q180 531 304 531 Q414 531 476 448 Q533 373 533 259 Q533 143 476 68 Q412 -14 302 -14 Q173 -14 120 102 L120 0 L63 0 L63 728 ZM293 480 Q213 480 167 418 Q121 359 121 263 L121 251 Q121 159 164 101 Q210 37 295 37 Q382 37 430 103 Q472 162 472 259 Q472 356 429 414 Q381 480 293 480 Z" /><glyph glyph-name="c" unicode="c" d="M281 531 Q374 531 432 486 Q491 441 503 348 L443 348 Q433 413 391 446 Q349 479 281 479 Q199 479 151 416 Q104 357 104 255 Q104 156 149 97 Q194 38 280 38 Q424 38 446 185 L505 185 Q490 87 431 36 Q373 -14 280 -14 Q165 -14 102 64 Q43 135 43 255 Q43 373 104 449 Q168 531 281 531 Z" /><glyph glyph-name="d" unicode="d" d="M453 728 L513 728 L513 0 L456 0 L456 102 Q402 -14 275 -14 Q164 -14 100 68 Q43 143 43 259 Q43 373 100 448 Q162 531 272 531 Q396 531 453 408 L453 728 ZM283 480 Q195 480 147 414 Q104 358 104 259 Q104 162 146 103 Q193 37 281 37 Q365 37 412 101 Q455 161 455 251 L455 263 Q455 357 409 418 Q362 480 283 480 Z" /><glyph glyph-name="e" unicode="e" d="M272 531 Q395 531 456 448 Q511 374 515 241 L95 241 Q100 146 146 92 Q194 38 274 38 Q343 38 388 75 Q424 106 443 166 L504 166 Q486 91 435 43 Q372 -14 274 -14 Q165 -14 100 60 Q33 134 33 259 Q33 373 97 450 Q163 531 272 531 ZM273 479 Q196 479 150 426 Q103 373 96 290 L452 290 Q437 479 273 479 Z" /><glyph glyph-name="f" unicode="f" d="M365 714 L365 661 L278 661 Q238 661 221 641 Q203 622 203 577 L203 517 L358 517 L358 465 L203 465 L203 0 L143 0 L143 465 L5 465 L5 517 L143 517 L143 578 Q143 644 175 677 Q208 714 273 714 L365 714 Z" /><glyph glyph-name="g" unicode="g" d="M276 531 Q404 531 461 413 L461 517 L521 517 L521 38 Q521 -212 289 -212 Q188 -212 132 -168 Q79 -126 66 -44 L126 -44 Q137 -102 174 -130 Q214 -162 289 -162 Q461 -162 461 31 L461 130 Q404 12 276 12 Q168 12 103 89 Q43 161 43 271 Q43 381 103 453 Q168 531 276 531 ZM283 480 Q197 480 150 418 Q104 362 104 271 Q104 183 147 127 Q194 64 282 64 Q368 64 416 124 Q461 181 461 271 Q461 361 416 418 Q369 480 283 480 Z" /><glyph glyph-name="h" unicode="h" d="M63 728 L124 728 L124 423 Q151 476 196 504 Q240 531 294 531 Q383 531 432 479 Q482 426 482 330 L482 0 L422 0 L422 322 Q422 396 384 439 Q345 479 277 479 Q213 479 168 427 Q124 377 124 299 L124 0 L63 0 L63 728 Z" /><glyph glyph-name="i" unicode="i" d="M123 703 Q144 703 159 688 Q174 676 174 653 Q174 633 158 617 Q142 603 123 603 Q101 603 87 617 Q72 632 72 653 Q72 676 87 688 Q101 703 123 703 ZM93 517 L153 517 L153 0 L93 0 L93 517 Z" /><glyph glyph-name="j" unicode="j" d="M138 703 Q160 703 175 688 Q189 676 189 653 Q189 633 175 617 Q159 603 138 603 Q118 603 102 617 Q87 632 87 653 Q87 676 102 688 Q117 703 138 703 ZM108 517 L168 517 L168 -67 Q168 -198 33 -198 L-15 -198 L-15 -146 L29 -146 Q108 -146 108 -65 L108 517 Z" /><glyph glyph-name="k" unicode="k" d="M63 728 L123 728 L123 256 L410 517 L492 517 L265 312 L515 0 L436 0 L222 273 L123 183 L123 0 L63 0 L63 728 Z" /><glyph glyph-name="l" unicode="l" d="M82 728 L142 728 L142 0 L82 0 L82 728 Z" /><glyph glyph-name="m" unicode="m" d="M273 531 Q396 531 435 425 Q462 477 504 504 Q543 531 598 531 Q680 531 728 480 Q775 428 775 338 L775 0 L715 0 L715 330 Q715 404 685 440 Q652 479 582 479 Q525 479 488 436 Q450 395 450 329 L450 0 L389 0 L389 330 Q389 479 260 479 Q201 479 163 432 Q123 386 123 318 L123 0 L63 0 L63 517 L123 517 L123 439 Q178 531 273 531 Z" /><glyph glyph-name="n" unicode="n" d="M291 531 Q483 531 483 318 L483 0 L423 0 L423 314 Q423 479 276 479 Q214 479 172 434 Q128 390 123 312 L123 0 L63 0 L63 517 L123 517 L123 432 Q150 478 193 505 Q235 531 291 531 Z" /><glyph glyph-name="o" unicode="o" d="M289 531 Q403 531 472 449 Q535 373 535 258 Q535 145 472 68 Q402 -14 289 -14 Q176 -14 106 68 Q43 145 43 258 Q43 373 107 449 Q174 531 289 531 ZM289 479 Q200 479 150 411 Q104 352 104 258 Q104 165 150 106 Q201 38 289 38 Q378 38 429 106 Q475 169 475 258 Q475 350 429 411 Q379 479 289 479 Z" /><glyph glyph-name="p" unicode="p" d="M302 531 Q412 531 476 448 Q533 373 533 257 Q533 144 477 68 Q413 -14 304 -14 Q180 -14 123 108 L123 -198 L63 -198 L63 517 L120 517 L120 415 Q177 531 302 531 ZM295 480 Q211 480 164 414 Q121 356 121 261 L121 250 Q121 156 167 97 Q214 37 293 37 Q380 37 429 101 Q471 160 471 257 Q471 354 430 413 Q382 480 295 480 Z" /><glyph glyph-name="q" unicode="q" d="M275 531 Q399 531 456 415 L456 517 L513 517 L513 -198 L453 -198 L453 108 Q396 -14 272 -14 Q161 -14 100 68 Q43 143 43 257 Q43 374 101 448 Q163 531 275 531 ZM281 480 Q192 480 146 413 Q105 356 105 257 Q105 159 148 101 Q194 37 283 37 Q363 37 409 97 Q455 158 455 250 L455 261 Q455 354 412 414 Q364 480 281 480 Z" /><glyph glyph-name="r" unicode="r" d="M280 531 Q328 531 355 520 L355 459 Q318 470 276 470 Q205 470 164 408 Q123 352 123 273 L123 0 L63 0 L63 517 L123 517 L123 418 Q144 467 180 495 Q222 531 280 531 Z" /><glyph glyph-name="s" unicode="s" d="M239 531 Q423 531 445 372 L386 372 Q376 426 343 451 Q308 479 238 479 Q180 479 145 456 Q109 432 109 394 Q109 355 155 331 Q186 316 264 295 Q359 271 398 247 Q460 209 460 143 Q460 -14 250 -14 Q51 -14 33 163 L92 163 Q101 95 140 65 Q176 38 248 38 Q398 38 398 140 Q398 187 347 212 Q319 226 232 248 Q141 272 106 294 Q47 329 47 393 Q47 456 103 494 Q156 531 239 531 Z" /><glyph glyph-name="t" unicode="t" d="M188 684 L188 517 L323 517 L323 465 L188 465 L188 115 Q188 81 200 66 Q212 52 245 52 L310 52 L310 0 L237 0 Q177 0 151 31 Q128 57 128 115 L128 465 L18 465 L18 517 L128 517 L128 659 L188 684 Z" /><glyph glyph-name="u" unicode="u" d="M63 517 L123 517 L123 201 Q123 120 157 80 Q193 38 268 38 Q327 38 373 84 Q418 129 424 203 L424 517 L484 517 L484 0 L424 0 L424 87 Q364 -14 252 -14 Q63 -14 63 198 L63 517 Z" /><glyph glyph-name="v" unicode="v" d="M5 517 L71 517 L234 76 L396 517 L463 517 L265 0 L203 0 L5 517 Z" /><glyph glyph-name="w" unicode="w" d="M5 517 L72 517 L212 77 L342 517 L400 517 L530 77 L671 517 L737 517 L560 0 L502 0 L372 439 L240 0 L183 0 L5 517 Z" /><glyph glyph-name="x" unicode="x" d="M27 517 L99 517 L247 318 L395 517 L466 517 L281 273 L488 0 L416 0 L247 228 L77 0 L5 0 L213 273 L27 517 Z" /><glyph glyph-name="y" unicode="y" d="M5 517 L71 517 L240 86 L407 517 L473 517 L188 -198 L123 -198 L210 13 L5 517 Z" /><glyph glyph-name="z" unicode="z" d="M35 517 L436 517 L436 471 L102 52 L452 52 L452 0 L25 0 L25 47 L358 465 L35 465 L35 517 Z" /><glyph glyph-name="quotedblleft" unicode="&#x201c;" d="M413 802 Q340 755 336 679 Q340 681 351 681 Q374 681 388 668 Q402 654 402 632 Q402 610 389 594 Q373 581 352 581 Q291 581 291 663 Q291 783 391 837 L413 802 ZM242 802 Q169 755 165 679 Q169 681 180 681 Q203 681 217 668 Q231 654 231 632 Q231 610 218 594 Q202 581 181 581 Q120 581 120 663 Q120 783 220 837 L242 802 Z" /><glyph glyph-name="quotedblright" unicode="&#x201d;" d="M312 837 Q373 837 373 755 Q373 636 273 581 L251 616 Q322 663 328 739 Q320 737 313 737 Q290 737 276 751 Q262 764 262 786 Q262 811 275 823 Q288 837 312 837 ZM141 837 Q202 837 202 755 Q202 636 102 581 L80 616 Q151 664 156 739 Q148 737 142 737 Q119 737 105 751 Q90 765 90 786 Q90 812 104 823 Q117 837 141 837 Z" /><glyph glyph-name="ellipsis" unicode="&#x2026;" d="M167 100 Q189 100 203 86 Q218 73 218 50 Q218 29 203 14 Q187 0 167 0 Q145 0 131 15 Q116 30 116 50 Q116 73 131 86 Q144 100 167 100 ZM500 100 Q523 100 537 86 Q551 72 551 50 Q551 30 537 14 Q521 0 500 0 Q479 0 464 15 Q449 30 449 50 Q449 73 464 86 Q478 100 500 100 ZM833 100 Q855 100 869 86 Q884 73 884 50 Q884 29 869 14 Q853 0 833 0 Q812 0 797 15 Q782 30 782 50 Q782 73 797 86 Q811 100 833 100 Z" /><glyph glyph-name="uni3001" unicode="&#x3001;" d="M172 133 Q222 99 283 36 Q335 -18 367 -64 L328 -97 Q295 -51 245 2 Q186 64 137 100 L172 133 Z" /><glyph glyph-name="uni3002" unicode="&#x3002;" d="M250 136 Q301 136 338 102 Q374 68 374 16 Q374 -34 338 -70 Q299 -104 250 -104 Q199 -104 162 -70 Q126 -35 126 16 Q126 69 162 102 Q197 136 250 136 ZM250 94 Q215 94 193 71 Q169 50 169 16 Q169 -16 193 -39 Q216 -62 250 -62 Q282 -62 307 -39 Q331 -16 331 16 Q331 49 307 71 Q284 94 250 94 Z" /><glyph glyph-name="uni300A" unicode="&#x300a;" d="M737 827 L787 805 L589 360 L785 -85 L737 -107 L531 360 L737 827 ZM892 827 L940 805 L743 360 L940 -85 L892 -107 L686 360 L892 827 Z" /><glyph glyph-name="uni300B" unicode="&#x300b;" d="M108 827 L314 360 L108 -107 L60 -85 L257 360 L60 805 L108 827 ZM263 827 L469 360 L263 -107 L215 -85 L411 360 L213 805 L263 827 Z" /><glyph glyph-name="uniFF01" unicode="&#xff01;" d="M216 714 L284 714 L274 185 L226 185 L216 714 ZM250 100 Q273 100 287 86 Q301 72 301 50 Q301 30 287 14 Q271 0 250 0 Q229 0 214 15 Q199 30 199 50 Q199 73 214 86 Q228 100 250 100 Z" /><glyph glyph-name="uniFF08" unicode="&#xff08;" d="M920 827 Q859 727 825 619 Q782 489 782 360 Q782 231 825 101 Q859 -6 920 -107 L865 -107 Q802 -12 766 99 Q723 229 723 360 Q723 491 766 620 Q802 731 865 827 L920 827 Z" /><glyph glyph-name="uniFF09" unicode="&#xff09;" d="M135 827 Q197 731 234 620 Q277 486 277 360 Q277 234 234 99 Q196 -12 135 -107 L80 -107 Q138 -11 175 101 Q218 236 218 360 Q218 484 175 619 Q138 732 80 827 L135 827 Z" /><glyph glyph-name="uniFF0B" unicode="&#xff0b;" d="M474 680 L526 680 L526 385 L812 385 L812 333 L526 333 L526 36 L474 36 L474 333 L188 333 L188 385 L474 385 L474 680 Z" /><glyph glyph-name="uniFF0C" unicode="&#xff0c;" d="M179 100 Q239 100 239 17 Q239 -101 139 -156 L118 -121 Q190 -73 194 1 L179 0 Q157 0 142 13 Q128 26 128 49 Q128 75 142 86 Q155 100 179 100 Z" /><glyph glyph-name="uniFF1B" unicode="&#xff1b;" d="M250 597 Q273 597 287 583 Q301 569 301 547 Q301 526 287 512 Q272 497 250 497 Q229 497 214 512 Q199 527 199 547 Q199 570 214 583 Q228 597 250 597 ZM250 231 Q311 231 311 149 Q311 30 211 -25 L189 10 Q260 58 265 133 Q257 131 251 131 Q229 131 214 144 Q199 159 199 180 Q199 205 213 218 Q227 231 250 231 Z" /><glyph glyph-name="uni2F00" unicode="&#x2f00;&#x4e00;" d="M52 394 L947 394 L947 340 L52 340 L52 394 Z" /><glyph glyph-name="uni4E01" unicode="&#x4e01;" d="M72 737 L929 737 L929 684 L536 684 L536 5 Q536 -89 443 -89 L286 -89 L274 -36 Q378 -40 424 -40 Q482 -40 482 19 L482 684 L72 684 L72 737 Z" /><glyph glyph-name="uni4E03" unicode="&#x4e03;" d="M938 572 L946 519 L443 426 L443 43 Q443 -19 498 -19 L756 -19 Q808 -19 833 4 Q856 30 863 176 L915 159 Q904 -4 875 -39 Q845 -72 765 -72 L485 -72 Q389 -72 389 35 L389 416 L57 355 L49 408 L389 471 L389 801 L443 801 L443 481 L938 572 Z" /><glyph glyph-name="uni4E09" unicode="&#x4e09;" d="M115 733 L887 733 L887 680 L115 680 L115 733 ZM189 386 L812 386 L812 332 L189 332 L189 386 ZM53 13 L947 13 L947 -41 L53 -41 L53 13 Z" /><glyph glyph-name="uni4E0A" unicode="&#x4e0a;" d="M425 815 L481 815 L481 499 L851 499 L851 447 L481 447 L481 -1 L944 -1 L944 -54 L59 -54 L59 -1 L425 -1 L425 815 Z" /><glyph glyph-name="uni4E0B" unicode="&#x4e0b;" d="M58 756 L941 756 L941 703 L500 703 L500 536 Q689 439 884 311 L852 263 Q645 403 500 480 L500 -100 L447 -100 L447 703 L58 703 L58 756 Z" /><glyph glyph-name="uni4E0D" unicode="&#x4e0d;" d="M80 757 L920 757 L920 704 L593 704 Q566 641 528 578 L528 -100 L472 -100 L472 496 Q331 309 88 164 L52 210 Q401 413 533 704 L80 704 L80 757 ZM653 492 Q828 353 948 212 L906 170 Q800 302 615 454 L653 492 Z" /><glyph glyph-name="uni4E0E" unicode="&#x4e0e;" d="M306 628 L288 452 L846 452 Q846 41 803 -25 Q758 -88 617 -88 Q551 -88 479 -85 L464 -36 L605 -40 Q739 -40 764 23 Q792 91 792 401 L226 401 L272 819 L326 815 L312 680 L884 680 L884 628 L306 628 ZM61 219 L679 219 L679 167 L61 167 L61 219 Z" /><glyph glyph-name="uni4E11" unicode="&#x4e11;" d="M742 712 L416 712 L380 398 L716 398 L742 712 ZM326 398 L363 712 L134 712 L134 764 L798 764 L740 -13 L940 -13 L940 -66 L60 -66 L60 -13 L278 -13 L320 345 L151 345 L151 398 L326 398 ZM332 -13 L683 -13 L712 345 L374 345 L332 -13 Z" /><glyph glyph-name="uni4E16" unicode="&#x4e16;" d="M51 571 L185 571 L185 802 L240 802 L240 571 L462 571 L462 812 L516 812 L516 571 L737 571 L737 812 L790 812 L790 571 L948 571 L948 518 L790 518 L790 203 L462 203 L462 518 L240 518 L240 -3 L914 -3 L914 -57 L185 -57 L185 518 L51 518 L51 571 ZM516 518 L516 257 L737 257 L737 518 L516 518 Z" /><glyph glyph-name="uni4E1D" unicode="&#x4e1d;" d="M60 1 L940 1 L940 -51 L60 -51 L60 1 ZM361 781 Q259 574 160 457 Q245 463 350 477 Q402 567 418 596 L468 579 Q329 323 188 188 Q341 201 477 229 L487 179 Q320 149 108 134 L97 185 Q196 238 319 428 Q211 413 106 404 L93 452 Q106 458 116 473 Q230 617 309 801 L361 781 ZM786 781 Q684 572 585 456 Q681 464 777 477 Q808 530 842 592 L893 575 Q755 320 618 189 Q779 201 915 228 L925 178 Q753 151 539 136 L529 187 Q628 240 747 428 Q650 415 531 403 L518 452 Q532 459 541 472 Q654 616 734 802 L786 781 Z" /><glyph glyph-name="uni4E24" unicode="&#x4e24;" d="M61 763 L939 763 L939 710 L663 710 L663 537 L887 537 L887 1 Q887 -88 807 -88 L705 -88 L690 -36 L788 -38 Q833 -38 833 12 L833 486 L661 486 Q657 425 654 394 Q729 278 801 143 L768 94 Q695 251 645 336 Q611 151 511 45 L470 80 Q596 212 610 486 L383 486 Q380 434 372 378 Q430 300 494 196 L464 152 Q404 265 362 326 Q326 164 239 68 L198 104 Q317 231 332 486 L167 486 L167 -94 L113 -94 L113 537 L334 537 L335 563 L335 710 L61 710 L61 763 ZM385 537 L612 537 L612 710 L386 710 L386 550 L385 537 Z" /><glyph glyph-name="uni4E2A" unicode="&#x4e2a;" d="M473 521 L527 521 L527 -97 L473 -97 L473 521 ZM525 814 Q651 603 961 442 L929 394 Q641 542 500 762 Q330 521 71 388 L39 437 Q322 582 475 814 L525 814 Z" /><glyph glyph-name="uni4E2D" unicode="&#x4e2d;" d="M472 819 L528 819 L528 634 L890 634 L890 174 L835 174 L835 241 L528 241 L528 -105 L472 -105 L472 241 L166 241 L166 174 L111 174 L111 634 L472 634 L472 819 ZM166 294 L472 294 L472 580 L166 580 L166 294 ZM528 294 L835 294 L835 580 L528 580 L528 294 Z" /><glyph glyph-name="uni4E3A" unicode="&#x4e3a;" d="M177 788 Q268 693 313 626 L269 597 Q215 675 135 758 L177 788 ZM522 366 Q637 241 694 153 L647 121 Q585 220 478 338 L522 366 ZM420 815 L473 815 L473 712 Q471 626 466 563 L881 563 Q881 142 843 26 Q804 -89 705 -89 Q634 -89 586 -86 L571 -33 Q643 -39 702 -39 Q797 -32 812 138 Q826 315 826 509 L461 509 Q437 320 377 191 Q289 10 84 -94 L54 -46 Q255 56 339 236 Q388 353 407 509 L88 509 L88 563 L413 563 Q418 628 420 712 L420 815 Z" /><glyph glyph-name="uni4E4B" unicode="&#x4e4b;" d="M446 818 Q494 741 540 635 L855 635 L855 593 Q678 261 333 82 Q341 74 345 69 Q409 -12 521 -21 Q590 -24 720 -24 Q799 -24 940 -21 L927 -75 L729 -75 Q617 -75 541 -73 Q382 -70 297 48 Q270 81 249 81 Q202 81 115 -94 L70 -64 Q166 136 251 136 Q271 136 284 126 L293 120 Q620 286 788 581 L128 581 L128 635 L482 635 Q441 727 385 808 L446 818 Z" /><glyph glyph-name="uni4E50" unicode="&#x4e50;" d="M114 363 Q160 564 182 737 Q210 733 225 733 Q586 734 811 805 L838 758 Q604 691 226 687 Q199 523 174 416 L481 416 L481 615 L535 615 L535 416 L908 416 L908 363 L535 363 L535 -1 Q535 -93 450 -93 L317 -93 L305 -41 Q393 -45 431 -45 Q481 -45 481 13 L481 363 L114 363 ZM293 254 Q212 74 106 -53 L59 -20 Q167 103 245 277 L293 254 ZM732 283 Q828 138 912 -35 L862 -61 Q777 121 684 260 L732 283 Z" /><glyph glyph-name="uni4E58" unicode="&#x4e58;" d="M722 241 Q634 241 634 328 L634 526 L687 526 L687 434 Q807 452 898 489 L916 442 Q817 406 687 388 L687 339 Q687 288 737 288 L831 288 Q856 288 868 298 Q883 311 887 371 L938 355 Q929 273 906 256 Q885 241 841 241 L722 241 ZM61 626 L473 626 L473 723 Q323 715 169 715 L152 763 Q556 765 811 809 L838 762 Q706 738 527 726 L527 626 L938 626 L938 574 L527 574 L527 295 Q690 118 949 18 L919 -33 Q687 64 527 230 L527 -99 L473 -99 L473 225 Q317 68 86 -38 L53 12 Q325 128 473 295 L473 574 L61 574 L61 626 ZM298 525 L352 525 L352 228 L298 228 L298 283 Q205 262 85 241 L71 291 Q203 309 298 328 L298 412 L92 412 L92 460 L298 460 L298 525 Z" /><glyph glyph-name="uni4E5D" unicode="&#x4e5d;" d="M370 813 L424 813 L424 590 L728 590 L728 15 Q728 -30 774 -30 L836 -30 Q882 -30 894 32 Q901 113 901 179 L952 164 Q943 25 936 -3 Q919 -83 837 -83 L766 -83 Q671 -83 671 6 L671 536 L423 536 Q414 290 340 144 Q261 -4 79 -90 L48 -41 Q225 43 300 188 Q362 326 369 536 L112 536 L112 590 L370 590 L370 813 Z" /><glyph glyph-name="uni4E5F" unicode="&#x4e5f;" d="M493 819 L546 819 L546 574 L846 642 Q846 356 838 290 Q824 187 714 187 L668 187 L653 238 L724 237 Q782 237 791 321 Q795 365 795 574 L546 519 L546 144 L493 144 L493 507 L261 456 L261 68 Q261 -13 337 -13 L779 -13 Q840 -13 868 9 Q894 34 903 178 L953 161 Q941 0 909 -33 Q876 -66 788 -66 L324 -66 Q208 -66 208 61 L208 444 L42 408 L42 460 L208 498 L208 739 L261 739 L261 510 L493 562 L493 819 Z" /><glyph glyph-name="uni4E86" unicode="&#x4e86;" d="M489 480 Q645 573 787 697 L117 697 L117 749 L861 749 L861 697 Q724 572 542 453 L542 -10 Q542 -90 458 -90 Q388 -90 300 -86 L285 -33 Q357 -39 443 -39 Q489 -39 489 1 L489 480 Z" /><glyph glyph-name="uni4E8B" unicode="&#x4e8b;" d="M177 632 L473 632 L473 704 L74 704 L74 752 L473 752 L473 817 L527 817 L527 752 L926 752 L926 704 L527 704 L527 632 L823 632 L823 447 L527 447 L527 374 L837 374 L837 237 L954 237 L954 192 L837 192 L837 60 L527 60 L527 -17 Q527 -93 447 -93 L324 -93 L313 -42 Q393 -46 428 -46 Q473 -46 473 -4 L473 60 L136 60 L136 105 L473 105 L473 192 L46 192 L46 237 L473 237 L473 330 L137 330 L137 374 L473 374 L473 447 L177 447 L177 632 ZM769 489 L769 589 L527 589 L527 489 L769 489 ZM473 489 L473 589 L231 589 L231 489 L473 489 ZM527 330 L527 237 L786 237 L786 330 L527 330 ZM786 192 L527 192 L527 105 L786 105 L786 192 Z" /><glyph glyph-name="uni2F06" unicode="&#x2f06;&#x4e8c;" d="M148 696 L852 696 L852 643 L148 643 L148 696 ZM56 67 L943 67 L943 14 L56 14 L56 67 Z" /><glyph glyph-name="uni4E8E" unicode="&#x4e8e;" d="M123 771 L870 771 L870 718 L536 718 L536 425 L939 425 L939 371 L536 371 L536 4 Q536 -88 442 -88 L289 -88 L277 -35 Q379 -39 424 -39 Q482 -39 482 18 L482 371 L61 371 L61 425 L482 425 L482 718 L123 718 L123 771 Z" /><glyph glyph-name="uni4E94" unicode="&#x4e94;" d="M147 432 L377 432 L433 699 L96 699 L96 752 L905 752 L905 699 L487 699 L431 432 L774 432 L774 1 L943 1 L943 -51 L59 -51 L59 1 L286 1 L366 379 L147 379 L147 432 ZM340 1 L719 1 L719 379 L420 379 L340 1 Z" /><glyph glyph-name="uni4EA4" unicode="&#x4ea4;" d="M61 689 L485 689 Q458 756 423 811 L482 821 Q514 767 543 689 L940 689 L940 638 L61 638 L61 689 ZM653 594 Q821 459 932 326 L892 287 Q793 411 615 558 L653 594 ZM727 387 Q652 244 544 143 Q708 19 949 -44 L917 -94 Q669 -25 503 106 Q335 -35 89 -98 L56 -50 Q301 13 461 141 Q345 243 274 374 L321 401 Q388 275 502 177 Q611 277 677 409 L727 387 ZM381 558 Q268 411 99 299 L64 344 Q229 450 341 594 L381 558 Z" /><glyph glyph-name="uni4EA6" unicode="&#x4ea6;" d="M248 488 Q196 274 99 115 L50 146 Q147 299 196 499 L248 488 ZM782 499 Q875 327 944 130 L892 106 Q820 315 731 482 L782 499 ZM478 812 Q511 752 537 680 L929 680 L929 626 L648 626 L648 7 Q648 -89 554 -89 L446 -89 L434 -37 Q506 -41 535 -41 Q594 -41 594 20 L594 626 L417 626 L417 464 Q413 80 177 -97 L136 -61 Q360 103 364 464 L364 626 L73 626 L73 680 L479 680 Q454 744 418 803 L478 812 Z" /><glyph glyph-name="uni4EAB" unicode="&#x4eab;" d="M208 600 L793 600 L793 410 L208 410 L208 600 ZM740 457 L740 552 L261 552 L261 457 L740 457 ZM479 817 Q503 779 528 724 L932 724 L932 672 L69 672 L69 724 L469 724 Q443 772 418 806 L479 817 ZM47 141 L490 141 L490 189 Q602 232 729 286 L143 286 L143 335 L837 335 L837 296 Q704 231 543 171 L543 141 L953 141 L953 91 L543 91 L543 -16 Q543 -97 465 -97 L323 -97 L308 -48 Q394 -51 443 -51 Q490 -51 490 -1 L490 91 L47 91 L47 141 Z" /><glyph glyph-name="uni4EAE" unicode="&#x4eae;" d="M59 730 L477 730 Q453 777 426 814 L484 824 Q509 785 533 730 L941 730 L941 681 L59 681 L59 730 ZM236 604 L764 604 L764 420 L236 420 L236 604 ZM711 466 L711 559 L289 559 L289 466 L711 466 ZM905 345 L905 183 L851 183 L851 297 L148 297 L148 183 L94 183 L94 345 L905 345 ZM315 215 L681 215 L681 4 Q681 -41 725 -41 L817 -41 Q844 -41 860 -30 Q880 -16 890 97 L940 81 Q930 -24 909 -56 Q888 -88 825 -88 L711 -88 Q628 -88 628 -6 L628 167 L369 167 L369 140 Q362 -53 94 -101 L63 -55 Q315 -14 315 147 L315 215 Z" /><glyph glyph-name="uni2F08" unicode="&#x2f08;&#x4eba;" d="M528 813 Q528 701 521 594 Q605 178 960 -42 L924 -88 Q601 121 502 475 Q419 134 72 -89 L39 -41 Q457 220 472 651 L473 813 L528 813 Z" /><glyph glyph-name="uni4ECA" unicode="&#x4eca;" d="M409 556 Q531 499 639 416 L609 370 Q496 461 380 512 L409 556 ZM148 316 L844 316 L844 274 Q742 29 448 -97 L412 -51 Q679 60 781 265 L148 265 L148 316 ZM520 804 Q713 588 962 466 L934 416 Q681 545 501 753 Q334 556 67 415 L40 465 Q306 602 482 804 L520 804 Z" /><glyph glyph-name="uni4ECE" unicode="&#x4ece;" d="M319 808 Q319 572 295 398 Q414 273 496 144 L455 103 Q386 219 285 336 Q284 335 284 332 Q236 75 72 -88 L34 -43 Q179 104 227 328 Q262 516 264 808 L319 808 ZM709 809 Q709 660 698 525 Q773 168 961 -40 L922 -85 Q760 106 682 392 L671 329 Q622 70 450 -94 L413 -49 Q565 99 616 326 Q654 521 654 809 L709 809 Z" /><glyph glyph-name="uni4ED6" unicode="&#x4ed6;" d="M318 799 Q281 685 226 581 L226 -100 L172 -100 L172 490 Q118 408 49 333 L32 389 Q197 581 269 822 L318 799 ZM487 -78 Q382 -78 382 28 L382 443 L287 413 L287 467 L382 498 L382 722 L437 722 L437 516 L601 569 L601 816 L656 816 L656 587 L873 657 Q873 355 860 285 Q846 220 749 220 L731 220 L715 273 L760 272 Q800 272 809 309 Q817 343 819 583 L656 531 L656 105 L601 105 L601 513 L437 461 L437 35 Q437 -26 501 -26 L806 -26 Q848 -26 870 -4 Q889 21 895 160 L946 143 Q937 -12 911 -46 Q884 -78 815 -78 L487 -78 Z" /><glyph glyph-name="uni4EE3" unicode="&#x4ee3;" d="M910 568 L919 516 L582 475 Q591 366 609 290 Q645 137 714 47 Q775 -34 830 -37 Q876 -35 897 163 L944 135 Q926 13 896 -47 Q869 -91 833 -91 Q761 -91 684 4 Q600 106 558 274 Q538 353 528 468 L304 441 L296 492 L524 520 Q514 657 513 817 L567 817 Q567 667 577 527 L910 568 ZM178 488 Q120 405 52 336 L35 392 Q206 582 281 817 L331 794 Q292 676 232 573 L232 -100 L178 -100 L178 488 ZM680 807 Q772 731 836 652 L799 616 Q739 693 644 774 L680 807 Z" /><glyph glyph-name="uni4EE5" unicode="&#x4ee5;" d="M367 703 Q502 552 581 429 L536 397 Q457 525 321 674 L367 703 ZM721 232 Q625 40 402 -91 L365 -46 Q617 98 701 324 Q764 516 764 805 L820 805 Q820 524 760 329 Q750 299 744 285 Q867 127 956 -39 L915 -80 Q838 73 721 232 ZM117 68 Q141 83 141 112 L141 771 L197 771 L197 97 Q322 146 440 218 L456 164 Q308 79 134 17 L117 68 Z" /><glyph glyph-name="uni4EEC" unicode="&#x4eec;" d="M722 -91 L707 -39 L809 -41 Q858 -41 858 19 L858 691 L606 691 L606 744 L912 744 L912 5 Q912 -91 820 -91 L722 -91 ZM452 814 Q527 724 566 655 L523 625 Q480 702 410 788 L452 814 ZM330 796 Q288 675 228 568 L228 -100 L174 -100 L174 484 Q121 408 54 339 L37 395 Q206 582 281 819 L330 796 ZM367 645 L421 645 L421 -97 L367 -97 L367 645 Z" /><glyph glyph-name="uni4F17" unicode="&#x4f17;" d="M520 813 Q703 576 944 439 L916 389 Q671 534 500 763 Q341 545 78 385 L51 435 Q308 587 479 813 L520 813 ZM342 462 Q342 366 329 275 Q429 180 492 91 L454 52 Q398 137 318 222 L306 175 Q257 20 88 -78 L55 -36 Q202 48 253 181 Q290 294 291 462 L342 462 ZM694 470 Q694 380 685 302 Q763 86 952 -40 L918 -81 Q751 37 670 213 L661 176 Q616 16 465 -84 L432 -42 Q563 46 608 181 Q641 295 641 470 L694 470 Z" /><glyph glyph-name="uni4F1A" unicode="&#x4f1a;" d="M520 814 Q711 596 961 470 L932 418 Q677 554 500 765 Q335 564 64 417 L36 469 Q303 607 480 814 L520 814 ZM259 502 L744 502 L744 450 L259 450 L259 502 ZM102 301 L900 301 L900 247 L425 247 Q349 96 237 -22 Q511 -7 743 27 Q679 113 621 178 L663 204 Q801 48 872 -66 L828 -98 Q801 -53 771 -12 Q549 -49 173 -74 L158 -26 Q177 -20 186 -11 Q297 113 365 247 L102 247 L102 301 Z" /><glyph glyph-name="uni4F20" unicode="&#x4f20;" d="M176 484 Q125 410 57 339 L39 396 Q206 583 279 815 L329 792 Q290 674 230 570 L230 -100 L176 -100 L176 484 ZM353 680 L551 680 Q562 725 582 815 L635 810 Q622 750 605 680 L917 680 L917 628 L591 628 Q571 553 552 494 L958 494 L958 443 L535 443 Q512 376 479 300 L899 300 L899 252 Q832 142 687 30 Q773 -17 833 -59 L803 -106 Q621 21 426 95 L455 139 Q550 101 639 55 Q768 147 842 249 L409 249 Q452 351 482 443 L309 443 L309 494 L498 494 Q524 577 538 628 L353 628 L353 680 Z" /><glyph glyph-name="uni4F26" unicode="&#x4f26;" d="M645 811 Q736 623 961 479 L930 432 Q723 566 621 759 Q498 544 310 427 L280 474 Q485 603 597 811 L645 811 ZM528 -81 Q435 -81 435 8 L435 456 L489 456 L489 270 Q654 318 817 408 L849 363 Q664 265 489 215 L489 19 Q489 -29 544 -29 L760 -29 Q811 -29 832 -8 Q860 20 869 155 L921 138 Q909 -15 872 -52 Q840 -81 770 -81 L528 -81 ZM326 797 Q288 681 228 575 L228 -100 L174 -100 L174 489 Q123 415 54 343 L36 400 Q201 586 275 821 L326 797 Z" /><glyph glyph-name="uni4F34" unicode="&#x4f34;" d="M423 759 Q471 670 510 554 L459 541 Q423 645 372 743 L423 759 ZM895 765 Q858 637 800 536 L750 555 Q802 641 843 778 L895 765 ZM343 481 L604 481 L604 813 L658 813 L658 481 L927 481 L927 430 L658 430 L658 248 L954 248 L954 195 L658 195 L658 -98 L604 -98 L604 195 L314 195 L314 248 L604 248 L604 430 L343 430 L343 481 ZM318 794 Q278 670 221 569 L221 -100 L168 -100 L168 483 Q116 406 56 342 L39 399 Q198 585 268 818 L318 794 Z" /><glyph glyph-name="uni4F3C" unicode="&#x4f3c;" d="M178 495 Q127 418 57 342 L39 401 Q198 584 269 816 L320 793 Q284 681 232 585 L232 -93 L178 -93 L178 495 ZM856 791 Q856 512 812 318 Q801 271 787 233 Q897 72 958 -51 L914 -82 Q856 41 766 179 Q692 16 545 -98 L512 -57 Q696 89 757 313 Q804 504 804 791 L856 791 ZM335 96 Q366 108 366 129 L366 729 L420 729 L420 124 Q511 158 597 203 L610 155 Q489 92 351 45 L335 96 ZM551 683 Q626 568 683 430 L638 410 Q580 551 505 669 L551 683 Z" /><glyph glyph-name="uni4F4D" unicode="&#x4f4d;" d="M328 796 Q289 680 230 575 L230 -100 L176 -100 L176 489 Q121 410 57 344 L39 401 Q207 588 278 820 L328 796 ZM333 647 L612 647 Q587 736 560 804 L617 813 Q642 743 665 647 L931 647 L931 596 L333 596 L333 647 ZM317 8 L663 8 Q742 215 800 521 L852 508 Q797 218 718 8 L957 8 L957 -45 L317 -45 L317 8 ZM445 510 Q504 315 551 58 L501 45 Q459 281 395 494 L445 510 Z" /><glyph glyph-name="uni4F53" unicode="&#x4f53;" d="M170 466 Q122 393 58 319 L41 372 Q202 569 274 818 L323 795 Q282 664 223 555 L223 -99 L170 -99 L170 466 ZM310 635 L585 635 L585 816 L638 816 L638 635 L918 635 L918 583 L698 583 Q770 324 957 122 L922 79 Q729 304 657 583 L638 583 L638 166 L804 166 L804 114 L638 114 L638 -98 L585 -98 L585 114 L422 114 L422 166 L585 166 L585 583 L567 583 Q489 270 298 70 L270 116 Q451 297 527 583 L310 583 L310 635 Z" /><glyph glyph-name="uni4F5C" unicode="&#x4f5c;" d="M475 614 Q407 469 313 357 L275 402 Q415 566 497 820 L551 807 Q532 748 499 667 L947 667 L947 614 L598 614 L598 432 L901 432 L901 378 L598 378 L598 193 L909 193 L909 140 L598 140 L598 -98 L544 -98 L544 614 L475 614 ZM174 488 Q118 414 56 350 L39 407 Q205 587 281 815 L331 792 Q290 671 228 569 L228 -98 L174 -98 L174 488 Z" /><glyph glyph-name="uni4F60" unicode="&#x4f60;" d="M175 481 Q126 408 54 329 L36 386 Q203 578 276 818 L326 795 Q288 677 229 569 L229 -98 L175 -98 L175 481 ZM796 417 Q876 239 937 32 L888 10 Q825 231 747 401 L796 417 ZM460 634 Q411 516 344 415 L298 444 Q413 610 467 820 L519 809 Q501 745 480 686 L912 686 L912 650 Q888 557 847 466 L795 481 Q832 546 857 634 L460 634 ZM460 -90 L448 -39 Q536 -43 574 -43 Q613 -43 613 -4 L613 540 L665 540 L665 -17 Q665 -90 592 -90 L460 -90 ZM499 397 Q442 186 355 27 L303 46 Q387 189 450 410 L499 397 Z" /><glyph glyph-name="uni4F7F" unicode="&#x4f7f;" d="M341 706 L614 706 L614 814 L667 814 L667 706 L948 706 L948 655 L667 655 L667 548 L906 548 L906 275 L663 275 Q651 132 608 55 Q762 -36 970 -48 L956 -99 Q740 -85 578 12 Q500 -75 321 -102 L297 -52 Q463 -31 531 43 Q439 108 365 202 L408 231 Q476 143 562 84 Q601 154 610 275 L380 275 L380 548 L614 548 L614 655 L341 655 L341 706 ZM854 324 L854 498 L667 498 L667 343 L666 324 L854 324 ZM613 324 L614 498 L431 498 L431 324 L613 324 ZM169 484 Q112 399 50 331 L33 389 Q192 578 265 820 L316 796 Q279 681 224 577 L224 -100 L169 -100 L169 484 Z" /><glyph glyph-name="uni4FDD" unicode="&#x4fdd;" d="M319 795 Q282 683 227 582 L227 -100 L172 -100 L172 491 Q122 415 50 339 L33 396 Q197 585 268 819 L319 795 ZM389 767 L853 767 L853 464 L648 464 L648 340 L941 340 L941 286 L707 286 Q800 122 958 6 L924 -40 Q767 87 664 286 L648 286 L648 -98 L594 -98 L594 286 L577 286 Q473 76 312 -42 L282 6 Q437 112 533 286 L309 286 L309 340 L594 340 L594 464 L389 464 L389 767 ZM799 517 L799 715 L443 715 L443 517 L799 517 Z" /><glyph glyph-name="uni4FE1" unicode="&#x4fe1;" d="M163 489 Q108 405 51 341 L33 398 Q187 588 254 823 L305 799 Q271 687 216 581 L216 -100 L163 -100 L163 489 ZM311 674 L957 674 L957 622 L311 622 L311 674 ZM404 526 L870 526 L870 477 L404 477 L404 526 ZM404 385 L870 385 L870 335 L404 335 L404 385 ZM887 238 L887 -97 L834 -97 L834 -42 L441 -42 L441 -97 L387 -97 L387 238 L887 238 ZM441 10 L834 10 L834 187 L441 187 L441 10 ZM625 817 Q658 754 676 700 L628 681 Q604 748 573 803 L625 817 Z" /><glyph glyph-name="uni503C" unicode="&#x503c;" d="M604 813 L658 813 L658 715 L922 715 L922 665 L658 665 L658 570 L853 570 L853 -16 L954 -16 L954 -67 L296 -67 L296 -16 L402 -16 L402 570 L604 570 L604 665 L339 665 L339 715 L604 715 L604 813 ZM454 -16 L801 -16 L801 83 L454 83 L454 -16 ZM454 128 L801 128 L801 226 L454 226 L454 128 ZM454 272 L801 272 L801 370 L454 370 L454 272 ZM454 416 L801 416 L801 520 L454 520 L454 416 ZM187 509 Q131 416 64 340 L46 397 Q198 584 264 817 L313 794 Q283 698 241 610 L241 -100 L187 -100 L187 509 Z" /><glyph glyph-name="uni505A" unicode="&#x505a;" d="M666 485 Q637 424 604 376 L572 415 Q668 560 701 807 L752 798 Q740 723 723 653 L945 653 L945 602 L895 602 Q892 328 808 146 Q867 30 961 -59 L924 -95 Q839 -13 781 94 Q714 -23 607 -95 L575 -54 Q687 19 753 148 Q684 298 666 485 ZM779 207 Q843 369 845 602 L709 602 L701 575 Q712 366 779 207 ZM295 789 Q262 678 214 579 L214 -99 L162 -99 L162 485 Q118 416 56 340 L38 397 Q183 581 247 811 L295 789 ZM577 359 L577 22 L358 22 L358 -46 L306 -46 L306 359 L416 359 L416 570 L280 570 L280 620 L416 620 L416 802 L468 802 L468 620 L601 620 L601 570 L468 570 L468 359 L577 359 ZM358 71 L526 71 L526 310 L358 310 L358 71 Z" /><glyph glyph-name="uni50B2" unicode="&#x50b2;" d="M259 793 Q232 694 196 604 L196 -101 L144 -101 L144 493 Q100 413 52 348 L35 405 Q157 585 210 816 L259 793 ZM406 800 L457 800 L457 722 L597 722 L597 672 L457 672 L457 563 L579 563 L579 516 L457 516 L457 403 L593 403 L593 354 L396 354 Q391 301 384 244 L568 244 Q567 8 541 -39 Q514 -86 450 -86 Q424 -86 388 -83 L374 -35 Q426 -39 438 -39 Q488 -38 502 0 Q514 39 517 198 L377 198 Q365 134 353 87 Q320 -16 257 -98 L223 -55 Q278 20 307 109 Q334 202 346 354 L247 354 L247 403 L406 403 L406 516 L290 516 L290 563 L406 563 L406 672 L278 672 L278 722 L406 722 L406 800 ZM712 594 Q700 555 688 519 Q720 350 774 221 Q833 377 836 594 L712 594 ZM749 161 Q692 285 657 444 Q641 409 618 373 L585 413 Q671 562 702 813 L754 803 Q742 722 725 646 L945 646 L945 594 L884 594 Q879 336 802 160 Q870 26 964 -46 L934 -91 Q842 -19 776 106 Q715 -11 613 -94 L584 -49 Q689 34 749 161 Z" /><glyph glyph-name="uni5148" unicode="&#x5148;" d="M229 603 Q189 523 138 454 L88 485 Q197 627 249 803 L302 792 Q284 730 253 656 L482 656 L482 815 L536 815 L536 656 L873 656 L873 603 L536 603 L536 398 L941 398 L941 345 L661 345 L661 31 Q661 -30 715 -30 L819 -30 Q846 -30 863 -13 Q886 13 892 161 L944 144 Q934 -18 905 -54 Q881 -81 832 -83 L700 -83 Q607 -83 607 20 L607 345 L402 345 Q389 163 327 74 Q255 -25 90 -97 L53 -50 Q209 13 275 100 Q334 179 348 345 L64 345 L64 398 L482 398 L482 603 L229 603 Z" /><glyph glyph-name="uni5149" unicode="&#x5149;" d="M473 815 L527 815 L527 434 L934 434 L934 381 L639 381 L639 28 Q639 -20 686 -20 L814 -20 Q853 -20 870 2 Q890 28 898 164 L951 147 Q941 -6 909 -42 Q882 -71 824 -71 L670 -71 Q585 -71 585 17 L585 381 L402 381 L402 372 Q399 186 322 71 Q248 -33 76 -93 L46 -46 Q211 11 281 109 Q344 209 347 372 L347 381 L67 381 L67 434 L473 434 L473 815 ZM856 741 Q804 617 719 499 L669 525 Q753 647 804 765 L856 741 ZM197 757 Q276 649 341 525 L290 499 Q222 631 146 732 L197 757 Z" /><glyph glyph-name="uni2F0A" unicode="&#x2f0a;&#x5165;" d="M464 589 Q395 716 296 785 L341 815 Q480 716 570 477 Q711 115 952 -38 L919 -81 Q672 71 520 465 Q511 491 495 526 Q398 128 76 -84 L42 -38 Q370 177 464 589 Z" /><glyph glyph-name="uni5168" unicode="&#x5168;" d="M519 809 Q710 607 957 492 L930 445 Q680 566 500 759 Q334 572 66 438 L40 486 Q303 615 481 809 L519 809 ZM222 490 L780 490 L780 437 L527 437 L527 246 L824 246 L824 193 L527 193 L527 -13 L915 -13 L915 -66 L86 -66 L86 -13 L473 -13 L473 193 L175 193 L175 246 L473 246 L473 437 L222 437 L222 490 Z" /><glyph glyph-name="uni2F0B" unicode="&#x2f0b;&#x516b;" d="M398 733 Q311 209 88 -77 L53 -33 Q269 253 344 743 L398 733 ZM630 779 Q666 233 950 -31 L922 -81 Q625 186 580 764 L630 779 Z" /><glyph glyph-name="uni516D" unicode="&#x516d;" d="M657 380 Q835 131 930 -57 L883 -90 Q782 114 611 351 L657 380 ZM388 354 Q280 67 104 -83 L59 -44 Q242 110 336 374 L388 354 ZM59 540 L941 540 L941 488 L59 488 L59 540 ZM398 807 Q522 719 604 630 L565 591 Q491 675 361 772 L398 807 Z" /><glyph glyph-name="uni5171" unicode="&#x5171;" d="M107 605 L295 605 L295 821 L349 821 L349 605 L651 605 L651 817 L705 817 L705 605 L894 605 L894 553 L705 553 L705 294 L944 294 L944 241 L56 241 L56 294 L295 294 L295 553 L107 553 L107 605 ZM349 294 L651 294 L651 553 L349 553 L349 294 ZM408 156 Q284 16 95 -94 L58 -46 Q239 55 367 192 L408 156 ZM640 190 Q815 73 941 -51 L898 -92 Q787 25 601 153 L640 190 Z" /><glyph glyph-name="uni5176" unicode="&#x5176;" d="M73 722 L244 722 L244 820 L298 820 L298 722 L702 722 L702 820 L756 820 L756 722 L927 722 L927 670 L756 670 L756 194 L946 194 L946 143 L55 143 L55 194 L244 194 L244 670 L73 670 L73 722 ZM298 194 L702 194 L702 324 L298 324 L298 194 ZM298 371 L702 371 L702 497 L298 497 L298 371 ZM298 545 L702 545 L702 670 L298 670 L298 545 ZM412 74 Q286 -22 103 -94 L69 -50 Q250 19 374 109 L412 74 ZM622 108 Q792 44 931 -48 L901 -95 Q750 7 594 67 L622 108 Z" /><glyph glyph-name="uni5177" unicode="&#x5177;" d="M790 771 L790 158 L942 158 L942 107 L58 107 L58 158 L210 158 L210 771 L790 771 ZM263 158 L737 158 L737 266 L263 266 L263 158 ZM263 311 L737 311 L737 417 L263 417 L263 311 ZM263 462 L737 462 L737 568 L263 568 L263 462 ZM263 613 L737 613 L737 720 L263 720 L263 613 ZM398 61 Q286 -29 117 -99 L85 -56 Q247 10 358 97 L398 61 ZM628 99 Q785 37 914 -50 L884 -97 Q750 -1 600 58 L628 99 Z" /><glyph glyph-name="uni5178" unicode="&#x5178;" d="M852 683 L852 207 L951 207 L951 155 L46 155 L46 207 L149 207 L149 683 L362 683 L362 824 L414 824 L414 683 L588 683 L588 824 L640 824 L640 683 L852 683 ZM201 207 L362 207 L362 401 L201 401 L201 207 ZM414 207 L588 207 L588 401 L414 401 L414 207 ZM640 207 L800 207 L800 401 L640 401 L640 207 ZM201 452 L362 452 L362 632 L201 632 L201 452 ZM414 632 L414 452 L588 452 L588 632 L414 632 ZM640 632 L640 452 L800 452 L800 632 L640 632 ZM626 123 Q799 48 941 -57 L911 -102 Q759 14 598 82 L626 123 ZM407 84 Q282 -29 87 -104 L63 -54 Q250 12 373 123 L407 84 Z" /><glyph glyph-name="uni5185" unicode="&#x5185;" d="M494 425 Q433 243 250 126 L214 169 Q387 281 444 452 Q464 517 474 593 L166 593 L166 -97 L112 -97 L112 646 L480 646 Q488 732 488 817 L543 817 Q543 737 536 646 L889 646 L889 5 Q889 -88 798 -88 L642 -88 L627 -34 L780 -36 Q835 -36 835 16 L835 593 L530 593 Q521 532 509 480 Q671 327 779 179 L738 138 Q643 278 494 425 Z" /><glyph glyph-name="uni51AF" unicode="&#x51af;" d="M99 773 Q204 647 261 551 L215 519 Q156 622 54 745 L99 773 ZM273 345 Q196 117 106 -73 L54 -51 Q151 149 224 365 L273 345 ZM450 652 L503 649 L444 372 L720 372 L780 719 L344 719 L344 770 L840 770 L773 372 L916 372 Q916 23 869 -32 Q821 -85 668 -85 Q623 -85 572 -82 L556 -31 Q636 -36 655 -36 Q804 -36 832 15 Q863 71 863 321 L380 321 L450 652 ZM299 179 L760 179 L760 127 L299 127 L299 179 Z" /><glyph glyph-name="uni51B3" unicode="&#x51b3;" d="M361 659 L568 659 L568 814 L621 814 L621 659 L852 659 L852 364 L945 364 L945 312 L637 312 Q736 84 959 -53 L924 -93 Q692 60 595 297 Q526 26 279 -98 L246 -55 Q481 56 544 312 L319 312 L319 364 L555 364 Q566 433 568 515 L568 608 L361 608 L361 659 ZM621 608 L621 527 Q621 441 609 364 L799 364 L799 608 L621 608 ZM104 776 Q207 649 264 551 L219 519 Q163 620 59 749 L104 776 ZM275 345 Q199 126 104 -70 L53 -48 Q151 150 227 364 L275 345 Z" /><glyph glyph-name="uni2F0F" unicode="&#x2f0f;&#x51e0;" d="M54 -60 Q168 54 213 183 Q249 294 249 464 L249 766 L695 766 L695 19 Q695 -22 738 -22 L823 -22 Q847 -22 866 -15 Q884 -4 890 24 Q898 69 898 218 L947 202 Q947 96 940 24 Q934 -35 905 -56 Q878 -72 826 -72 L738 -72 Q640 -72 640 16 L640 712 L302 712 L302 464 Q302 278 259 155 Q214 22 95 -98 L54 -60 Z" /><glyph glyph-name="uni51FA" unicode="&#x51fa;" d="M782 460 L782 740 L836 740 L836 408 L528 408 L528 24 L829 24 L829 303 L882 303 L882 -91 L829 -91 L829 -29 L171 -29 L171 -91 L118 -91 L118 303 L171 303 L171 24 L472 24 L472 408 L164 408 L164 740 L218 740 L218 460 L472 460 L472 816 L528 816 L528 460 L782 460 Z" /><glyph glyph-name="uni5206" unicode="&#x5206;" d="M421 767 Q350 637 279 557 Q196 465 77 384 L46 432 Q154 494 238 592 Q317 682 375 795 L421 767 ZM189 360 L189 411 L786 411 Q782 228 768 114 Q753 2 720 -43 Q687 -87 613 -90 L426 -90 L412 -38 Q536 -40 587 -40 Q670 -40 697 33 Q723 108 732 360 L447 360 Q411 188 347 90 Q274 -13 127 -97 L93 -54 Q227 20 297 112 Q363 205 393 360 L189 360 ZM640 806 Q728 574 953 439 L916 397 Q685 544 594 780 L640 806 Z" /><glyph glyph-name="uni5207" unicode="&#x5207;" d="M607 693 L408 693 L408 746 L918 746 Q918 214 903 88 Q889 -75 769 -75 Q731 -75 635 -72 L622 -22 Q703 -25 763 -25 Q838 -25 850 105 Q861 198 864 693 L661 693 L661 588 Q655 118 349 -100 L305 -61 Q601 141 607 588 L607 693 ZM452 583 L460 531 L222 483 L222 143 Q319 182 412 237 L426 187 Q313 117 152 62 L136 113 Q168 127 168 154 L168 472 L41 447 L33 500 L168 526 L168 800 L222 800 L222 537 L452 583 Z" /><glyph glyph-name="uni521B" unicode="&#x521b;" d="M439 442 L205 442 L205 3 Q205 -30 242 -30 L446 -30 Q503 -30 516 -3 Q532 33 538 117 L589 99 Q580 -23 552 -56 Q527 -81 458 -81 L224 -81 Q151 -81 151 -12 L151 491 L492 491 L492 233 Q492 154 414 151 Q374 151 304 155 L290 205 Q366 201 397 201 Q439 201 439 246 L439 442 ZM351 803 Q480 665 603 509 L567 472 Q436 643 335 752 Q218 580 71 443 L39 486 Q187 622 309 803 L351 803 ZM672 726 L725 726 L725 99 L672 99 L672 726 ZM677 -88 L665 -37 Q748 -40 822 -40 Q855 -40 855 -1 L855 811 L909 811 L909 -15 Q909 -88 841 -88 L677 -88 Z" /><glyph glyph-name="uni5229" unicode="&#x5229;" d="M61 539 L269 539 L269 695 Q181 678 79 670 L61 720 Q303 738 475 807 L502 762 Q413 727 324 707 L324 539 L513 539 L513 486 L324 486 L324 430 Q415 349 517 236 L486 188 Q392 307 324 374 L324 -98 L269 -98 L269 388 Q196 225 65 94 L40 155 Q201 301 267 486 L61 486 L61 539 ZM607 721 L661 721 L661 99 L607 99 L607 721 ZM667 -88 L655 -36 Q751 -40 794 -40 Q845 -40 845 14 L845 811 L900 811 L900 0 Q900 -88 813 -88 L667 -88 Z" /><glyph glyph-name="uni522B" unicode="&#x522b;" d="M103 466 L103 771 L516 771 L516 466 L319 466 Q316 408 308 329 L525 329 Q525 72 510 12 Q495 -84 368 -84 Q349 -84 302 -81 L289 -33 Q345 -35 363 -35 Q445 -35 459 29 Q469 70 472 278 L301 278 Q284 181 259 120 Q204 -4 77 -95 L43 -52 Q159 27 210 141 Q233 193 247 278 L61 278 L61 329 L254 329 Q262 398 265 466 L103 466 ZM642 726 L696 726 L696 99 L642 99 L642 726 ZM680 -88 L668 -37 Q739 -40 802 -40 Q852 -40 852 16 L852 811 L906 811 L906 2 Q906 -88 821 -88 L680 -88 ZM464 516 L464 721 L155 721 L155 516 L464 516 Z" /><glyph glyph-name="uni5230" unicode="&#x5230;" d="M563 -2 Q327 -51 67 -82 L54 -30 Q156 -20 292 1 L292 210 L90 210 L90 262 L292 262 L292 387 L346 387 L346 262 L536 262 L536 210 L346 210 L346 10 Q460 29 563 52 L563 -2 ZM66 765 L559 765 L559 713 L297 713 Q219 547 147 467 Q309 483 466 508 Q434 561 383 632 L425 658 Q522 527 580 417 L536 386 Q515 427 491 467 Q300 434 70 413 L58 462 Q77 466 79 467 Q153 532 241 713 L66 713 L66 765 ZM680 -88 L668 -36 Q764 -40 807 -40 Q855 -40 855 9 L855 811 L910 811 L910 -5 Q910 -88 826 -88 L680 -88 ZM649 721 L702 721 L702 99 L649 99 L649 721 Z" /><glyph glyph-name="uni5236" unicode="&#x5236;" d="M150 632 Q123 572 83 528 L39 559 Q117 642 138 788 L190 780 Q181 724 168 683 L305 683 L305 812 L359 812 L359 683 L553 683 L553 632 L359 632 L359 486 L581 486 L581 435 L359 435 L359 314 L555 314 L555 53 Q555 -28 475 -28 L420 -28 L406 24 L458 21 Q503 21 503 64 L503 264 L359 264 L359 -100 L305 -100 L305 264 L158 264 L158 -36 L105 -36 L105 314 L305 314 L305 435 L57 435 L57 486 L305 486 L305 632 L150 632 ZM649 721 L702 721 L702 99 L649 99 L649 721 ZM680 -88 L668 -37 Q740 -40 807 -40 Q858 -40 858 12 L858 811 L912 811 L912 -2 Q912 -88 826 -88 L680 -88 Z" /><glyph glyph-name="uni2F12" unicode="&#x2f12;&#x529b;" d="M426 812 L482 812 L482 727 Q480 655 478 617 L864 617 Q860 364 844 197 Q829 37 795 -25 Q761 -85 684 -91 L553 -91 L539 -39 Q623 -41 658 -41 Q744 -41 771 71 Q799 184 808 564 L474 564 Q455 344 388 194 Q301 8 102 -96 L71 -49 Q267 56 349 239 Q402 374 418 564 L119 564 L119 617 L422 617 Q424 653 426 727 L426 812 Z" /><glyph glyph-name="uni529F" unicode="&#x529f;" d="M206 659 L54 659 L54 713 L411 713 L411 659 L259 659 L259 154 Q331 177 425 215 L425 160 Q260 94 62 48 L48 102 Q114 114 206 139 L206 659 ZM607 812 L661 812 L661 621 L918 621 Q918 158 904 43 Q886 -87 735 -87 L648 -85 L636 -34 Q690 -37 729 -37 Q837 -37 852 61 Q863 140 866 568 L661 568 L661 565 Q655 111 419 -98 L376 -60 Q603 135 607 565 L607 568 L450 568 L450 621 L607 621 L607 812 Z" /><glyph glyph-name="uni52A0" unicode="&#x52a0;" d="M900 678 L900 -82 L846 -82 L846 -13 L648 -13 L648 -82 L594 -82 L594 678 L900 678 ZM648 40 L846 40 L846 625 L648 625 L648 40 ZM225 812 L279 812 L279 634 L489 634 Q489 157 474 43 Q459 -87 325 -87 Q303 -87 250 -84 L237 -35 Q284 -38 319 -38 Q408 -38 423 61 Q433 146 436 580 L279 580 L279 568 Q274 110 83 -101 L40 -63 Q222 134 225 568 L225 580 L58 580 L58 634 L225 634 L225 812 Z" /><glyph glyph-name="uni52A8" unicode="&#x52a8;" d="M93 738 L449 738 L449 687 L93 687 L93 738 ZM53 469 L488 469 L488 415 L253 415 Q186 168 136 70 Q266 93 401 144 Q354 241 318 303 L364 325 Q437 196 503 44 L455 20 L421 99 Q263 43 73 8 L60 59 Q70 63 71 64 Q119 127 200 415 L53 415 L53 469 ZM649 812 L703 812 L703 626 L923 626 Q923 145 909 27 Q897 -87 784 -87 Q757 -87 689 -84 L676 -37 Q756 -39 779 -39 Q845 -39 857 43 Q867 130 870 574 L703 574 L703 560 Q699 110 490 -100 L447 -62 Q646 132 649 560 L649 574 L517 574 L517 626 L649 626 L649 812 Z" /><glyph glyph-name="uni52A9" unicode="&#x52a9;" d="M446 755 L446 133 L516 156 L516 104 Q325 37 64 -22 L50 30 L119 45 L119 755 L446 755 ZM173 57 Q281 82 392 116 L392 264 L173 264 L173 57 ZM173 314 L392 314 L392 486 L173 486 L173 314 ZM173 535 L392 535 L392 704 L173 704 L173 535 ZM637 810 L691 810 L691 620 L917 620 Q917 156 903 41 Q886 -87 742 -87 Q722 -87 671 -84 L658 -37 Q718 -39 737 -39 Q835 -39 850 58 Q861 137 864 568 L691 568 L691 566 Q687 110 478 -100 L435 -63 Q634 133 637 566 L637 568 L509 568 L509 620 L637 620 L637 810 Z" /><glyph glyph-name="uni52AA" unicode="&#x52aa;" d="M303 811 Q287 759 270 716 L462 716 L462 669 Q429 555 349 472 Q420 435 478 399 L448 356 Q394 393 311 436 Q222 361 91 316 L65 361 Q182 400 262 461 Q198 493 129 523 Q164 591 196 666 L76 666 L76 716 L216 716 Q236 768 250 817 L303 811 ZM301 495 Q378 570 412 666 L251 666 Q224 602 191 543 Q242 523 301 495 ZM518 685 L518 734 L882 734 L882 688 Q840 564 750 477 Q828 423 943 385 L918 339 Q793 382 711 443 Q639 387 541 349 L517 395 Q606 428 671 476 Q575 565 546 685 L518 685 ZM709 507 Q791 581 829 685 L594 685 Q616 583 709 507 ZM518 331 Q518 289 511 240 L860 240 Q857 5 814 -39 Q768 -85 660 -85 Q616 -85 553 -82 L539 -33 L648 -37 Q748 -36 775 1 Q799 37 805 192 L500 192 Q485 143 461 103 Q382 -19 113 -97 L76 -53 Q321 13 402 114 Q426 149 442 192 L122 192 L122 240 L455 240 Q464 284 464 331 L518 331 Z" /><glyph glyph-name="uni5316" unicode="&#x5316;" d="M404 794 Q350 668 271 562 L271 -100 L217 -100 L217 495 Q146 415 59 343 L42 399 Q257 582 353 817 L404 794 ZM616 -81 Q520 -81 520 13 L520 337 Q447 295 378 262 L352 314 Q437 351 520 400 L520 810 L574 810 L574 434 Q739 542 863 684 L900 642 Q762 487 574 370 L574 21 Q574 -29 629 -29 L799 -29 Q841 -29 861 -4 Q880 22 886 180 L936 164 Q927 -9 902 -46 Q875 -81 808 -81 L616 -81 Z" /><glyph glyph-name="uni2F17" unicode="&#x2f17;&#x5341;" d="M476 813 L530 813 L530 480 L943 480 L943 426 L530 426 L530 -97 L476 -97 L476 426 L60 426 L60 480 L476 480 L476 813 Z" /><glyph glyph-name="uni5343" unicode="&#x5343;" d="M61 397 L478 397 L478 671 Q316 657 141 657 L124 708 Q560 709 841 791 L868 743 Q724 698 532 677 L532 397 L939 397 L939 344 L532 344 L532 -95 L478 -95 L478 344 L61 344 L61 397 Z" /><glyph glyph-name="uni534E" unicode="&#x534e;" d="M70 213 L472 213 L472 317 L526 317 L526 213 L931 213 L931 159 L526 159 L526 -99 L472 -99 L472 159 L70 159 L70 213 ZM619 339 Q536 339 536 418 L536 511 Q454 475 377 449 L345 494 Q454 531 536 567 L536 801 L589 801 L589 592 Q751 672 856 767 L893 728 Q767 621 589 535 L589 430 Q589 389 634 389 L792 389 Q834 389 853 405 Q876 425 885 530 L936 513 Q924 391 892 362 Q864 339 803 339 L619 339 ZM214 580 Q151 522 73 469 L57 525 Q247 653 331 816 L378 794 Q331 707 268 635 L268 301 L214 301 L214 580 Z" /><glyph glyph-name="uni534F" unicode="&#x534f;" d="M57 595 L172 595 L172 807 L226 807 L226 595 L347 595 L347 541 L226 541 L226 -98 L172 -98 L172 541 L57 541 L57 595 ZM871 431 Q928 315 965 196 L923 177 Q879 315 829 418 L871 431 ZM558 806 L612 806 L612 629 L815 629 Q815 145 800 29 Q788 -86 682 -86 Q656 -86 591 -83 L578 -34 Q634 -37 676 -37 Q739 -37 749 47 Q758 137 761 575 L612 575 L612 550 Q606 108 374 -96 L333 -60 Q555 131 558 550 L558 575 L383 575 L383 629 L558 629 L558 806 ZM450 426 Q405 247 324 149 L286 184 Q367 282 406 437 L450 426 Z" /><glyph glyph-name="uni5374" unicode="&#x5374;" d="M70 667 L268 667 L268 817 L322 817 L322 667 L512 667 L512 614 L322 614 L322 431 L543 431 L543 377 L288 377 Q202 138 136 40 Q279 60 433 104 Q398 200 367 270 L416 287 Q488 127 537 -38 L487 -61 Q475 -20 450 55 Q269 6 66 -22 L53 28 Q61 31 65 34 Q128 96 234 377 L44 377 L44 431 L268 431 L268 614 L70 614 L70 667 ZM740 27 L725 80 L800 78 Q852 78 852 133 L852 704 L659 704 L659 -95 L605 -95 L605 756 L906 756 L906 121 Q906 27 817 27 L740 27 Z" /><glyph glyph-name="uni5377" unicode="&#x5377;" d="M254 800 Q299 739 335 664 L290 643 Q250 724 205 784 L254 800 ZM809 783 Q772 702 713 642 L670 666 Q726 725 761 800 L809 783 ZM131 629 L452 629 Q484 718 499 816 L553 810 Q538 712 508 629 L871 629 L871 577 L488 577 Q460 514 428 461 L926 461 L926 409 L680 409 Q763 297 956 209 L921 165 Q801 228 723 297 L723 149 Q723 81 644 78 Q592 78 496 80 L483 128 Q583 124 627 124 Q669 124 669 161 L669 250 L325 250 L325 4 Q325 -34 372 -34 L710 -34 Q776 -34 792 -10 Q809 19 817 99 L871 82 Q859 -35 828 -61 Q800 -84 722 -84 L354 -84 Q271 -84 271 -12 L271 280 Q186 209 77 157 L47 204 Q219 279 328 409 L74 409 L74 461 L367 461 Q406 520 431 577 L131 577 L131 629 ZM393 409 Q351 352 294 299 L721 299 Q661 351 624 409 L393 409 Z" /><glyph glyph-name="uni538C" unicode="&#x538c;" d="M263 424 L541 424 Q543 435 545 457 L546 646 L600 646 Q600 581 598 451 L595 429 L596 424 L908 424 L908 370 L611 370 Q691 102 944 -54 L907 -95 Q648 76 577 334 Q508 81 245 -94 L208 -54 Q478 128 532 370 L263 370 L263 424 ZM703 652 Q798 576 861 502 L823 465 Q762 540 666 617 L703 652 ZM928 765 L928 711 L193 711 L193 378 Q187 83 88 -96 L47 -59 Q135 99 139 378 L139 765 L928 765 Z" /><glyph glyph-name="uni53C2" unicode="&#x53c2;" d="M65 509 L402 509 Q435 554 453 602 Q354 598 171 592 L162 640 Q271 674 410 816 L463 798 Q367 698 270 640 Q513 648 699 662 Q628 724 592 754 L634 781 Q784 661 862 573 L817 543 Q788 576 745 619 Q606 610 509 605 Q492 556 462 509 L927 509 L927 459 L664 459 Q757 356 957 297 L933 247 Q700 329 607 459 L425 459 Q308 324 70 241 L46 289 Q254 352 359 459 L65 459 L65 509 ZM553 385 Q451 260 242 187 L217 231 Q416 298 509 411 L553 385 ZM815 236 Q678 -11 220 -108 L188 -65 Q644 34 768 258 L815 236 ZM680 301 Q507 102 236 53 L205 96 Q482 141 637 329 L680 301 Z" /><glyph glyph-name="uni53CB" unicode="&#x53cb;" d="M76 671 L359 671 Q370 756 376 814 L430 814 Q411 659 413 671 L937 671 L937 617 L405 617 Q388 518 374 452 L835 452 L835 404 Q773 234 636 110 Q764 7 954 -45 L926 -93 Q728 -34 595 76 Q458 -30 266 -96 L239 -45 Q428 17 555 112 Q431 232 377 401 L362 401 Q343 323 320 263 Q243 71 87 -87 L52 -43 Q196 104 268 281 Q320 418 351 617 L76 617 L76 671 ZM426 401 Q482 250 596 145 Q721 253 778 401 L426 401 Z" /><glyph glyph-name="uni53CC" unicode="&#x53cc;" d="M120 595 Q220 478 304 360 Q360 515 372 696 L74 696 L74 749 L425 749 L425 707 Q413 482 342 305 Q410 208 472 99 L430 58 Q382 145 316 246 Q231 68 81 -64 L45 -21 Q200 116 280 299 Q187 432 82 558 L120 595 ZM496 749 L899 749 L899 700 Q864 449 731 233 Q820 85 954 -47 L916 -92 Q782 45 699 183 Q602 41 458 -90 L421 -46 Q573 88 669 234 Q545 459 532 696 L496 696 L496 749 ZM582 696 Q594 485 701 286 Q814 481 846 696 L582 696 Z" /><glyph glyph-name="uni53D7" unicode="&#x53d7;" d="M888 759 Q591 710 116 710 L100 759 Q568 761 862 805 L888 759 ZM911 502 L911 284 L857 284 L857 450 L143 450 L143 284 L89 284 L89 502 L655 502 Q720 595 762 695 L816 675 Q767 575 712 502 L911 502 ZM216 674 Q272 605 314 537 L266 514 Q220 590 168 651 L216 674 ZM452 688 Q502 624 546 546 L498 522 Q453 603 404 664 L452 688 ZM204 336 L786 336 L786 289 Q715 162 563 71 Q712 -2 941 -51 L910 -99 Q667 -44 509 41 Q342 -45 91 -98 L63 -48 Q296 -4 457 71 Q309 164 250 286 L204 286 L204 336 ZM304 286 Q368 179 510 99 Q656 180 726 286 L304 286 Z" /><glyph glyph-name="uni53D8" unicode="&#x53d8;" d="M754 599 Q871 525 953 447 L916 410 Q839 485 718 564 L754 599 ZM499 828 Q523 773 539 720 L928 720 L928 668 L645 668 L645 390 L591 390 L591 668 L410 668 L410 389 L356 389 L356 668 L72 668 L72 720 L485 720 Q463 776 440 818 L499 828 ZM286 561 Q203 470 81 405 L49 447 Q165 511 247 596 L286 561 ZM140 329 L816 329 L816 287 Q712 156 559 69 Q724 -10 958 -43 L932 -92 Q682 -50 506 40 Q324 -50 82 -92 L56 -41 Q280 -8 451 71 Q308 158 222 280 L140 280 L140 329 ZM281 280 Q368 172 503 97 Q644 172 743 280 L281 280 Z" /><glyph glyph-name="uni53E4" unicode="&#x53e4;" d="M60 627 L473 627 L473 816 L528 816 L528 627 L940 627 L940 574 L528 574 L528 364 L802 364 L802 -93 L748 -93 L748 -35 L253 -35 L253 -93 L199 -93 L199 364 L473 364 L473 574 L60 574 L60 627 ZM253 18 L748 18 L748 313 L253 313 L253 18 Z" /><glyph glyph-name="uni53EA" unicode="&#x53ea;" d="M186 752 L814 752 L814 314 L186 314 L186 752 ZM760 365 L760 700 L240 700 L240 365 L760 365 ZM673 250 Q845 64 933 -69 L887 -101 Q794 46 629 223 L673 250 ZM373 227 Q264 36 120 -102 L73 -67 Q220 65 326 250 L373 227 Z" /><glyph glyph-name="uni53EF" unicode="&#x53ef;" d="M58 750 L945 750 L945 697 L809 697 L809 3 Q809 -90 717 -90 L552 -90 L540 -38 Q650 -42 698 -42 Q754 -42 754 17 L754 697 L58 697 L58 750 ZM553 527 L553 173 L231 173 L231 82 L179 82 L179 527 L553 527 ZM231 223 L501 223 L501 478 L231 478 L231 223 Z" /><glyph glyph-name="uni53F0" unicode="&#x53f0;" d="M828 311 L828 -99 L774 -99 L774 -42 L226 -42 L226 -99 L172 -99 L172 311 L828 311 ZM226 11 L774 11 L774 259 L226 259 L226 11 ZM86 474 Q232 534 421 816 L476 797 Q330 585 187 476 Q512 490 774 516 Q708 606 642 681 L692 705 Q830 545 939 373 L887 347 Q858 395 808 468 Q490 438 96 423 L86 474 Z" /><glyph glyph-name="uni53F7" unicode="&#x53f7;" d="M217 775 L783 775 L783 518 L217 518 L217 775 ZM729 567 L729 725 L271 725 L271 567 L729 567 ZM289 364 L55 364 L55 417 L944 417 L944 364 L345 364 L307 232 L800 232 Q790 1 756 -46 Q721 -89 623 -89 Q569 -89 489 -85 L470 -35 Q560 -40 611 -40 Q693 -40 715 -3 Q735 34 744 182 L243 182 L289 364 Z" /><glyph glyph-name="uni5409" unicode="&#x5409;" d="M473 814 L528 814 L528 683 L935 683 L935 629 L528 629 L528 458 L884 458 L884 405 L117 405 L117 458 L473 458 L473 629 L66 629 L66 683 L473 683 L473 814 ZM824 293 L824 -97 L770 -97 L770 -49 L231 -49 L231 -97 L176 -97 L176 293 L824 293 ZM231 4 L770 4 L770 240 L231 240 L231 4 Z" /><glyph glyph-name="uni540C" unicode="&#x540c;" d="M680 -94 L665 -39 L797 -42 Q840 -42 840 5 L840 718 L160 718 L160 -97 L105 -97 L105 771 L895 771 L895 -7 Q895 -94 815 -94 L680 -94 ZM242 588 L759 588 L759 536 L242 536 L242 588 ZM303 416 L698 416 L698 103 L303 103 L303 416 ZM646 153 L646 366 L355 366 L355 153 L646 153 Z" /><glyph glyph-name="uni540D" unicode="&#x540d;" d="M345 -32 L345 -94 L291 -94 L291 266 Q184 230 80 205 L53 256 Q322 315 494 407 Q427 465 304 536 L351 565 Q471 493 539 433 Q703 531 779 665 L389 665 Q288 569 127 494 L92 541 Q349 653 441 816 L499 809 Q474 762 438 717 L841 717 L841 668 Q724 450 423 317 L867 317 L867 -94 L812 -94 L812 -32 L345 -32 ZM812 21 L812 266 L345 266 L345 21 L812 21 Z" /><glyph glyph-name="uni540E" unicode="&#x540e;" d="M219 475 L219 438 Q210 101 82 -95 L41 -53 Q157 125 166 438 L166 731 Q542 734 856 801 L882 752 Q588 691 219 683 L219 528 L947 528 L947 475 L219 475 ZM865 318 L865 -98 L811 -98 L811 -46 L378 -46 L378 -98 L323 -98 L323 318 L865 318 ZM378 8 L811 8 L811 266 L378 266 L378 8 Z" /><glyph glyph-name="uni5411" unicode="&#x5411;" d="M322 455 L681 455 L681 118 L322 118 L322 455 ZM628 169 L628 404 L375 404 L375 169 L628 169 ZM501 812 Q482 733 444 663 L895 663 L895 -6 Q895 -92 812 -92 L659 -92 L644 -37 L794 -39 Q840 -39 840 6 L840 610 L168 610 L168 -96 L113 -96 L113 663 L387 663 Q427 741 445 820 L501 812 Z" /><glyph glyph-name="uni5427" unicode="&#x5427;" d="M349 726 L349 20 L296 20 L296 80 L148 80 L148 -2 L94 -2 L94 726 L349 726 ZM148 132 L296 132 L296 674 L148 674 L148 132 ZM639 711 L498 711 L498 379 L639 379 L639 711 ZM690 379 L838 379 L838 711 L690 711 L690 379 ZM891 762 L891 328 L498 328 L498 38 Q498 -27 561 -29 L812 -29 Q853 -28 871 11 Q884 43 890 160 L942 143 Q935 38 919 -11 Q894 -79 826 -81 L543 -81 Q445 -81 445 21 L445 762 L891 762 Z" /><glyph glyph-name="uni548C" unicode="&#x548c;" d="M902 741 L902 -58 L848 -58 L848 25 L586 25 L586 -67 L533 -67 L533 741 L902 741 ZM586 76 L848 76 L848 690 L586 690 L586 76 ZM74 534 L255 534 L255 695 Q171 681 91 675 L73 725 Q290 740 447 802 L473 756 Q388 724 307 706 L307 534 L484 534 L484 483 L307 483 L307 426 Q400 341 486 242 L454 196 Q369 310 307 376 L307 -93 L255 -93 L255 387 Q190 230 71 102 L48 159 Q195 303 255 483 L74 483 L74 534 Z" /><glyph glyph-name="uni54C1" unicode="&#x54c1;" d="M229 767 L769 767 L769 456 L229 456 L229 767 ZM714 508 L714 715 L284 715 L284 508 L714 508 ZM436 338 L436 -82 L383 -82 L383 -29 L152 -29 L152 -82 L99 -82 L99 338 L436 338 ZM152 22 L383 22 L383 287 L152 287 L152 22 ZM901 338 L901 -82 L847 -82 L847 -29 L606 -29 L606 -82 L553 -82 L553 338 L901 338 ZM606 22 L847 22 L847 287 L606 287 L606 22 Z" /><glyph glyph-name="uni54E5" unicode="&#x54e5;" d="M99 768 L915 768 L915 716 L797 716 L797 420 L744 420 L744 716 L99 716 L99 768 ZM208 638 L577 638 L577 448 L208 448 L208 638 ZM527 489 L527 595 L258 595 L258 489 L527 489 ZM59 370 L940 370 L940 319 L799 319 L799 -7 Q799 -95 710 -95 L593 -95 L581 -45 Q657 -49 692 -49 Q746 -49 746 7 L746 319 L59 319 L59 370 ZM199 230 L579 230 L579 29 L199 29 L199 230 ZM528 72 L528 188 L250 188 L250 72 L528 72 Z" /><glyph glyph-name="uni5531" unicode="&#x5531;" d="M345 726 L345 16 L292 16 L292 77 L140 77 L140 -5 L86 -5 L86 726 L345 726 ZM140 129 L292 129 L292 674 L140 674 L140 129 ZM469 771 L878 771 L878 423 L469 423 L469 771 ZM828 471 L828 574 L520 574 L520 471 L828 471 ZM520 620 L828 620 L828 724 L520 724 L520 620 ZM915 329 L915 -100 L865 -100 L865 -48 L483 -48 L483 -100 L432 -100 L432 329 L915 329 ZM483 2 L865 2 L865 118 L483 118 L483 2 ZM483 166 L865 166 L865 280 L483 280 L483 166 Z" /><glyph glyph-name="uni5546" unicode="&#x5546;" d="M321 261 L678 261 L678 28 L321 28 L321 261 ZM625 77 L625 212 L374 212 L374 77 L625 77 ZM589 460 Q718 368 800 280 L760 241 Q684 328 553 424 L589 460 ZM492 824 Q515 781 534 725 L940 725 L940 673 L721 673 Q689 592 656 538 L883 538 L883 4 Q883 -93 802 -93 L701 -93 L687 -43 L785 -45 Q830 -45 830 15 L830 489 L168 489 L168 -90 L115 -90 L115 538 L331 538 Q307 612 271 673 L60 673 L60 725 L476 725 Q455 775 434 815 L492 824 ZM598 538 Q633 601 661 673 L331 673 Q364 607 386 538 L598 538 ZM443 423 Q355 320 226 242 L192 286 Q317 359 404 458 L443 423 Z" /><glyph glyph-name="uni559C" unicode="&#x559c;" d="M132 623 L473 623 L473 700 L98 700 L98 746 L473 746 L473 816 L527 816 L527 746 L903 746 L903 700 L527 700 L527 623 L868 623 L868 578 L132 578 L132 623 ZM287 343 L192 343 L192 515 L808 515 L808 343 L719 343 L673 260 L944 260 L944 212 L56 212 L56 260 L324 260 L287 343 ZM662 343 L343 343 L380 260 L616 260 L662 343 ZM756 386 L756 473 L244 473 L244 386 L756 386 ZM823 146 L823 -96 L771 -96 L771 -54 L230 -54 L230 -96 L178 -96 L178 146 L823 146 ZM230 -8 L771 -8 L771 100 L230 100 L230 -8 Z" /><glyph glyph-name="uni5668" unicode="&#x5668;&#xfa38;" d="M144 773 L437 773 L437 542 L144 542 L144 773 ZM387 589 L387 726 L195 726 L195 589 L387 589 ZM563 773 L860 773 L860 542 L563 542 L563 773 ZM809 589 L809 726 L613 726 L613 589 L809 589 ZM61 429 L401 429 Q433 471 451 517 L502 511 Q487 474 459 429 L745 429 Q719 474 694 505 L742 520 Q776 476 799 429 L939 429 L939 379 L652 379 Q751 274 961 214 L939 168 Q906 179 858 199 L858 -99 L808 -99 L808 -52 L603 -52 L603 -99 L553 -99 L553 208 L835 208 Q674 280 597 379 L422 379 Q332 274 176 208 L447 208 L447 -99 L397 -99 L397 -52 L208 -52 L208 -99 L159 -99 L159 201 Q118 184 65 168 L40 213 Q247 276 356 379 L61 379 L61 429 ZM208 -5 L397 -5 L397 160 L208 160 L208 -5 ZM603 -5 L808 -5 L808 160 L603 160 L603 -5 Z" /><glyph glyph-name="uni56DB" unicode="&#x56db;" d="M902 745 L902 -82 L847 -82 L847 -19 L153 -19 L153 -82 L98 -82 L98 745 L902 745 ZM153 30 L847 30 L847 218 L670 218 Q583 218 583 304 L583 695 L419 695 L419 475 Q416 264 242 168 L198 206 Q363 290 366 475 L366 695 L153 695 L153 30 ZM636 695 L636 315 Q636 268 683 268 L847 268 L847 695 L636 695 Z" /><glyph glyph-name="uni56DE" unicode="&#x56de;" d="M318 533 L683 533 L683 184 L318 184 L318 533 ZM630 233 L630 484 L371 484 L371 233 L630 233 ZM896 752 L896 -78 L841 -78 L841 -38 L159 -38 L159 -78 L104 -78 L104 752 L896 752 ZM159 12 L841 12 L841 702 L159 702 L159 12 Z" /><glyph glyph-name="uni56E2" unicode="&#x56e2;" d="M244 526 L586 526 L586 655 L637 655 L637 526 L768 526 L768 477 L637 477 L637 161 Q637 79 560 79 L447 79 L436 129 Q508 125 542 125 Q586 125 586 174 L585 477 Q467 267 256 147 L227 194 Q427 299 539 477 L244 477 L244 526 ZM897 765 L897 -98 L845 -98 L845 -48 L155 -48 L155 -98 L103 -98 L103 765 L897 765 ZM155 2 L845 2 L845 715 L155 715 L155 2 Z" /><glyph glyph-name="uni56ED" unicode="&#x56ed;" d="M901 764 L901 -98 L847 -98 L847 -54 L153 -54 L153 -98 L99 -98 L99 764 L901 764 ZM153 -5 L847 -5 L847 714 L153 714 L153 -5 ZM293 607 L708 607 L708 558 L293 558 L293 607 ZM235 436 L765 436 L765 387 L599 387 L599 167 Q599 127 635 127 L681 127 Q703 127 716 135 Q735 147 741 247 L787 232 Q778 124 757 100 Q736 81 692 81 L620 81 Q585 81 567 101 Q548 123 548 156 L548 387 L439 387 Q426 263 380 191 Q329 116 224 71 L199 115 Q293 154 338 221 Q377 281 389 387 L235 387 L235 436 Z" /><glyph glyph-name="uni5728" unicode="&#x5728;" d="M361 343 L599 343 L599 536 L654 536 L654 343 L897 343 L897 289 L654 289 L654 -10 L944 -10 L944 -63 L317 -63 L317 -10 L599 -10 L599 289 L361 289 L361 343 ZM207 327 Q142 257 72 199 L37 243 Q235 406 344 619 L72 619 L72 672 L369 672 Q398 741 423 820 L478 814 Q459 746 428 672 L941 672 L941 619 L404 619 Q342 493 261 391 L261 -100 L207 -100 L207 327 Z" /><glyph glyph-name="uni573A" unicode="&#x573a;" d="M420 411 L420 461 Q618 577 772 702 L431 702 L431 753 L850 753 L850 704 Q693 570 514 459 L915 459 Q907 118 885 19 Q861 -82 753 -84 Q718 -84 658 -82 L643 -29 Q711 -33 745 -33 Q809 -30 831 28 Q851 81 860 411 L773 411 Q737 225 666 118 Q589 6 432 -84 L398 -42 Q546 41 617 139 Q687 239 721 411 L628 411 Q572 221 435 115 L400 157 Q526 255 576 411 L420 411 ZM53 532 L181 532 L181 794 L235 794 L235 532 L368 532 L368 479 L235 479 L235 108 Q313 131 372 154 L372 99 Q224 43 55 7 L41 63 Q110 75 181 93 L181 479 L53 479 L53 532 Z" /><glyph glyph-name="uni575A" unicode="&#x575a;" d="M62 -11 L482 -11 L482 144 L149 144 L149 195 L482 195 L482 292 L536 292 L536 195 L869 195 L869 144 L536 144 L536 -11 L932 -11 L932 -62 L62 -62 L62 -11 ZM289 807 L342 807 L342 295 L289 295 L289 807 ZM109 732 L161 732 L161 348 L109 348 L109 732 ZM434 754 L852 754 L852 705 Q803 566 700 472 Q796 397 938 356 L912 309 Q760 355 661 439 Q562 364 422 316 L396 362 Q530 404 623 473 Q525 571 484 702 L434 702 L434 754 ZM532 702 Q576 585 662 505 Q753 587 799 702 L532 702 Z" /><glyph glyph-name="uni57CE" unicode="&#x57ce;" d="M47 551 L142 551 L142 810 L196 810 L196 551 L290 551 L290 499 L196 499 L196 173 Q248 199 288 223 L288 170 Q179 105 48 61 L35 113 Q91 128 142 149 L142 499 L47 499 L47 551 ZM407 401 L407 392 Q401 94 271 -87 L231 -52 Q349 108 355 392 L355 657 L644 657 Q642 707 642 813 L694 813 Q694 705 696 657 L926 657 L926 606 L698 606 Q705 418 727 299 Q731 273 743 225 Q804 341 841 506 L887 487 Q840 293 761 159 Q781 96 799 61 Q838 -13 863 -13 Q890 -12 909 144 L954 119 Q927 -80 874 -80 Q826 -80 771 11 Q746 55 727 107 Q639 -17 517 -83 L485 -41 Q619 29 708 166 Q689 234 680 282 Q654 410 646 606 L407 606 L407 448 L584 448 Q584 184 564 126 Q543 70 491 67 L422 67 L409 112 L478 112 Q513 116 524 166 Q532 211 535 401 L407 401 ZM813 823 Q855 763 885 694 L844 676 Q811 750 771 806 L813 823 Z" /><glyph glyph-name="uni58C1" unicode="&#x58c1;" d="M475 279 L529 279 L529 180 L867 180 L867 130 L529 130 L529 -7 L942 -7 L942 -57 L57 -57 L57 -7 L475 -7 L475 130 L138 130 L138 180 L475 180 L475 279 ZM196 492 L453 492 L453 304 L196 304 L196 492 ZM404 348 L404 448 L245 448 L245 348 L404 348 ZM507 726 L677 726 Q658 773 637 807 L691 817 Q709 779 728 726 L902 726 L902 680 L840 680 Q825 616 798 558 L928 558 L928 510 L729 510 L729 415 L897 415 L897 370 L729 370 L729 268 L676 268 L676 370 L520 370 L520 415 L676 415 L676 510 L485 510 L485 558 L610 558 Q590 619 563 680 L507 680 L507 726 ZM749 558 Q778 614 792 680 L616 680 Q635 632 659 558 L749 558 ZM390 722 L177 722 L177 615 L390 615 L390 722 ZM176 569 Q164 409 85 293 L47 327 Q127 437 128 609 L128 769 L439 769 L439 569 L176 569 Z" /><glyph glyph-name="uni5904" unicode="&#x5904;" d="M302 807 Q287 726 269 654 L496 654 L496 606 Q453 340 337 161 Q378 96 424 63 Q546 -23 809 -25 Q872 -25 955 -20 L944 -77 L835 -77 Q531 -77 393 23 Q346 58 307 117 Q213 -8 85 -86 L56 -35 Q187 43 275 169 Q219 276 181 423 Q138 341 90 284 L53 329 Q199 510 250 817 L302 807 ZM213 492 Q252 324 306 216 Q403 378 443 603 L254 603 Q237 549 213 492 ZM649 810 L703 810 L703 555 Q825 467 956 345 L925 297 Q798 424 703 499 L703 61 L649 61 L649 810 Z" /><glyph glyph-name="uni591A" unicode="&#x591a;" d="M552 790 Q516 749 482 722 L783 722 L783 678 Q621 390 182 355 L159 405 Q303 414 414 450 Q365 513 309 561 L356 584 Q416 529 465 468 Q632 537 720 672 L411 672 Q294 601 134 567 L102 615 Q372 669 504 815 L552 790 ZM449 192 Q513 127 565 57 Q744 133 843 282 L534 282 Q400 218 215 188 L183 236 Q508 269 668 438 L714 413 Q671 367 620 332 L912 332 L912 289 Q701 -68 121 -80 L99 -27 Q341 -24 514 37 Q459 111 401 168 L449 192 Z" /><glyph glyph-name="uni591C" unicode="&#x591c;" d="M65 703 L487 703 Q463 762 431 815 L490 825 Q520 769 544 703 L937 703 L937 650 L65 650 L65 703 ZM184 319 Q136 253 81 199 L46 245 Q205 398 262 618 L317 612 Q288 498 238 406 L238 -102 L184 -102 L184 319 ZM589 398 Q671 336 734 270 Q788 361 812 464 L533 464 Q506 409 465 354 Q526 229 626 135 Q671 177 709 231 Q649 295 555 365 L589 398 ZM586 605 Q573 561 556 516 L865 516 L865 469 Q815 246 667 99 Q788 2 954 -50 L921 -100 Q747 -41 627 62 Q514 -35 354 -98 L325 -47 Q483 14 586 99 Q490 194 431 311 Q390 267 339 227 L304 271 Q472 398 532 615 L586 605 Z" /><glyph glyph-name="uni2F24" unicode="&#x2f24;&#x5927;" d="M64 546 L458 546 Q471 637 473 737 L473 813 L527 813 L527 749 Q527 641 512 546 L936 546 L936 492 L535 492 Q640 139 954 -49 L921 -93 Q606 99 496 460 Q411 73 78 -99 L44 -54 Q373 108 449 492 L64 492 L64 546 Z" /><glyph glyph-name="uni5929" unicode="&#x5929;" d="M81 455 L449 455 Q471 570 478 703 L108 703 L108 755 L892 755 L892 703 L533 703 Q524 558 505 455 L922 455 L922 402 L544 402 Q648 104 951 -55 L918 -99 Q598 71 493 399 Q467 283 422 203 Q321 27 82 -99 L47 -55 Q275 63 370 222 Q410 291 438 402 L81 402 L81 455 Z" /><glyph glyph-name="uni592A" unicode="&#x592a;" d="M63 596 L456 596 Q464 671 466 765 L466 810 L520 810 L520 777 Q520 693 510 596 L938 596 L938 542 L530 542 Q637 153 960 -52 L926 -96 Q607 112 493 492 Q454 308 366 171 Q445 98 544 -26 L505 -65 Q417 52 337 129 Q231 -11 74 -95 L39 -50 Q379 125 448 542 L63 542 L63 596 Z" /><glyph glyph-name="uni5939" unicode="&#x5939;" d="M104 685 L471 685 L471 814 L526 814 L526 685 L896 685 L896 633 L526 633 L526 480 Q525 406 512 335 L660 335 Q721 436 767 579 L820 565 Q779 438 718 335 L936 335 L936 283 L551 283 Q626 72 946 -44 L918 -91 Q577 44 502 283 L500 283 Q472 183 416 109 Q313 -21 81 -94 L52 -48 Q283 24 380 148 Q421 208 443 283 L64 283 L64 335 L456 335 Q470 404 471 480 L471 633 L104 633 L104 685 ZM228 576 Q269 491 301 377 L251 364 Q222 463 177 559 L228 576 Z" /><glyph glyph-name="uni5947" unicode="&#x5947;" d="M115 733 L479 733 L480 737 Q483 758 483 813 L537 813 Q537 749 534 737 L533 733 L891 733 L891 682 L518 682 Q504 651 486 627 Q702 575 877 507 L847 461 Q656 541 453 590 Q352 498 154 460 L125 507 Q399 552 462 682 L115 682 L115 733 ZM63 422 L937 422 L937 370 L797 370 L797 -9 Q797 -96 704 -96 L595 -96 L584 -44 Q656 -48 685 -48 Q743 -48 743 4 L743 370 L63 370 L63 422 ZM189 276 L565 276 L565 35 L189 35 L189 276 ZM513 83 L513 229 L240 229 L240 83 L513 83 Z" /><glyph glyph-name="uni5949" unicode="&#x5949;" d="M264 258 L477 258 L477 350 L531 350 L531 258 L741 258 L741 208 L531 208 L531 97 L847 97 L847 47 L531 47 L531 -99 L477 -99 L477 47 L165 47 L165 97 L477 97 L477 208 L264 208 L264 258 ZM115 743 L470 743 Q482 797 486 823 L540 817 Q534 781 525 743 L884 743 L884 695 L513 695 Q498 642 482 603 L839 603 L839 555 L462 555 Q438 506 411 462 L934 462 L934 412 L696 412 Q781 291 961 224 L938 176 Q730 264 644 412 L376 412 Q260 260 69 169 L39 215 Q205 288 311 412 L68 412 L68 462 L349 462 Q382 510 405 555 L161 555 L161 603 L426 603 Q445 651 458 695 L115 695 L115 743 Z" /><glyph glyph-name="uni594F" unicode="&#x594f;" d="M135 751 L471 751 Q477 776 485 826 L538 820 L525 751 L892 751 L892 703 L513 703 Q500 657 483 612 L840 612 L840 567 L464 567 Q442 519 416 477 L927 477 L927 429 L692 429 Q774 306 952 238 L930 191 Q723 281 640 429 L383 429 Q269 276 84 188 L54 233 Q218 306 320 429 L74 429 L74 477 L355 477 Q387 525 408 567 L177 567 L177 612 L428 612 Q445 654 459 703 L135 703 L135 751 ZM309 331 L704 331 L704 283 L530 283 L530 200 Q530 191 528 179 L839 179 L839 131 L520 131 Q500 54 441 4 Q359 -63 169 -102 L139 -56 Q324 -22 403 39 Q446 77 465 131 L184 131 L184 179 L475 179 L476 283 L309 283 L309 331 ZM548 82 Q741 20 888 -61 L860 -104 Q693 -10 521 42 L548 82 Z" /><glyph glyph-name="uni5956" unicode="&#x5956;" d="M72 250 L471 250 Q476 286 478 342 L532 342 Q532 299 525 250 L928 250 L928 197 L537 197 Q630 21 950 -41 L927 -92 Q588 -19 503 170 Q419 -16 72 -97 L49 -46 Q388 26 457 197 L72 197 L72 250 ZM346 810 L400 810 L400 353 L346 353 L346 512 Q237 449 82 397 L60 447 Q224 496 346 567 L346 810 ZM114 764 Q206 717 283 650 L254 605 Q173 677 84 720 L114 764 ZM694 809 Q675 765 652 729 L906 729 L906 682 Q824 454 490 361 L463 408 Q583 440 674 493 Q618 549 573 582 L611 610 Q663 570 713 518 Q808 586 850 679 L613 679 Q557 617 477 568 L444 610 Q587 694 639 815 L694 809 Z" /><glyph glyph-name="uni5965" unicode="&#x5965;" d="M519 816 Q505 772 482 737 L830 737 L830 255 L778 255 L778 690 L223 690 L223 255 L171 255 L171 737 L424 737 Q448 779 460 824 L519 816 ZM529 259 Q524 225 512 188 L924 188 L924 137 L560 137 Q686 2 956 -49 L925 -98 Q632 -36 501 137 L491 137 Q457 73 401 25 Q304 -55 65 -100 L43 -49 Q259 -12 357 61 Q401 95 428 137 L77 137 L77 188 L454 188 Q467 224 475 265 L529 259 ZM291 505 L370 505 Q349 561 316 611 L358 626 Q389 576 413 505 L476 505 L476 649 L524 649 L524 505 L585 505 Q622 572 643 633 L686 618 Q662 558 629 505 L712 505 L712 461 L524 461 L524 437 Q617 391 719 324 L691 284 Q595 358 524 401 L524 291 L476 291 L476 415 Q402 338 298 283 L273 326 Q383 372 476 456 L476 461 L291 461 L291 505 Z" /><glyph glyph-name="uni2F25" unicode="&#x2f25;&#x5973;" d="M61 583 L332 583 Q379 690 427 819 L482 803 Q442 695 393 583 L939 583 L939 530 L766 530 Q722 319 598 177 Q630 160 651 147 Q795 62 929 -54 L887 -95 Q749 24 596 115 Q574 128 559 136 Q390 -28 95 -94 L72 -43 Q348 17 509 163 Q371 234 194 297 Q252 408 308 530 L61 530 L61 583 ZM549 203 Q672 338 711 530 L370 530 Q326 431 270 322 Q427 265 549 203 Z" /><glyph glyph-name="uni597D" unicode="&#x597d;" d="M274 822 Q261 743 237 618 L415 618 L415 585 Q398 342 312 168 Q411 90 461 40 L424 -2 Q367 55 286 121 Q208 -9 88 -101 L52 -55 Q171 32 244 155 Q179 207 88 273 Q136 409 172 565 L58 565 L58 618 L183 618 Q206 729 221 828 L274 822 ZM269 201 Q345 357 362 565 L225 565 Q187 399 147 290 Q213 244 269 201 ZM456 389 L691 389 L691 523 Q775 597 850 703 L487 703 L487 757 L913 757 L913 703 Q840 598 745 505 L745 389 L957 389 L957 335 L745 335 L745 -2 Q745 -87 671 -87 L531 -87 L517 -35 Q597 -37 649 -37 Q691 -37 691 15 L691 335 L456 335 L456 389 Z" /><glyph glyph-name="uni5982" unicode="&#x5982;" d="M895 719 L895 -53 L842 -53 L842 7 L614 7 L614 -53 L560 -53 L560 719 L895 719 ZM614 60 L842 60 L842 665 L614 665 L614 60 ZM283 811 Q258 674 248 626 L460 626 L460 592 Q442 342 341 165 Q439 90 498 34 L461 -10 Q403 46 312 119 Q227 -6 99 -93 L63 -49 Q191 35 270 152 Q184 218 96 280 Q146 421 182 573 L56 573 L56 626 L193 626 Q215 730 228 817 L283 811 ZM298 197 Q391 360 408 573 L237 573 Q200 408 157 297 Q246 235 298 197 Z" /><glyph glyph-name="uni59B9" unicode="&#x59b9;" d="M695 381 L695 -100 L641 -100 L641 381 L639 381 Q570 135 403 -23 L375 24 Q530 161 598 381 L418 381 L418 433 L641 433 L641 615 L456 615 L456 667 L641 667 L641 816 L695 816 L695 667 L883 667 L883 615 L695 615 L695 433 L923 433 L923 381 L737 381 Q800 186 957 35 L923 -8 Q758 167 699 381 L695 381 ZM246 815 Q231 710 213 618 L383 618 L383 585 Q368 340 285 165 Q346 112 381 74 L345 33 Q312 71 261 118 Q190 -9 78 -100 L43 -58 Q151 27 222 153 Q162 208 77 275 Q117 403 150 565 L48 565 L48 618 L160 618 Q178 717 193 820 L246 815 ZM245 200 Q317 359 332 565 L203 565 Q170 401 132 290 Q182 252 245 200 Z" /><glyph glyph-name="uni59CB" unicode="&#x59cb;" d="M225 812 L197 617 L349 617 L349 585 Q337 339 262 162 Q333 90 383 25 L347 -17 Q302 42 238 110 Q178 -10 83 -99 L49 -57 Q142 29 201 149 Q142 209 70 277 Q107 413 135 566 L47 566 L47 617 L144 617 Q163 741 172 818 L225 812 ZM224 201 Q287 358 299 566 L188 566 Q157 397 127 294 Q175 250 224 201 ZM880 318 L880 -98 L828 -98 L828 -35 L497 -35 L497 -98 L445 -98 L445 318 L880 318 ZM497 17 L828 17 L828 268 L497 268 L497 17 ZM392 469 Q490 529 616 815 L667 798 Q570 585 475 473 Q666 486 830 512 Q778 607 735 675 L782 698 Q865 569 942 408 L893 383 L854 465 Q652 435 402 420 L392 469 Z" /><glyph glyph-name="uni59D0" unicode="&#x59d0;" d="M858 767 L858 -10 L947 -10 L947 -62 L387 -62 L387 -10 L486 -10 L486 767 L858 767 ZM539 -10 L804 -10 L804 208 L539 208 L539 -10 ZM539 260 L804 260 L804 461 L539 461 L539 260 ZM539 513 L804 513 L804 715 L539 715 L539 513 ZM254 814 Q238 711 221 618 L396 618 L396 585 Q381 345 295 170 Q371 110 413 65 L378 24 Q339 64 271 124 Q195 -7 80 -97 L46 -55 Q161 32 232 157 Q177 203 83 275 Q125 407 158 565 L48 565 L48 618 L168 618 Q186 717 201 820 L254 814 ZM255 202 Q330 360 345 565 L210 565 Q175 395 137 290 Q203 242 255 202 Z" /><glyph glyph-name="uni5A01" unicode="&#x5a01;" d="M236 478 L236 525 L555 525 L555 478 L417 478 Q406 430 383 353 L555 353 L555 310 Q528 192 469 107 Q521 75 562 43 L534 2 Q489 36 439 67 Q359 -28 231 -86 L204 -40 Q321 11 395 94 Q318 138 260 167 Q287 232 314 306 L230 306 L230 353 L330 353 Q357 437 367 478 L236 478 ZM426 133 Q478 207 506 306 L367 306 Q347 247 322 188 Q375 163 426 133 ZM884 527 Q835 282 749 127 Q764 84 772 67 Q814 -23 849 -24 Q878 -18 908 154 L957 123 Q938 39 915 -18 Q888 -86 852 -86 Q800 -86 747 9 Q729 41 717 74 Q651 -23 572 -77 L543 -33 Q631 28 695 136 Q678 192 657 288 Q631 420 623 637 L176 637 L176 417 Q172 102 95 -87 L50 -47 Q122 119 125 417 L125 688 L621 688 Q619 728 619 811 L672 811 Q672 728 673 688 L809 688 Q786 745 760 788 L811 796 Q837 746 858 688 L928 688 L928 637 L674 637 Q680 463 702 328 Q714 253 729 198 Q798 340 837 548 L884 527 Z" /><glyph glyph-name="uni2F26" unicode="&#x2f26;&#x5b50;" d="M66 377 L494 377 L494 529 Q628 603 752 714 L170 714 L170 766 L827 766 L827 714 Q708 602 547 499 L547 377 L934 377 L934 324 L547 324 L547 -2 Q547 -91 462 -91 L294 -91 L279 -39 L440 -40 Q494 -40 494 16 L494 324 L66 324 L66 377 Z" /><glyph glyph-name="uni5B57" unicode="&#x5b57;" d="M920 706 L920 492 L865 492 L865 654 L135 654 L135 492 L80 492 L80 706 L482 706 Q463 765 437 811 L497 821 Q518 776 541 706 L920 706 ZM233 532 L764 532 L764 482 Q661 409 539 345 L539 263 L940 263 L940 211 L539 211 L539 -19 Q539 -94 462 -94 L340 -94 L326 -43 Q398 -45 443 -45 Q486 -45 486 -1 L486 211 L61 211 L61 263 L486 263 L486 369 Q619 438 684 482 L233 482 L233 532 Z" /><glyph glyph-name="uni5B66" unicode="&#x5b66;" d="M915 607 L915 397 L861 397 L861 555 L139 555 L139 397 L85 397 L85 607 L656 607 Q725 704 776 821 L830 801 Q773 682 715 607 L915 607 ZM232 453 L770 453 L770 404 Q665 336 539 276 L539 214 L927 214 L927 162 L539 162 L539 -18 Q539 -94 461 -94 L337 -94 L323 -43 Q395 -45 442 -45 Q486 -45 486 0 L486 162 L73 162 L73 214 L486 214 L486 303 Q621 363 691 404 L232 404 L232 453 ZM209 806 Q262 739 315 646 L267 623 Q215 715 160 783 L209 806 ZM454 824 Q504 749 548 658 L500 633 Q454 729 404 800 L454 824 Z" /><glyph glyph-name="uni5B83" unicode="&#x5b83;" d="M918 700 L918 514 L864 514 L864 648 L136 648 L136 514 L82 514 L82 700 L486 700 Q464 763 441 809 L499 819 Q523 769 541 700 L918 700 ZM809 403 Q604 302 294 236 L294 42 Q294 -16 347 -16 L715 -16 Q777 -16 801 5 Q835 34 845 167 L897 150 Q884 -3 841 -40 Q805 -70 725 -70 L330 -70 Q239 -70 239 30 L239 552 L294 552 L294 291 Q576 350 772 445 L809 403 Z" /><glyph glyph-name="uni5B89" unicode="&#x5b89;" d="M905 712 L905 506 L851 506 L851 659 L148 659 L148 507 L94 507 L94 712 L477 712 Q455 766 429 812 L489 822 Q514 772 536 712 L905 712 ZM63 432 L345 432 Q383 500 436 602 L491 585 L409 432 L939 432 L939 380 L739 380 Q676 214 590 117 Q737 52 912 -46 L876 -92 Q714 3 550 76 Q384 -75 102 -84 L70 -33 Q330 -32 495 99 Q495 100 497 100 Q351 164 210 208 Q269 300 315 380 L63 380 L63 432 ZM379 380 Q311 268 287 232 Q407 196 538 139 Q628 233 681 380 L379 380 Z" /><glyph glyph-name="uni5B8C" unicode="&#x5b8c;" d="M918 701 L918 486 L864 486 L864 649 L134 649 L134 486 L80 486 L80 701 L474 701 Q453 761 432 804 L492 814 Q516 758 532 701 L918 701 ZM220 516 L776 516 L776 464 L220 464 L220 516 ZM68 328 L933 328 L933 275 L643 275 L643 16 Q643 -29 689 -29 L828 -29 Q860 -29 874 -10 Q891 15 897 134 L948 118 Q939 -22 912 -55 Q889 -81 839 -81 L673 -81 Q589 -81 589 5 L589 275 L408 275 L408 264 Q405 117 328 28 Q253 -54 83 -102 L52 -54 Q220 -10 288 64 Q351 142 354 264 L354 275 L68 275 L68 328 Z" /><glyph glyph-name="uni5B9D" unicode="&#x5b9d;" d="M475 455 L181 455 L181 507 L827 507 L827 455 L530 455 L530 266 L794 266 L794 214 L530 214 L530 -14 L916 -14 L916 -65 L89 -65 L89 -14 L475 -14 L475 214 L204 214 L204 266 L475 266 L475 455 ZM703 177 Q779 92 818 29 L777 -1 Q740 61 662 151 L703 177 ZM894 706 L894 522 L839 522 L839 653 L156 653 L156 514 L101 514 L101 706 L481 706 Q463 751 435 800 L492 810 Q514 770 538 706 L894 706 Z" /><glyph glyph-name="uni5B9E" unicode="&#x5b9e;" d="M901 705 L901 515 L846 515 L846 654 L154 654 L154 511 L99 511 L99 705 L483 705 Q461 767 438 815 L495 825 Q518 768 536 705 L901 705 ZM208 448 Q318 405 418 339 L389 295 Q290 365 181 408 L208 448 ZM271 601 Q378 559 474 494 L445 451 Q348 523 244 562 L271 601 ZM587 592 L641 592 L641 491 Q638 351 596 246 L932 246 L932 195 L572 195 Q556 165 533 136 Q748 55 927 -56 L896 -103 Q707 20 501 97 Q379 -25 120 -97 L90 -51 Q365 23 478 151 Q489 165 509 195 L65 195 L65 246 L536 246 Q584 351 587 491 L587 592 Z" /><glyph glyph-name="uni5BA3" unicode="&#x5ba3;" d="M215 431 L786 431 L786 79 L215 79 L215 431 ZM732 128 L732 232 L269 232 L269 128 L732 128 ZM269 279 L732 279 L732 382 L269 382 L269 279 ZM910 720 L910 551 L856 551 L856 667 L143 667 L143 552 L89 552 L89 720 L477 720 Q457 772 439 804 L500 815 Q520 771 536 720 L910 720 ZM169 569 L831 569 L831 520 L169 520 L169 569 ZM85 -20 L916 -20 L916 -70 L85 -70 L85 -20 Z" /><glyph glyph-name="uni5BF9" unicode="&#x5bf9;" d="M479 616 L774 616 L774 816 L829 816 L829 616 L947 616 L947 563 L829 563 L829 -5 Q829 -94 739 -94 L578 -94 L566 -42 Q674 -46 720 -46 Q774 -46 774 9 L774 563 L479 563 L479 616 ZM112 556 Q211 448 295 340 Q356 486 369 656 L89 656 L89 709 L419 709 L419 669 Q407 460 331 293 Q403 195 453 115 L413 75 Q370 148 304 240 Q220 87 76 -30 L45 17 Q189 131 270 286 Q190 392 74 521 L112 556 ZM522 432 Q626 306 681 210 L638 180 Q574 290 480 403 L522 432 Z" /><glyph glyph-name="uni5C06" unicode="&#x5c06;" d="M387 324 L774 324 L774 430 L828 430 L828 324 L956 324 L956 271 L828 271 L828 -12 Q828 -94 741 -94 L608 -94 L597 -42 Q683 -46 722 -46 Q774 -46 774 1 L774 271 L387 271 L387 324 ZM261 815 L316 815 L316 -97 L261 -97 L261 252 Q156 153 66 96 L42 148 Q132 202 261 316 L261 815 ZM504 219 Q591 122 636 53 L593 23 Q544 101 464 193 L504 219 ZM577 685 Q507 602 401 547 L366 589 Q535 673 593 815 L649 805 Q635 769 613 735 L914 735 L914 689 Q821 466 442 375 L414 423 Q540 453 634 495 Q579 547 528 582 L567 611 Q626 569 678 518 Q801 587 853 685 L577 685 ZM90 695 Q163 597 218 481 L170 460 Q111 585 43 676 L90 695 Z" /><glyph glyph-name="uni2F29" unicode="&#x2f29;&#x5c0f;" d="M297 -86 L284 -31 Q382 -35 423 -35 Q488 -35 488 33 L488 799 L544 799 L544 19 Q544 -86 443 -86 L297 -86 ZM278 546 Q204 249 85 95 L38 135 Q162 296 225 567 L278 546 ZM766 590 Q894 316 961 115 L912 81 Q839 299 717 560 L766 590 Z" /><glyph glyph-name="uni5C11" unicode="&#x5c11;" d="M318 673 Q238 437 108 314 L63 354 Q197 479 266 694 L318 673 ZM803 359 Q628 5 107 -97 L77 -46 Q589 52 755 387 L803 359 ZM472 812 L528 812 L528 229 L472 229 L472 812 ZM695 711 Q848 546 961 355 L911 329 Q792 530 645 689 L695 711 Z" /><glyph glyph-name="uni5C31" unicode="&#x5c31;" d="M57 708 L269 708 Q247 763 219 810 L276 819 Q302 768 323 708 L510 708 L510 656 L57 656 L57 708 ZM111 560 L451 560 L451 325 L311 325 L311 -15 Q311 -89 239 -89 L165 -89 L154 -39 Q200 -43 221 -43 Q257 -43 257 -2 L257 325 L111 325 L111 560 ZM400 372 L400 513 L162 513 L162 372 L400 372 ZM176 247 Q144 117 91 12 L44 29 Q93 120 130 259 L176 247 ZM415 262 Q461 159 487 71 L442 54 Q412 153 370 250 L415 262 ZM785 798 Q861 713 900 652 L859 624 Q817 690 744 772 L785 798 ZM615 813 L668 813 L668 575 L925 575 L925 522 L788 522 L788 4 Q788 -32 821 -32 L853 -32 Q875 -32 884 -9 Q897 22 901 168 L948 153 Q942 -10 920 -51 Q901 -82 862 -82 L806 -82 Q738 -82 738 -7 L738 522 L667 522 Q658 99 498 -100 L457 -64 Q608 123 615 522 L512 522 L512 575 L615 575 L615 813 Z" /><glyph glyph-name="uni5C3D" unicode="&#x5c3d;" d="M366 388 Q524 321 655 226 L626 181 Q483 286 338 345 L366 388 ZM282 149 Q532 64 735 -53 L705 -100 Q483 32 252 106 L282 149 ZM226 495 L226 446 Q225 173 79 -25 L37 13 Q169 182 171 446 L171 768 L855 768 L855 495 L703 495 Q749 223 963 71 L932 24 Q700 196 652 495 L226 495 ZM800 715 L226 715 L226 547 L800 547 L800 715 Z" /><glyph glyph-name="uni5C55" unicode="&#x5c55;" d="M258 430 L409 430 L409 545 L462 545 L462 430 L680 430 L680 547 L204 547 L204 433 Q204 346 193 261 L409 261 L409 380 L258 380 L258 430 ZM186 211 Q156 39 81 -98 L38 -60 Q148 131 149 433 L149 772 L873 772 L873 547 L734 547 L734 430 L896 430 L896 380 L734 380 L734 261 L928 261 L928 211 L593 211 Q634 135 699 76 Q776 114 843 194 L880 157 Q818 83 741 43 Q832 -23 959 -50 L934 -100 Q653 -31 539 211 L393 211 L393 -31 Q498 -4 572 29 L582 -21 Q471 -64 327 -95 L312 -47 Q340 -35 340 -7 L340 211 L186 211 ZM462 261 L680 261 L680 380 L462 380 L462 261 ZM819 721 L204 721 L204 596 L819 596 L819 721 Z" /><glyph glyph-name="uni5C5E" unicode="&#x5c5e;" d="M314 427 L550 427 L550 490 Q410 485 279 485 L264 526 Q619 527 854 555 L877 514 Q767 500 602 492 L602 427 L842 427 L842 260 L602 260 L602 193 L912 193 L912 -18 Q912 -96 840 -96 L735 -96 L722 -49 L824 -51 Q862 -51 862 -8 L862 148 L722 148 Q764 65 792 -14 L752 -32 Q752 -30 733 22 Q584 0 398 -15 L388 30 Q492 37 550 43 L550 148 L315 148 L315 -97 L264 -97 L264 193 L550 193 L550 260 L314 260 L314 427 ZM600 148 L600 48 L717 61 Q699 103 681 139 L710 148 L600 148 ZM793 302 L793 384 L602 384 L602 302 L793 302 ZM550 302 L550 384 L364 384 L364 302 L550 302 ZM838 728 L206 728 L206 640 L838 640 L838 728 ZM206 597 L206 486 Q205 155 90 -86 L49 -50 Q152 158 154 486 L154 773 L890 773 L890 597 L206 597 Z" /><glyph glyph-name="uni2F2D" unicode="&#x2f2d;&#x5c71;" d="M833 646 L888 646 L888 -79 L833 -79 L833 -8 L166 -8 L166 -79 L111 -79 L111 649 L166 649 L166 44 L473 44 L473 810 L527 810 L527 44 L833 44 L833 646 Z" /><glyph glyph-name="uni5CA9" unicode="&#x5ca9;" d="M473 816 L527 816 L527 624 L782 624 L782 779 L835 779 L835 574 L169 574 L169 779 L222 779 L222 624 L473 624 L473 816 ZM313 -42 L313 -98 L259 -98 L259 193 Q177 124 70 70 L42 116 Q275 226 376 402 L57 402 L57 453 L942 453 L942 402 L432 402 Q391 324 330 259 L831 259 L831 -97 L778 -97 L778 -42 L313 -42 ZM778 9 L778 208 L313 208 L313 9 L778 9 Z" /><glyph glyph-name="uni2F2F" unicode="&#x2f2f;&#x5de5;" d="M477 688 L121 688 L121 740 L888 740 L888 688 L531 688 L531 7 L931 7 L931 -47 L69 -47 L69 7 L477 7 L477 688 Z" /><glyph glyph-name="uni2F31" unicode="&#x2f31;&#x5dfe;" d="M475 814 L529 814 L529 628 L843 628 L843 139 Q843 42 748 42 L658 42 L643 95 L730 93 Q790 93 790 151 L790 576 L529 576 L529 -106 L475 -106 L475 576 L212 576 L212 29 L159 29 L159 628 L475 628 L475 814 Z" /><glyph glyph-name="uni5E26" unicode="&#x5e26;" d="M58 697 L212 697 L212 805 L263 805 L263 697 L469 697 L469 809 L523 809 L523 697 L732 697 L732 805 L784 805 L784 697 L942 697 L942 646 L784 646 L784 532 L732 532 L732 646 L523 646 L523 528 L469 528 L469 646 L263 646 L263 532 L212 532 L212 646 L58 646 L58 697 ZM903 462 L903 275 L849 275 L849 410 L525 410 L525 285 L786 285 L786 50 Q786 -30 708 -30 L620 -30 L605 23 L690 21 Q733 21 733 61 L733 234 L525 234 L525 -101 L471 -101 L471 234 L273 234 L273 -31 L219 -31 L219 285 L471 285 L471 410 L150 410 L150 273 L96 273 L96 462 L903 462 Z" /><glyph glyph-name="uni5E38" unicode="&#x5e38;" d="M473 311 L250 311 L250 520 L752 520 L752 311 L527 311 L527 217 L848 217 L848 36 Q848 -44 763 -44 L684 -44 L669 8 L745 5 Q794 5 794 48 L794 167 L527 167 L527 -101 L473 -101 L473 167 L212 167 L212 -51 L159 -51 L159 217 L473 217 L473 311 ZM473 820 L527 820 L527 662 L668 662 Q718 729 753 804 L804 787 Q766 713 725 662 L906 662 L906 470 L852 470 L852 610 L148 610 L148 469 L94 469 L94 662 L258 662 Q230 725 186 779 L238 798 Q279 738 312 662 L473 662 L473 820 ZM699 357 L699 474 L303 474 L303 357 L699 357 Z" /><glyph glyph-name="uni5E3C" unicode="&#x5e3c;" d="M912 768 L912 -86 L862 -86 L862 -31 L486 -31 L486 -88 L437 -88 L437 768 L912 768 ZM486 18 L862 18 L862 719 L486 719 L486 18 ZM543 623 L806 623 L806 575 L696 575 L696 419 L792 419 L792 372 L696 372 L696 157 L812 157 L812 110 L543 110 L543 157 L646 157 L646 372 L556 372 L556 419 L646 419 L646 575 L543 575 L543 623 ZM765 330 Q792 285 820 218 L787 201 Q758 269 732 314 L765 330 ZM254 65 L248 87 L248 -90 L199 -90 L199 589 L121 589 L121 50 L76 50 L76 639 L199 639 L199 807 L248 807 L248 639 L372 639 L372 136 Q372 65 308 65 L254 65 ZM248 589 L248 110 L293 108 Q328 108 328 145 L328 589 L248 589 Z" /><glyph glyph-name="uni5E73" unicode="&#x5e73;" d="M100 765 L903 765 L903 711 L523 711 L523 316 L940 316 L940 263 L523 263 L523 -97 L469 -97 L469 263 L60 263 L60 316 L469 316 L469 711 L100 711 L100 765 ZM208 634 Q268 526 318 403 L267 378 Q219 501 158 610 L208 634 ZM846 618 Q799 499 722 381 L673 406 Q751 525 796 641 L846 618 Z" /><glyph glyph-name="uni5E74" unicode="&#x5e74;" d="M246 644 Q185 536 89 463 L52 509 Q206 626 260 823 L315 813 Q298 753 273 697 L905 697 L905 644 L584 644 L584 465 L870 465 L870 414 L584 414 L584 181 L937 181 L937 127 L584 127 L584 -101 L531 -101 L531 127 L62 127 L62 181 L231 181 L231 465 L531 465 L531 644 L246 644 ZM286 181 L531 181 L531 414 L286 414 L286 181 Z" /><glyph glyph-name="uni5E76" unicode="&#x5e76;" d="M292 825 Q350 741 392 656 L343 632 Q295 727 243 801 L292 825 ZM647 567 L371 567 L371 466 Q370 385 362 316 L647 316 L647 567 ZM647 263 L354 263 Q335 167 304 100 Q241 -27 97 -100 L65 -50 Q204 20 261 142 Q284 193 298 263 L57 263 L57 316 L307 316 Q315 382 317 466 L317 567 L98 567 L98 620 L605 620 Q667 717 710 825 L768 805 Q723 701 667 620 L905 620 L905 567 L701 567 L701 316 L944 316 L944 263 L701 263 L701 -93 L647 -93 L647 263 Z" /><glyph glyph-name="uni5E7B" unicode="&#x5e7b;" d="M417 261 Q491 120 547 -48 L498 -70 Q475 -1 458 43 Q271 -18 84 -43 L70 6 Q86 12 94 22 Q191 125 325 371 Q213 357 66 343 L54 391 Q66 397 76 411 Q188 579 270 803 L323 782 Q221 532 120 396 Q242 406 353 424 Q392 499 434 583 L485 564 Q277 159 150 15 Q298 41 440 88 Q409 166 369 245 L417 261 ZM917 746 Q917 206 903 72 Q888 -84 761 -84 Q728 -84 647 -81 L634 -32 Q703 -35 754 -35 Q837 -35 851 90 Q862 184 865 693 L497 693 L497 746 L917 746 Z" /><glyph glyph-name="uni5E94" unicode="&#x5e94;" d="M226 2 L646 2 Q742 218 814 539 L867 524 Q802 226 704 2 L927 2 L927 -51 L226 -51 L226 2 ZM322 491 Q385 322 431 122 L380 108 Q338 297 275 475 L322 491 ZM516 561 Q569 398 610 180 L559 167 Q523 364 469 545 L516 561 ZM515 823 Q545 775 572 715 L942 715 L942 662 L194 662 L194 428 Q190 100 89 -98 L44 -57 Q135 117 140 428 L140 715 L515 715 Q487 770 456 813 L515 823 Z" /><glyph glyph-name="uni5EA6" unicode="&#x5ea6;" d="M263 264 L844 264 L844 223 Q754 111 624 35 Q763 -27 953 -54 L929 -101 Q719 -65 573 8 Q421 -66 221 -100 L197 -52 Q379 -25 519 38 Q394 113 320 217 L263 217 L263 264 ZM377 217 Q453 125 569 62 Q691 125 775 217 L377 217 ZM201 550 L377 550 L377 640 L430 640 L430 550 L718 550 L718 640 L771 640 L771 550 L927 550 L927 498 L771 498 L771 342 L377 342 L377 498 L201 498 L201 550 ZM430 498 L430 389 L718 389 L718 498 L430 498 ZM546 819 Q563 785 583 730 L930 730 L930 678 L194 678 L194 403 Q188 94 86 -95 L45 -58 Q136 108 140 403 L140 730 L530 730 Q510 775 490 809 L546 819 Z" /><glyph glyph-name="uni5EA7" unicode="&#x5ea7;" d="M271 191 L545 191 L545 615 L598 615 L598 191 L892 191 L892 140 L598 140 L598 -18 L941 -18 L941 -70 L215 -70 L215 -18 L545 -18 L545 140 L271 140 L271 191 ZM771 423 Q731 319 674 250 L640 291 Q735 410 768 608 L818 600 Q805 528 785 464 Q858 391 930 301 L900 255 Q824 363 771 423 ZM370 417 Q328 313 268 244 L234 284 Q334 404 370 607 L420 597 Q404 514 385 458 Q448 395 501 310 L470 263 Q419 358 370 417 ZM932 725 L932 673 L194 673 L194 424 Q188 98 79 -98 L38 -61 Q135 113 140 424 L140 725 L513 725 Q495 776 472 819 L528 829 Q547 789 568 725 L932 725 Z" /><glyph glyph-name="uni5F00" unicode="&#x5f00;" d="M115 750 L887 750 L887 697 L715 697 L715 413 L940 413 L940 360 L715 360 L715 -90 L661 -90 L661 360 L354 360 Q342 203 297 99 Q240 -25 110 -95 L79 -49 Q203 20 255 140 Q289 230 300 360 L61 360 L61 413 L303 413 L304 457 L304 697 L115 697 L115 750 ZM358 697 L358 435 L357 413 L661 413 L661 697 L358 697 Z" /><glyph glyph-name="uni5F0F" unicode="&#x5f0f;" d="M66 630 L564 630 Q559 704 559 813 L615 813 Q615 703 620 630 L934 630 L934 576 L623 576 Q641 308 706 132 Q770 -32 825 -35 Q862 -27 895 145 L944 120 Q899 -93 828 -94 Q704 -88 614 237 Q579 379 567 576 L66 576 L66 630 ZM83 395 L501 395 L501 343 L319 343 L319 62 Q418 80 541 111 L541 57 Q327 5 77 -30 L64 22 Q166 34 265 52 L265 343 L83 343 L83 395 ZM765 806 Q821 741 863 673 L817 650 Q771 723 720 784 L765 806 Z" /><glyph glyph-name="uni5F20" unicode="&#x5f20;" d="M538 341 L538 -25 Q629 7 714 58 L725 6 Q618 -56 482 -95 L459 -46 Q485 -37 485 -18 L485 341 L393 341 L393 395 L485 395 L485 813 L538 813 L538 395 L945 395 L945 341 L762 341 Q777 99 965 -53 L926 -91 Q727 80 713 341 L538 341 ZM911 729 Q818 588 631 475 L599 518 Q783 629 873 767 L911 729 ZM142 496 L120 319 L343 319 Q343 73 328 -1 Q307 -87 174 -90 Q152 -90 102 -86 L89 -36 Q137 -40 164 -40 Q258 -40 275 18 Q291 84 291 269 L63 269 L94 546 L277 546 L277 718 L68 718 L68 769 L328 769 L328 496 L142 496 Z" /><glyph glyph-name="uni5F39" unicode="&#x5f39;" d="M136 501 L118 323 L337 323 Q337 80 321 0 Q301 -86 169 -89 Q148 -89 102 -85 L88 -34 Q126 -39 157 -39 Q253 -39 270 20 Q285 83 285 275 L62 275 L88 549 L275 549 L275 720 L74 720 L74 768 L329 768 L329 501 L136 501 ZM424 649 L716 649 Q762 731 796 820 L847 802 Q813 715 769 649 L907 649 L907 257 L691 257 L691 151 L955 151 L955 99 L691 99 L691 -99 L637 -99 L637 99 L377 99 L377 151 L637 151 L637 257 L424 257 L424 649 ZM858 304 L858 428 L691 428 L691 304 L858 304 ZM637 304 L637 428 L473 428 L473 304 L637 304 ZM473 476 L637 476 L637 601 L473 601 L473 476 ZM691 601 L691 476 L858 476 L858 601 L691 601 ZM531 816 Q576 753 610 682 L564 661 Q523 743 481 799 L531 816 Z" /><glyph glyph-name="uni5F52" unicode="&#x5f52;" d="M306 814 L360 814 L360 382 Q354 54 110 -97 L69 -61 Q301 77 306 382 L306 814 ZM90 723 L144 723 L144 233 L90 233 L90 723 ZM422 731 L904 731 L904 -76 L849 -76 L849 -9 L400 -9 L400 44 L849 44 L849 342 L446 342 L446 395 L849 395 L849 678 L422 678 L422 731 Z" /><glyph glyph-name="uni5F53" unicode="&#x5f53;" d="M126 483 L474 483 L474 805 L530 805 L530 483 L869 483 L869 -91 L815 -91 L815 -48 L117 -48 L117 5 L815 5 L815 197 L172 197 L172 248 L815 248 L815 430 L126 430 L126 483 ZM874 740 Q822 630 743 533 L694 559 Q777 664 824 763 L874 740 ZM184 752 Q272 643 316 565 L270 533 Q224 617 138 724 L184 752 Z" /><glyph glyph-name="uni5F55" unicode="&#x5f55;" d="M174 773 L742 773 L742 447 L926 447 L926 396 L521 396 L521 275 Q556 232 607 186 Q719 247 800 362 L842 327 Q757 215 643 155 Q767 54 930 -17 L902 -64 Q662 47 521 212 L521 -18 Q521 -98 450 -98 L336 -98 L324 -47 Q400 -51 431 -51 Q467 -51 467 -5 L467 207 Q309 58 87 -59 L65 -9 Q299 104 467 265 L467 396 L75 396 L75 447 L687 447 L687 559 L208 559 L208 607 L687 607 L687 723 L174 723 L174 773 ZM174 346 Q267 280 330 217 L294 181 Q236 242 137 311 L174 346 Z" /><glyph glyph-name="uni5F69" unicode="&#x5f69;" d="M567 754 Q375 693 65 693 L48 741 Q350 743 540 799 L567 754 ZM545 664 Q515 545 469 456 L425 471 Q464 547 499 676 L545 664 ZM885 783 Q778 643 613 550 L588 600 Q746 684 850 822 L885 783 ZM929 509 Q811 360 629 262 L605 312 Q781 403 894 549 L929 509 ZM959 232 Q817 35 602 -94 L577 -42 Q786 76 923 272 L959 232 ZM79 352 L304 352 L304 460 L358 460 L358 352 L562 352 L562 300 L358 300 L358 227 Q450 172 555 94 L523 47 Q427 131 358 176 L358 -97 L304 -97 L304 236 Q211 77 78 -29 L47 18 Q201 134 292 300 L79 300 L79 352 ZM302 661 Q341 581 362 512 L315 495 Q294 564 254 647 L302 661 ZM122 641 Q167 565 200 465 L156 454 Q125 541 78 627 L122 641 Z" /><glyph glyph-name="uni5F70" unicode="&#x5f70;" d="M885 777 Q779 633 619 541 L595 592 Q748 676 849 816 L885 777 ZM926 509 Q814 357 641 256 L616 307 Q781 396 890 549 L926 509 ZM956 238 Q819 40 609 -91 L584 -41 Q786 78 921 278 L956 238 ZM90 731 L297 731 Q279 784 266 813 L320 823 Q334 784 350 731 L554 731 L554 684 L465 684 Q453 623 432 568 L573 568 L573 521 L65 521 L65 568 L213 568 Q195 636 176 684 L90 684 L90 731 ZM380 568 Q403 621 414 684 L228 684 Q248 627 263 568 L380 568 ZM127 445 L518 445 L518 155 L355 155 L355 75 L575 75 L575 26 L355 26 L355 -93 L303 -93 L303 26 L55 26 L55 75 L303 75 L303 155 L127 155 L127 445 ZM468 199 L468 277 L177 277 L177 199 L468 199 ZM177 319 L468 319 L468 401 L177 401 L177 319 Z" /><glyph glyph-name="uni5F71" unicode="&#x5f71;" d="M107 780 L527 780 L527 516 L328 516 L344 446 L580 446 L580 402 L48 402 L48 446 L292 446 L277 516 L107 516 L107 780 ZM477 555 L477 628 L157 628 L157 555 L477 555 ZM157 664 L477 664 L477 740 L157 740 L157 664 ZM115 335 L521 335 L521 150 L343 150 L343 -26 Q343 -89 280 -89 L207 -89 L196 -41 Q242 -45 262 -45 Q292 -45 292 -14 L292 150 L115 150 L115 335 ZM470 191 L470 295 L166 295 L166 191 L470 191 ZM185 88 Q144 -8 84 -82 L44 -54 Q102 16 142 108 L185 88 ZM456 107 Q513 29 546 -35 L506 -63 Q473 7 418 83 L456 107 ZM907 762 Q791 646 611 571 L589 617 Q758 685 874 801 L907 762 ZM932 499 Q815 364 633 274 L610 320 Q783 402 898 538 L932 499 ZM957 255 Q831 11 583 -96 L562 -47 Q797 55 916 287 L957 255 Z" /><glyph glyph-name="uni5F85" unicode="&#x5f85;" d="M312 799 Q230 627 57 499 L40 552 Q196 672 263 821 L312 799 ZM343 568 Q306 485 248 407 L248 -97 L195 -97 L195 343 Q132 276 65 224 L49 276 Q219 413 296 590 L343 568 ZM629 817 L682 817 L682 703 L912 703 L912 652 L682 652 L682 513 L953 513 L953 461 L365 461 L365 513 L629 513 L629 652 L400 652 L400 703 L629 703 L629 817 ZM368 324 L762 324 L762 402 L816 402 L816 324 L940 324 L940 273 L816 273 L816 -8 Q816 -91 730 -91 L586 -91 L574 -39 Q670 -43 711 -43 Q762 -43 762 5 L762 273 L368 273 L368 324 ZM463 220 Q552 137 605 66 L562 36 Q513 105 421 194 L463 220 Z" /><glyph glyph-name="uni5F8B" unicode="&#x5f8b;" d="M861 368 L645 368 L645 268 L889 268 L889 220 L645 220 L645 111 L943 111 L943 61 L645 61 L645 -100 L591 -100 L591 61 L332 61 L332 111 L591 111 L591 220 L380 220 L380 268 L591 268 L591 368 L393 368 L393 416 L591 416 L591 520 L349 520 L349 569 L591 569 L591 674 L398 674 L398 722 L591 722 L591 815 L645 815 L645 722 L861 722 L861 569 L954 569 L954 520 L861 520 L861 368 ZM645 674 L645 569 L809 569 L809 674 L645 674 ZM645 520 L645 416 L809 416 L809 520 L645 520 ZM186 342 Q131 282 62 230 L46 282 Q199 404 265 555 L312 533 Q282 467 240 410 L240 -97 L186 -97 L186 342 ZM303 793 Q225 630 62 511 L45 564 Q191 675 254 815 L303 793 Z" /><glyph glyph-name="uni5F97" unicode="&#x5f97;" d="M186 338 Q129 281 60 233 L44 284 Q210 406 284 561 L331 539 Q290 458 239 396 L239 -97 L186 -97 L186 338 ZM325 794 Q240 632 59 511 L42 564 Q207 675 279 816 L325 794 ZM407 777 L869 777 L869 468 L407 468 L407 777 ZM817 514 L817 602 L459 602 L459 514 L817 514 ZM459 645 L817 645 L817 732 L459 732 L459 645 ZM358 387 L933 387 L933 338 L805 338 L805 238 L954 238 L954 189 L805 189 L805 -17 Q805 -91 727 -91 L615 -91 L604 -40 Q676 -44 708 -44 Q752 -44 752 -4 L752 189 L324 189 L324 238 L752 238 L752 338 L358 338 L358 387 ZM453 149 Q539 68 589 0 L547 -28 Q492 46 413 120 L453 149 Z" /><glyph glyph-name="uni5FA1" unicode="&#x5fa1;" d="M246 776 Q190 620 68 503 L51 556 Q154 665 200 797 L246 776 ZM274 537 Q242 457 198 389 L198 -99 L146 -99 L146 319 Q109 274 61 230 L45 282 Q171 405 228 558 L274 537 ZM378 648 Q356 604 320 551 L276 579 Q349 682 386 816 L437 805 Q419 744 400 697 L622 697 L622 648 L508 648 L508 468 L640 468 L640 418 L508 418 L508 279 L624 279 L624 230 L508 230 L508 32 Q601 56 635 67 L645 18 Q498 -24 308 -53 L295 -10 Q321 -1 321 24 L321 329 L369 329 L369 3 L457 20 L457 418 L296 418 L296 468 L457 468 L457 648 L378 648 ZM789 19 L774 72 L820 70 Q858 70 858 107 L858 689 L740 689 L740 -99 L688 -99 L688 740 L910 740 L910 96 Q910 19 838 19 L789 19 Z" /><glyph glyph-name="uni5FAE" unicode="&#x5fae;" d="M744 600 L726 525 Q752 360 799 227 Q852 388 855 600 L744 600 ZM776 167 Q731 286 701 440 Q672 356 638 294 L607 332 Q698 513 729 820 L778 811 Q767 724 754 651 L946 651 L946 600 L903 600 Q897 341 825 160 Q882 26 963 -46 L932 -92 Q855 -18 801 106 Q743 -11 652 -93 L623 -48 Q719 36 776 167 ZM497 12 Q512 21 515 37 L515 239 L393 239 L393 195 Q390 3 296 -91 L256 -56 Q341 32 342 195 L342 289 L564 289 L564 53 Q604 87 661 142 L672 96 Q598 18 519 -34 L497 12 ZM438 814 L485 814 L485 583 L569 583 L569 762 L615 762 L615 535 L304 535 L304 762 L350 762 L350 583 L438 583 L438 814 ZM257 788 Q193 627 53 508 L37 561 Q158 673 211 809 L257 788 ZM263 521 Q238 458 208 407 L208 -101 L157 -101 L157 331 Q115 276 56 222 L40 274 Q164 395 216 542 L263 521 ZM301 432 L608 432 L608 382 L301 382 L301 432 Z" /><glyph glyph-name="uni2F3C" unicode="&#x2f3c;&#x5fc3;" d="M401 -65 Q306 -65 306 25 L306 605 L361 605 L361 37 Q361 -11 417 -11 L615 -11 Q656 -11 673 18 Q695 57 702 238 L753 221 Q744 22 712 -27 Q685 -65 626 -65 L401 -65 ZM214 483 Q171 234 91 51 L44 81 Q123 264 161 494 L214 483 ZM784 528 Q888 333 962 121 L912 99 Q833 327 731 510 L784 528 ZM420 807 Q562 666 640 558 L594 527 Q515 641 375 779 L420 807 Z" /><glyph glyph-name="uni5FC5" unicode="&#x5fc5;" d="M376 810 Q499 713 578 619 L541 581 Q466 672 339 774 L376 810 ZM767 760 Q632 299 366 64 L366 40 Q366 -8 420 -8 L604 -8 Q650 -8 670 20 Q695 57 704 236 L755 219 Q744 22 709 -24 Q678 -61 614 -61 L404 -61 Q315 -61 312 19 Q223 -49 128 -92 L97 -46 Q216 9 311 89 L311 605 L366 605 L366 138 Q603 369 717 782 L767 760 ZM221 500 Q174 262 91 93 L45 123 Q129 293 168 511 L221 500 ZM788 498 Q890 315 961 116 L912 94 Q835 311 736 481 L788 498 Z" /><glyph glyph-name="uni5FD7" unicode="&#x5fd7;" d="M473 817 L527 817 L527 680 L925 680 L925 626 L527 626 L527 454 L860 454 L860 403 L143 403 L143 454 L473 454 L473 626 L74 626 L74 680 L473 680 L473 817 ZM204 261 Q168 88 107 -36 L60 -6 Q122 118 150 272 L204 261 ZM817 299 Q893 163 948 14 L898 -9 Q840 151 765 282 L817 299 ZM388 -76 Q298 -76 298 20 L298 303 L352 303 L352 31 Q352 -23 404 -23 L626 -23 Q667 -23 682 -3 Q704 26 711 157 L762 140 Q752 -11 721 -48 Q693 -76 637 -76 L388 -76 ZM510 324 Q566 228 604 125 L554 102 Q512 213 459 307 L510 324 Z" /><glyph glyph-name="uni5FE7" unicode="&#x5fe7;" d="M766 797 Q840 717 880 654 L835 623 Q794 687 723 769 L766 797 ZM562 813 L616 813 L616 570 L928 570 L928 517 L749 517 L749 9 Q749 -31 789 -31 L845 -31 Q872 -31 881 -9 Q895 19 901 159 L949 143 Q943 -17 919 -54 Q898 -84 855 -84 L772 -84 Q695 -84 695 -3 L695 517 L614 517 Q593 97 390 -103 L349 -66 Q542 121 560 517 L402 517 L402 570 L562 570 L562 813 ZM146 620 Q140 466 89 327 L44 339 Q96 477 102 624 L146 620 ZM305 642 Q348 545 383 413 L342 402 Q312 521 267 630 L305 642 ZM189 812 L243 812 L243 -94 L189 -94 L189 812 Z" /><glyph glyph-name="uni602A" unicode="&#x602a;" d="M625 342 L678 342 L678 223 L897 223 L897 171 L678 171 L678 -15 L957 -15 L957 -68 L345 -68 L345 -15 L625 -15 L625 171 L402 171 L402 223 L625 223 L625 342 ZM388 767 L876 767 L876 718 Q816 579 694 480 Q737 452 800 422 Q878 389 957 366 L927 319 Q839 347 758 385 Q701 414 652 448 Q531 364 357 309 L336 358 Q496 406 608 481 Q548 533 508 593 Q471 646 455 715 L388 715 L388 767 ZM505 715 Q524 649 563 600 Q601 550 650 512 Q759 599 818 715 L505 715 ZM129 617 Q126 471 91 337 L45 350 Q80 479 84 621 L129 617 ZM343 646 Q379 564 406 457 L362 446 Q338 542 302 633 L343 646 ZM200 812 L253 812 L253 -99 L200 -99 L200 812 Z" /><glyph glyph-name="uni606F" unicode="&#x606f;" d="M196 735 L415 735 Q437 774 449 819 L505 811 Q492 768 473 735 L812 735 L812 259 L196 259 L196 735 ZM759 307 L759 406 L249 406 L249 307 L759 307 ZM249 451 L759 451 L759 545 L249 545 L249 451 ZM249 591 L759 591 L759 688 L249 688 L249 591 ZM201 174 Q163 36 98 -64 L53 -34 Q119 62 149 184 L201 174 ZM360 -82 Q284 -82 284 -10 L284 190 L339 190 L339 2 Q339 -34 375 -34 L609 -34 Q647 -34 662 -17 Q683 5 689 111 L741 94 Q732 -28 701 -59 Q675 -82 619 -82 L360 -82 ZM477 224 Q563 143 609 83 L568 54 Q522 117 437 199 L477 224 ZM801 201 Q904 75 957 -16 L914 -46 Q853 60 759 174 L801 201 Z" /><glyph glyph-name="uni60A0" unicode="&#x60a0;" d="M533 592 Q501 531 456 483 L424 521 Q522 632 556 818 L607 808 Q592 742 581 707 L915 707 L915 656 L834 656 Q795 518 727 439 L723 435 Q815 362 947 319 L918 274 Q784 320 688 401 Q611 334 485 279 L452 320 Q576 373 650 435 Q580 505 533 592 ZM685 468 Q750 542 783 656 L562 656 L557 643 Q604 543 685 468 ZM312 792 Q281 721 229 652 L229 271 L177 271 L177 590 Q126 536 68 491 L52 545 Q199 665 263 814 L312 792 ZM345 679 L396 679 L396 340 L345 340 L345 679 ZM220 189 Q181 54 110 -48 L64 -19 Q135 80 168 200 L220 189 ZM502 246 Q567 175 613 97 L564 76 Q511 166 453 230 L502 246 ZM808 217 Q885 116 943 -1 L893 -24 Q833 104 758 201 L808 217 ZM396 -82 Q316 -82 316 -5 L316 209 L370 209 L370 7 Q370 -30 412 -30 L629 -30 Q663 -30 677 -14 Q695 8 703 107 L753 91 Q744 -29 716 -59 Q691 -82 639 -82 L396 -82 Z" /><glyph glyph-name="uni60A8" unicode="&#x60a8;" d="M502 263 L490 314 Q540 310 562 310 Q595 310 595 352 L595 602 L649 602 L649 339 Q649 263 580 263 L502 263 ZM180 571 Q129 510 78 465 L44 507 Q185 630 267 817 L320 804 Q283 719 234 645 L234 266 L180 266 L180 571 ZM544 805 Q520 753 500 717 L907 717 L907 683 Q884 600 854 535 L805 549 Q835 606 852 667 L469 667 Q411 585 340 521 L307 561 Q424 663 493 818 L544 805 ZM220 200 Q178 55 100 -54 L55 -24 Q132 82 167 211 L220 200 ZM387 -83 Q305 -83 305 -1 L305 225 L360 225 L360 10 Q360 -31 404 -31 L635 -31 Q672 -31 687 -13 Q708 11 714 120 L765 103 Q756 -28 726 -58 Q699 -83 645 -83 L387 -83 ZM803 237 Q902 105 956 6 L911 -26 Q857 78 759 209 L803 237 ZM512 492 Q451 377 372 297 L331 327 Q410 405 468 514 L512 492 ZM778 515 Q856 425 912 320 L866 295 Q807 404 732 495 L778 515 ZM502 235 Q577 157 620 92 L578 61 Q534 129 460 209 L502 235 Z" /><glyph glyph-name="uni60C5" unicode="&#x60c5;" d="M494 196 L494 112 L828 112 L828 196 L494 196 ZM828 237 L828 325 L494 325 L494 237 L828 237 ZM494 71 L494 -95 L442 -95 L442 369 L879 369 L879 7 Q879 -91 801 -91 L726 -91 L713 -45 L785 -47 Q828 -47 828 18 L828 71 L494 71 ZM635 821 L690 821 L690 745 L928 745 L928 701 L690 701 L690 618 L895 618 L895 575 L690 575 L690 492 L956 492 L956 448 L363 448 L363 461 L333 454 Q302 543 253 631 L290 643 Q328 581 363 492 L635 492 L635 575 L427 575 L427 618 L635 618 L635 701 L392 701 L392 745 L635 745 L635 821 ZM131 621 Q125 474 75 341 L34 352 Q83 479 89 624 L131 621 ZM180 811 L234 811 L234 -93 L180 -93 L180 811 Z" /><glyph glyph-name="uni60CA" unicode="&#x60ca;" d="M127 620 Q122 468 90 337 L46 349 Q79 478 82 623 L127 620 ZM325 641 Q364 546 394 424 L349 412 Q322 524 283 627 L325 641 ZM192 812 L246 812 L246 -94 L192 -94 L192 812 ZM370 705 L635 705 Q615 766 592 810 L646 820 Q667 772 689 705 L947 705 L947 654 L370 654 L370 705 ZM452 546 L868 546 L868 283 L686 283 L686 -20 Q686 -93 610 -93 L517 -93 L505 -41 Q565 -45 592 -45 Q632 -45 632 -7 L632 283 L452 283 L452 546 ZM814 333 L814 496 L505 496 L505 333 L814 333 ZM537 185 Q463 48 360 -53 L317 -22 Q419 74 492 207 L537 185 ZM810 210 Q909 74 958 -20 L918 -50 Q865 54 769 184 L810 210 Z" /><glyph glyph-name="uni610F" unicode="&#x610f;" d="M281 701 L115 701 L115 749 L470 749 Q456 784 435 818 L493 828 Q510 796 527 749 L885 749 L885 701 L717 701 L672 608 L933 608 L933 560 L67 560 L67 608 L319 608 L281 701 ZM374 608 L616 608 L661 701 L337 701 L374 608 ZM189 486 L811 486 L811 203 L189 203 L189 486 ZM757 247 L757 324 L243 324 L243 247 L757 247 ZM243 366 L757 366 L757 443 L243 443 L243 366 ZM202 139 Q167 21 102 -68 L55 -38 Q118 47 148 150 L202 139 ZM392 -82 Q302 -82 302 3 L302 138 L356 138 L356 15 Q356 -33 408 -33 L625 -33 Q661 -33 675 -19 Q696 -1 702 82 L753 65 Q744 -38 714 -62 Q689 -82 636 -82 L392 -82 ZM501 173 Q568 104 603 55 L558 23 Q520 77 456 144 L501 173 ZM816 155 Q907 48 949 -23 L905 -55 Q858 25 772 127 L816 155 Z" /><glyph glyph-name="uni611F" unicode="&#x611f;" d="M244 574 L573 574 L573 528 L244 528 L244 574 ZM277 455 L546 455 L546 259 L277 259 L277 455 ZM495 303 L495 411 L328 411 L328 303 L495 303 ZM910 718 L910 668 L664 668 Q670 552 691 477 Q705 423 722 383 Q781 472 824 603 L867 581 Q820 433 747 333 L765 307 Q808 255 844 255 Q872 255 905 386 L949 360 Q906 204 849 204 Q790 204 734 265 Q726 274 714 292 Q664 238 603 201 L575 244 Q635 279 687 337 Q660 390 642 452 Q619 537 611 668 L191 668 L191 538 Q185 334 93 212 L52 248 Q134 354 137 538 L137 718 L609 718 Q607 750 607 818 L659 818 Q659 750 661 718 L792 718 Q772 764 747 803 L797 812 Q823 762 840 718 L910 718 ZM217 184 Q175 39 102 -65 L56 -35 Q131 68 167 195 L217 184 ZM407 -82 Q311 -82 311 17 L311 199 L366 199 L366 28 Q366 -31 423 -31 L605 -31 Q649 -31 667 -16 Q689 3 698 95 L750 79 Q738 -35 706 -61 Q678 -82 615 -82 L407 -82 ZM807 171 Q899 71 952 -11 L909 -41 Q854 45 763 143 L807 171 ZM494 207 Q571 124 606 71 L565 43 Q522 108 453 181 L494 207 Z" /><glyph glyph-name="uni613F" unicode="&#x613f;" d="M918 771 L918 724 L587 724 Q579 690 562 648 L839 648 L839 374 L609 374 L609 270 Q609 201 537 201 L456 201 L445 248 Q484 245 520 245 Q555 245 555 282 L555 374 L306 374 L306 648 L508 648 Q523 681 533 724 L179 724 L179 390 Q175 92 84 -91 L43 -54 Q122 106 126 390 L126 771 L918 771 ZM786 416 L786 493 L358 493 L358 416 L786 416 ZM358 531 L786 531 L786 608 L358 608 L358 531 ZM465 -87 Q385 -87 385 -13 L385 155 L437 155 L437 -2 Q437 -39 481 -39 L649 -39 Q676 -39 686 -26 Q700 -9 706 75 L755 58 Q747 -45 724 -68 Q702 -87 659 -87 L465 -87 ZM328 122 Q278 4 210 -79 L166 -49 Q233 31 283 144 L328 122 ZM549 164 Q610 93 646 31 L608 4 Q573 65 512 140 L549 164 ZM791 166 Q889 51 942 -36 L899 -67 Q844 26 749 140 L791 166 ZM425 310 Q348 236 242 183 L210 225 Q316 274 389 341 L425 310 ZM712 339 Q828 292 926 225 L896 180 Q795 254 685 300 L712 339 Z" /><glyph glyph-name="uni6167" unicode="&#x6167;" d="M834 164 L137 164 L137 206 L782 206 L782 274 L189 274 L189 313 L782 313 L782 382 L149 382 L149 424 L272 424 L272 496 L85 496 L85 538 L272 538 L272 605 L122 605 L122 646 L272 646 L272 713 L103 713 L103 755 L272 755 L272 816 L326 816 L326 755 L479 755 L479 713 L326 713 L326 646 L463 646 L463 605 L326 605 L326 538 L478 538 L478 496 L326 496 L326 424 L680 424 L680 496 L516 496 L516 538 L680 538 L680 605 L537 605 L537 646 L680 646 L680 713 L520 713 L520 755 L680 755 L680 816 L734 816 L734 755 L901 755 L901 713 L734 713 L734 646 L880 646 L880 605 L734 605 L734 538 L915 538 L915 496 L734 496 L734 424 L834 424 L834 164 ZM209 105 Q174 -5 113 -82 L70 -55 Q131 22 161 115 L209 105 ZM371 -81 Q296 -81 296 -11 L296 111 L349 111 L349 0 Q349 -33 386 -33 L632 -33 Q666 -33 680 -19 Q699 -1 705 85 L755 69 Q746 -34 718 -61 Q693 -81 642 -81 L371 -81 ZM490 154 Q560 98 606 47 L567 19 Q527 67 452 130 L490 154 ZM820 127 Q916 30 963 -39 L923 -67 Q873 6 780 102 L820 127 Z" /><glyph glyph-name="uni6210" unicode="&#x6210;" d="M736 814 Q811 757 862 700 L826 665 Q779 719 701 781 L736 814 ZM871 491 Q810 289 712 151 Q735 96 765 52 Q819 -23 854 -23 Q887 -22 911 138 L960 112 Q927 -83 864 -83 Q802 -83 731 7 Q700 46 675 103 Q566 -28 420 -93 L389 -47 Q544 22 651 159 Q628 218 612 281 Q581 410 570 604 L208 604 L208 422 L453 422 Q451 183 435 108 Q418 41 348 38 Q311 38 260 41 L243 91 Q321 87 342 87 Q380 90 389 139 Q399 206 399 370 L208 370 L208 324 Q204 61 94 -98 L53 -61 Q151 77 155 324 L155 655 L568 655 Q565 733 565 817 L619 817 Q619 755 623 655 L940 655 L940 604 L625 604 Q636 407 665 294 Q676 252 689 212 Q772 337 822 512 L871 491 Z" /><glyph glyph-name="uni6211" unicode="&#x6211;" d="M511 290 Q420 259 319 233 L319 3 Q319 -84 236 -84 L126 -84 L114 -33 Q168 -36 217 -36 Q265 -36 265 17 L265 220 Q172 199 57 180 L49 233 Q163 251 265 275 L265 484 L51 484 L51 536 L265 536 L265 693 Q180 675 90 663 L79 715 Q293 739 460 804 L479 753 Q403 726 319 705 L319 536 L581 536 Q571 655 571 813 L625 813 Q625 656 634 536 L949 536 L949 484 L638 484 Q649 368 668 291 Q679 246 692 207 Q772 300 830 420 L877 395 Q808 251 712 150 Q733 95 762 50 Q813 -25 846 -25 Q882 -23 908 154 L956 128 Q920 -83 854 -83 Q796 -83 728 8 Q697 52 671 110 Q560 7 417 -49 L387 -3 Q538 54 650 164 Q631 216 616 280 Q596 364 585 484 L319 484 L319 288 Q421 315 511 345 L511 290 ZM735 800 Q843 727 918 650 L880 612 Q813 683 698 765 L735 800 Z" /><glyph glyph-name="uni6216" unicode="&#x6216;" d="M110 508 L466 508 L466 211 L110 211 L110 508 ZM413 261 L413 457 L165 457 L165 261 L413 261 ZM502 86 Q300 29 73 -6 L60 49 Q288 78 502 138 L502 86 ZM841 -95 Q768 -92 702 2 Q678 35 662 73 Q574 -36 471 -98 L440 -52 Q550 14 638 130 Q617 186 601 259 Q569 414 568 626 L58 626 L58 680 L568 680 L568 814 L622 814 L622 680 L789 680 Q761 743 729 789 L783 798 Q813 747 842 680 L941 680 L941 626 L622 626 Q625 426 651 286 Q662 230 676 185 Q765 326 827 530 L875 504 Q803 275 698 122 Q713 82 736 43 Q790 -37 835 -37 Q877 -37 907 143 L952 113 Q914 -95 841 -95 Z" /><glyph glyph-name="uni6240" unicode="&#x6240;" d="M435 238 L172 238 Q154 46 76 -95 L38 -57 Q123 101 129 316 L129 726 Q304 747 413 813 L448 772 Q340 709 177 685 L177 554 L435 554 L435 238 ZM177 500 L177 303 L176 289 L384 289 L384 500 L177 500 ZM582 447 L582 290 Q579 34 513 -97 L464 -72 Q530 57 533 290 L533 735 Q740 742 887 806 L914 758 Q766 698 582 689 L582 500 L952 500 L952 447 L833 447 L833 -98 L780 -98 L780 447 L582 447 Z" /><glyph glyph-name="uni2F3F" unicode="&#x2f3f;&#x624b;" d="M866 758 Q724 720 545 702 L545 515 L872 515 L872 461 L545 461 L545 281 L948 281 L948 228 L545 228 L545 -4 Q545 -89 461 -89 L306 -89 L294 -37 Q396 -41 442 -41 Q492 -41 492 9 L492 228 L53 228 L53 281 L492 281 L492 461 L137 461 L137 515 L492 515 L492 697 Q321 683 134 683 L116 732 Q558 734 840 804 L866 758 Z" /><glyph glyph-name="uni624D" unicode="&#x624d;" d="M430 -89 L418 -37 Q522 -41 567 -41 Q615 -41 615 14 L615 572 L569 572 Q425 254 71 53 L43 99 Q376 283 516 572 L59 572 L59 625 L615 625 L615 813 L668 813 L668 625 L927 625 L927 572 L668 572 L668 0 Q668 -89 586 -89 L430 -89 Z" /><glyph glyph-name="uni6253" unicode="&#x6253;" d="M426 359 Q351 325 273 296 L273 -12 Q273 -88 196 -88 L90 -88 L78 -36 Q148 -40 177 -40 Q219 -40 219 1 L219 277 Q130 248 52 227 L39 279 Q137 301 219 328 L219 572 L54 572 L54 625 L219 625 L219 812 L273 812 L273 625 L411 625 L411 572 L273 572 L273 347 Q361 381 426 412 L426 359 ZM446 731 L944 731 L944 677 L774 677 L774 -2 Q774 -88 692 -88 L530 -88 L518 -35 Q626 -39 673 -39 Q720 -39 720 12 L720 677 L446 677 L446 731 Z" /><glyph glyph-name="uni626C" unicode="&#x626c;" d="M74 -86 L62 -35 Q104 -38 141 -38 Q190 -38 190 12 L190 272 Q130 246 51 219 L37 274 Q119 298 190 326 L190 572 L55 572 L55 625 L190 625 L190 813 L244 813 L244 625 L357 625 L357 572 L244 572 L244 350 Q311 381 369 416 L369 361 Q318 330 244 296 L244 -2 Q244 -86 160 -86 L74 -86 ZM416 418 L416 468 Q599 582 761 718 L415 718 L415 769 L836 769 L836 720 Q691 587 507 466 L914 466 Q908 125 886 19 Q862 -83 762 -86 Q720 -86 648 -84 L632 -31 Q695 -34 754 -34 Q812 -33 833 27 Q853 84 860 418 L773 418 Q737 236 668 131 Q591 19 437 -71 L403 -28 Q549 55 621 152 Q688 250 722 418 L619 418 Q547 216 371 103 L339 142 Q503 247 568 418 L416 418 Z" /><glyph glyph-name="uni6295" unicode="&#x6295;" d="M76 -86 L64 -34 Q118 -38 141 -38 Q187 -38 187 12 L187 275 Q117 246 53 225 L39 279 Q117 301 187 330 L187 572 L59 572 L59 625 L187 625 L187 813 L241 813 L241 625 L362 625 L362 572 L241 572 L241 353 Q301 383 358 416 L358 362 Q296 326 241 300 L241 -2 Q241 -86 160 -86 L76 -86 ZM399 381 L869 381 L869 330 Q819 182 707 79 Q810 4 964 -53 L935 -99 Q778 -37 669 46 Q552 -46 377 -100 L348 -55 Q514 -3 626 82 Q506 190 464 327 L399 327 L399 381 ZM514 327 Q555 206 664 113 Q768 208 815 327 L514 327 ZM483 770 L801 770 L801 549 Q801 511 843 511 L933 511 L933 460 L832 460 Q748 460 748 540 L748 718 L537 718 L537 651 Q537 513 400 436 L363 478 Q483 537 483 645 L483 770 Z" /><glyph glyph-name="uni62C9" unicode="&#x62c9;" d="M406 647 L647 647 Q622 741 594 807 L649 817 Q672 753 699 647 L930 647 L930 596 L406 596 L406 647 ZM380 0 L690 0 Q764 215 817 520 L869 507 Q820 219 746 0 L953 0 L953 -53 L380 -53 L380 0 ZM508 510 Q556 320 595 75 L545 61 Q511 283 459 494 L508 510 ZM380 358 Q315 323 255 296 L255 -3 Q255 -89 176 -89 L86 -89 L74 -37 Q132 -41 157 -41 Q202 -41 202 11 L202 273 Q137 247 55 221 L42 276 Q123 297 202 327 L202 572 L57 572 L57 625 L202 625 L202 811 L255 811 L255 625 L374 625 L374 572 L255 572 L255 349 Q323 381 380 412 L380 358 Z" /><glyph glyph-name="uni62E9" unicode="&#x62e9;" d="M417 771 L884 771 L884 724 Q837 604 712 519 Q814 468 960 447 L941 399 Q772 425 663 489 Q557 431 409 393 L382 439 Q520 473 615 521 Q510 599 465 721 L417 721 L417 771 ZM516 721 Q560 616 662 548 Q776 619 828 721 L516 721 ZM75 -88 L63 -36 Q119 -40 142 -40 Q187 -40 187 5 L187 267 Q117 243 57 225 L43 278 Q118 296 187 320 L187 564 L57 564 L57 617 L187 617 L187 811 L241 811 L241 617 L361 617 L361 564 L241 564 L241 341 Q297 365 363 398 L363 343 Q304 314 241 288 L241 -8 Q241 -88 161 -88 L75 -88 ZM433 309 L639 309 L639 405 L691 405 L691 309 L896 309 L896 260 L691 260 L691 130 L946 130 L946 78 L691 78 L691 -90 L639 -90 L639 78 L381 78 L381 130 L639 130 L639 260 L433 260 L433 309 Z" /><glyph glyph-name="uni62EF" unicode="&#x62ef;" d="M67 -86 L56 -36 Q106 -40 128 -40 Q173 -40 173 13 L173 268 Q125 247 57 222 L43 276 Q113 296 173 322 L173 573 L54 573 L54 624 L173 624 L173 811 L225 811 L225 624 L328 624 L328 573 L225 573 L225 346 Q278 372 334 406 L334 352 Q278 318 225 292 L225 -1 Q225 -86 146 -86 L67 -86 ZM929 537 Q852 437 755 388 Q842 254 960 155 L932 109 Q763 255 662 470 L662 142 Q662 79 596 79 L494 79 L481 128 Q539 126 577 126 Q612 126 612 160 L612 581 Q723 663 770 710 L415 710 L415 760 L835 760 L835 710 Q750 628 663 562 Q695 486 731 427 Q817 472 894 573 L929 537 ZM348 529 L560 529 L560 486 Q494 251 343 101 L311 144 Q449 273 512 482 L348 482 L348 529 ZM337 -13 L934 -13 L934 -64 L337 -64 L337 -13 Z" /><glyph glyph-name="uni6301" unicode="&#x6301;" d="M75 -88 L63 -36 Q119 -40 144 -40 Q187 -40 187 6 L187 270 Q128 250 54 228 L40 281 Q119 300 187 324 L187 564 L57 564 L57 616 L187 616 L187 811 L241 811 L241 616 L351 616 L351 564 L241 564 L241 344 Q308 372 359 398 L359 343 Q294 312 241 291 L241 -8 Q241 -88 163 -88 L75 -88 ZM637 814 L691 814 L691 703 L894 703 L894 652 L691 652 L691 515 L938 515 L938 463 L395 463 L395 515 L637 515 L637 652 L433 652 L433 703 L637 703 L637 814 ZM389 329 L755 329 L755 413 L810 413 L810 329 L952 329 L952 278 L810 278 L810 -8 Q810 -90 729 -90 L593 -90 L581 -37 Q671 -41 710 -41 Q755 -41 755 6 L755 278 L389 278 L389 329 ZM475 224 Q569 128 615 61 L573 31 Q521 108 432 198 L475 224 Z" /><glyph glyph-name="uni6349" unicode="&#x6349;" d="M962 -31 L951 -82 L853 -82 Q669 -82 604 -41 Q515 10 467 133 Q421 -6 350 -101 L315 -58 Q430 105 470 377 L523 368 Q507 275 489 206 Q510 131 547 79 Q590 19 649 -5 L649 467 L444 467 L444 768 L887 768 L887 467 L703 467 L703 288 L926 288 L926 237 L703 237 L703 -21 Q759 -31 833 -32 L962 -31 ZM90 -86 L78 -36 Q120 -39 157 -39 Q198 -39 198 4 L198 269 Q138 245 68 223 L55 275 Q140 299 198 322 L198 572 L70 572 L70 625 L198 625 L198 813 L251 813 L251 625 L361 625 L361 572 L251 572 L251 344 Q311 371 368 404 L368 350 Q316 322 251 292 L251 -10 Q251 -86 176 -86 L90 -86 ZM834 519 L834 716 L497 716 L497 519 L834 519 Z" /><glyph glyph-name="uni6392" unicode="&#x6392;" d="M529 813 L580 813 L580 -97 L529 -97 L529 128 L323 128 L323 178 L529 178 L529 367 L379 367 L379 417 L529 417 L529 599 L365 599 L365 649 L529 649 L529 813 ZM62 -88 L51 -36 Q111 -40 137 -40 Q181 -40 181 6 L181 260 Q110 232 62 216 L48 270 Q116 289 181 314 L181 564 L68 564 L68 617 L181 617 L181 811 L235 811 L235 617 L330 617 L330 564 L235 564 L235 337 Q293 365 340 392 L340 337 Q285 306 235 284 L235 -7 Q235 -88 156 -88 L62 -88 ZM717 813 L769 813 L769 649 L947 649 L947 599 L769 599 L769 417 L928 417 L928 367 L769 367 L769 178 L954 178 L954 128 L769 128 L769 -97 L717 -97 L717 813 Z" /><glyph glyph-name="uni63A5" unicode="&#x63a5;" d="M521 645 Q562 573 596 491 L703 491 Q747 572 777 656 L828 638 Q797 554 759 491 L933 491 L933 440 L380 440 L380 491 L543 491 Q508 568 476 623 L521 645 ZM652 820 Q666 786 687 720 L915 720 L915 670 L404 670 L404 720 L633 720 Q618 770 597 810 L652 820 ZM75 -88 L63 -36 Q119 -40 144 -40 Q187 -40 187 9 L187 273 Q124 247 51 225 L37 278 Q115 299 187 326 L187 564 L57 564 L57 617 L187 617 L187 811 L241 811 L241 617 L332 617 L332 564 L241 564 L241 349 Q305 381 337 398 L337 343 Q284 315 241 296 L241 -5 Q241 -88 163 -88 L75 -88 ZM636 397 Q617 349 597 308 L950 308 L950 256 L834 256 Q813 136 734 54 Q842 3 944 -57 L914 -100 Q810 -36 695 18 Q599 -57 378 -102 L357 -53 Q545 -17 641 44 Q553 85 437 132 Q478 192 514 256 L367 256 L367 308 L541 308 Q564 355 583 403 L636 397 ZM570 256 Q544 210 503 153 Q599 118 684 77 Q761 147 784 256 L570 256 Z" /><glyph glyph-name="uni6446" unicode="&#x6446;" d="M414 771 L904 771 L904 502 L414 502 L414 771 ZM854 550 L854 724 L754 724 L754 550 L854 550 ZM707 550 L707 724 L611 724 L611 550 L707 550 ZM563 550 L563 724 L463 724 L463 550 L563 550 ZM629 464 L682 464 L682 390 L887 390 L887 340 L682 340 L682 224 L952 224 L952 172 L620 172 Q560 65 471 -24 Q659 -9 817 22 Q774 80 747 113 L788 139 Q892 11 946 -80 L903 -111 Q879 -69 846 -20 Q681 -54 405 -76 L389 -27 Q410 -21 419 -12 Q505 74 563 172 L369 172 L369 224 L629 224 L629 340 L427 340 L427 390 L629 390 L629 464 ZM70 -86 L59 -35 Q104 -38 145 -38 Q188 -38 188 6 L188 275 Q113 246 47 225 L33 279 Q118 302 188 328 L188 572 L58 572 L58 625 L188 625 L188 813 L242 813 L242 625 L347 625 L347 572 L242 572 L242 351 Q311 384 361 412 L361 358 Q299 325 242 299 L242 -8 Q242 -86 164 -86 L70 -86 Z" /><glyph glyph-name="uni6478" unicode="&#x6478;" d="M347 355 Q288 321 236 296 L236 -9 Q236 -89 163 -89 L84 -89 L72 -37 Q122 -41 144 -41 Q182 -41 182 5 L182 272 Q129 249 58 225 L44 279 Q110 297 182 326 L182 572 L54 572 L54 625 L182 625 L182 811 L236 811 L236 625 L343 625 L343 572 L236 572 L236 350 Q300 380 347 409 L347 355 ZM416 557 L865 557 L865 267 L662 267 Q660 214 652 175 L953 175 L953 125 L671 125 Q763 9 954 -60 L918 -103 Q719 -21 630 103 Q626 96 620 82 Q563 -30 363 -101 L328 -58 Q509 2 568 94 Q576 107 583 125 L321 125 L321 175 L599 175 Q610 214 613 267 L416 267 L416 557 ZM815 311 L815 390 L465 390 L465 311 L815 311 ZM465 434 L815 434 L815 512 L465 512 L465 434 ZM348 725 L496 725 L496 811 L547 811 L547 725 L729 725 L729 811 L781 811 L781 725 L942 725 L942 675 L781 675 L781 602 L729 602 L729 675 L547 675 L547 602 L496 602 L496 675 L348 675 L348 725 Z" /><glyph glyph-name="uni64A9" unicode="&#x64a9;" d="M388 723 L589 723 Q610 775 622 827 L673 821 Q661 769 643 723 L915 723 L915 673 L711 673 Q749 603 810 547 Q854 589 883 633 L922 604 Q883 553 846 517 Q892 481 959 449 L937 404 Q881 434 844 460 L844 175 L679 175 L679 -13 Q679 -91 603 -91 L521 -91 L510 -41 Q562 -45 585 -45 Q628 -45 628 1 L628 175 L443 175 L443 457 Q398 423 345 397 L321 440 Q393 478 450 529 Q424 558 377 598 L412 630 Q454 594 483 561 Q532 613 565 673 L388 673 L388 723 ZM621 673 Q566 562 482 489 L806 489 Q707 571 660 673 L621 673 ZM495 309 L495 221 L793 221 L793 309 L495 309 ZM793 352 L793 444 L495 444 L495 352 L793 352 ZM521 114 Q450 2 352 -78 L314 -41 Q409 31 479 135 L521 114 ZM794 136 Q894 33 948 -45 L908 -74 Q852 8 753 109 L794 136 ZM69 -90 L58 -39 Q110 -43 133 -43 Q179 -43 179 6 L179 259 Q124 238 51 216 L37 270 Q102 286 179 313 L179 573 L58 573 L58 624 L179 624 L179 815 L232 815 L232 624 L334 624 L334 573 L232 573 L232 334 Q272 350 331 380 L331 325 Q282 301 232 280 L232 -7 Q232 -90 151 -90 L69 -90 Z" /><glyph glyph-name="uni653E" unicode="&#x653e;" d="M54 658 L262 658 Q228 744 191 806 L246 816 Q283 745 315 658 L467 658 L467 605 L218 605 L218 512 Q218 488 216 440 L410 440 Q410 86 396 2 Q381 -84 280 -84 Q260 -84 212 -81 L199 -33 Q241 -36 271 -36 Q333 -36 345 18 Q358 84 359 389 L213 389 Q194 68 79 -95 L37 -59 Q164 119 167 512 L167 605 L54 605 L54 658 ZM608 607 Q595 568 578 525 Q626 342 706 209 Q797 375 803 607 L608 607 ZM677 161 Q599 290 548 462 Q514 401 486 364 L452 404 Q564 561 604 826 L658 816 Q641 721 623 658 L933 658 L933 607 L855 607 Q848 343 738 160 Q832 23 964 -52 L932 -98 Q801 -23 708 114 Q617 -13 476 -97 L446 -50 Q591 34 677 161 Z" /><glyph glyph-name="uni6545" unicode="&#x6545;" d="M532 462 Q500 405 457 356 L423 397 Q554 554 599 817 L651 808 Q633 715 609 638 L942 638 L942 584 L857 584 Q848 325 734 145 Q826 17 954 -55 L924 -101 Q798 -27 704 102 Q617 -13 481 -92 L452 -47 Q589 30 673 146 Q586 281 532 462 ZM590 584 L564 523 Q615 327 702 191 Q799 358 805 584 L590 584 ZM441 330 L441 -10 L156 -10 L156 -82 L104 -82 L104 330 L245 330 L245 548 L59 548 L59 600 L245 600 L245 802 L298 802 L298 600 L473 600 L473 548 L298 548 L298 330 L441 330 ZM156 40 L389 40 L389 280 L156 280 L156 40 Z" /><glyph glyph-name="uni6551" unicode="&#x6551;" d="M655 603 L638 540 Q677 354 743 222 Q814 383 819 603 L655 603 ZM611 459 Q583 387 551 335 L516 378 Q607 542 640 823 L693 814 Q678 712 667 656 L940 656 L940 603 L870 603 Q864 346 773 166 Q853 25 963 -49 L931 -97 Q824 -19 745 115 Q664 -16 538 -102 L508 -53 Q640 34 716 168 Q653 294 611 459 ZM110 488 Q180 388 213 323 L174 295 Q136 369 68 462 L110 488 ZM322 -25 Q322 -94 248 -94 L154 -94 L142 -42 Q202 -46 229 -46 Q268 -46 268 -11 L268 241 Q180 131 61 42 L39 92 Q169 178 268 301 L268 582 L58 582 L58 634 L268 634 L268 812 L322 812 L322 634 L507 634 L507 582 L322 582 L322 292 Q435 207 541 107 L511 62 Q404 171 322 238 L322 -25 ZM494 489 Q459 392 409 316 L371 343 Q418 417 450 511 L494 489 ZM410 816 Q483 763 529 713 L493 678 Q451 728 376 784 L410 816 Z" /><glyph glyph-name="uni6566" unicode="&#x6566;" d="M651 602 Q638 552 627 516 Q666 347 729 220 Q808 385 812 602 L651 602 ZM599 438 Q575 379 543 326 L510 367 Q603 535 636 823 L689 813 Q675 715 663 655 L933 655 L933 602 L864 602 Q858 348 758 166 Q840 26 958 -51 L927 -97 Q809 -18 729 118 Q642 -14 503 -102 L474 -55 Q618 32 701 168 Q638 287 599 438 ZM533 168 L533 120 Q442 107 341 96 L341 -17 Q341 -93 272 -93 L186 -93 L172 -43 Q238 -47 251 -47 Q288 -47 288 -3 L288 90 Q205 82 61 71 L54 122 Q177 131 288 140 L288 204 Q352 237 414 284 L88 284 L88 332 L498 332 L498 293 Q430 239 341 189 L341 145 L533 168 ZM59 735 L276 735 Q257 779 234 813 L287 822 Q310 783 329 735 L539 735 L539 686 L59 686 L59 735 ZM125 602 L471 602 L471 412 L125 412 L125 602 ZM418 458 L418 556 L178 556 L178 458 L418 458 Z" /><glyph glyph-name="uni6570" unicode="&#x6570;" d="M652 603 Q642 563 636 544 Q676 360 743 223 Q810 388 813 603 L652 603 ZM717 168 Q653 290 610 459 Q581 381 544 316 L510 358 Q601 528 634 818 L688 808 Q678 730 664 656 L936 656 L936 603 L865 603 Q859 344 774 165 Q854 26 965 -49 L934 -95 Q825 -18 747 115 Q671 -15 556 -97 L526 -51 Q647 35 717 168 ZM243 350 L295 344 L271 282 L485 282 L485 236 Q449 131 365 56 Q439 25 515 -18 L485 -61 Q415 -20 322 21 Q221 -52 71 -95 L44 -49 Q176 -13 267 46 Q203 74 122 104 Q164 172 194 233 L67 233 L67 282 L217 282 L243 350 ZM312 78 Q393 145 433 233 L249 233 Q224 180 189 126 Q252 105 312 78 ZM136 790 Q174 732 201 665 L158 646 Q128 715 90 775 L136 790 ZM495 778 Q466 710 417 645 L376 666 Q424 736 450 799 L495 778 ZM70 618 L268 618 L268 813 L319 813 L319 618 L508 618 L508 569 L319 569 L319 557 Q412 506 491 451 L462 408 Q380 475 319 516 L319 372 L268 372 L268 569 L265 569 Q217 448 80 359 L52 404 Q179 476 224 569 L70 569 L70 618 Z" /><glyph glyph-name="uni65AD" unicode="&#x65ad;" d="M81 769 L130 769 L130 27 L473 27 L473 -24 L81 -24 L81 769 ZM182 491 L337 491 L337 813 L388 813 L388 491 L525 491 L525 441 L388 441 L388 408 Q458 337 535 241 L506 198 Q432 307 388 362 L388 75 L337 75 L337 372 Q281 251 186 159 L165 210 Q282 312 333 441 L182 441 L182 491 ZM526 754 Q516 639 478 550 L435 563 Q471 649 480 759 L526 754 ZM228 746 Q260 660 285 555 L242 545 Q219 637 183 731 L228 746 ZM647 447 L647 362 Q642 61 550 -88 L504 -66 Q594 86 598 362 L598 738 Q786 747 914 808 L941 762 Q808 703 647 694 L647 499 L960 499 L960 447 L850 447 L850 -99 L798 -99 L798 447 L647 447 Z" /><glyph glyph-name="uni65B0" unicode="&#x65b0;" d="M922 754 Q786 696 623 687 L623 491 L964 491 L964 440 L847 440 L847 -102 L794 -102 L794 440 L623 440 L623 308 Q616 54 510 -97 L471 -56 Q564 75 570 308 L570 732 Q748 736 896 803 L922 754 ZM63 723 L267 723 Q237 781 208 818 L263 828 Q290 788 319 723 L509 723 L509 671 L63 671 L63 723 ZM54 496 L175 496 Q149 566 116 618 L164 637 Q197 577 224 496 L345 496 Q380 564 405 640 L454 623 Q428 552 394 496 L516 496 L516 445 L317 445 L317 317 L498 317 L498 267 L317 267 L317 -22 Q317 -102 239 -102 L184 -102 L172 -51 Q206 -55 221 -55 Q263 -55 263 -9 L263 267 L68 267 L68 317 L263 317 L263 445 L54 445 L54 496 ZM197 195 Q157 44 81 -70 L36 -41 Q111 67 147 205 L197 195 ZM414 213 Q464 112 491 31 L445 13 Q414 107 368 201 L414 213 Z" /><glyph glyph-name="uni2F45" unicode="&#x2f45;&#x65b9;" d="M71 662 L507 662 Q479 731 431 798 L483 817 Q527 751 562 662 L939 662 L939 609 L408 609 L397 413 L814 413 Q811 133 795 49 Q770 -85 651 -90 Q603 -90 535 -87 L519 -37 Q619 -41 645 -41 Q732 -37 750 81 Q759 153 759 361 L391 361 Q373 237 319 133 Q246 10 114 -99 L74 -61 Q234 75 289 191 Q339 305 348 452 Q353 560 354 609 L71 609 L71 662 Z" /><glyph glyph-name="uni65CB" unicode="&#x65cb;" d="M670 473 L493 473 L493 525 L911 525 L911 490 Q885 380 851 321 L808 339 Q837 396 858 473 L721 473 L721 247 L901 247 L901 198 L721 198 L721 -17 Q774 -27 835 -27 Q880 -27 960 -25 L949 -79 L871 -79 Q698 -79 631 -29 Q578 11 536 88 Q512 -24 469 -98 L429 -62 Q510 75 513 361 L562 361 Q561 250 548 153 Q585 65 634 21 Q648 8 670 -1 L670 473 ZM61 664 L408 664 L408 611 L203 611 L203 459 L390 459 Q390 91 374 -2 Q359 -91 248 -91 Q237 -91 211 -88 L198 -40 Q222 -43 239 -43 Q311 -43 323 14 Q337 80 338 407 L203 407 Q197 63 85 -95 L44 -59 Q148 90 151 423 L151 611 L61 611 L61 664 ZM540 650 Q493 552 427 473 L391 516 Q491 637 549 821 L603 808 Q590 766 563 701 L935 701 L935 650 L540 650 ZM221 817 Q256 748 276 685 L227 667 Q203 739 169 803 L221 817 Z" /><glyph glyph-name="uni65CF" unicode="&#x65cf;" d="M580 439 Q543 360 501 307 L470 346 Q540 434 583 591 L628 581 Q613 528 600 490 L889 490 L889 439 L722 439 Q721 350 710 276 L937 276 L937 223 L728 223 Q800 22 961 -51 L932 -97 Q773 -19 695 195 Q689 175 687 166 Q639 4 474 -98 L439 -56 Q585 33 633 171 Q643 205 647 223 L451 223 L451 276 L657 276 Q670 355 671 439 L580 439 ZM63 662 L234 662 Q208 735 172 801 L226 810 Q256 749 286 662 L406 662 L406 611 L206 611 L206 452 L387 452 Q387 81 372 -3 Q358 -92 257 -92 Q241 -92 208 -89 L196 -43 Q226 -46 248 -46 Q310 -46 322 10 Q335 80 336 402 L205 402 Q196 62 83 -102 L43 -66 Q152 95 153 448 L153 611 L63 611 L63 662 ZM529 645 Q489 547 432 461 L399 501 Q481 627 531 818 L582 806 Q570 759 548 696 L921 696 L921 645 L529 645 Z" /><glyph glyph-name="uni2F46" unicode="&#x2f46;&#x65e0;" d="M138 754 L846 754 L846 700 L486 700 L486 628 Q485 533 472 442 L930 442 L930 389 L613 389 L613 18 Q613 -31 662 -31 L800 -31 Q843 -31 861 -11 Q884 12 892 132 L943 115 Q933 -22 899 -56 Q871 -82 811 -82 L646 -82 Q559 -82 559 7 L559 389 L464 389 Q441 261 388 162 Q297 0 88 -93 L56 -45 Q262 46 349 205 Q386 283 408 389 L69 389 L69 442 L417 442 Q430 533 431 628 L431 700 L138 700 L138 754 Z" /><glyph glyph-name="uni2F47" unicode="&#x2f47;&#x65e5;" d="M809 771 L809 -93 L755 -93 L755 -12 L265 -12 L265 -94 L211 -94 L211 771 L809 771 ZM265 41 L755 41 L755 359 L265 359 L265 41 ZM265 412 L755 412 L755 718 L265 718 L265 412 Z" /><glyph glyph-name="uni65F6" unicode="&#x65f6;" d="M364 736 L364 7 L312 7 L312 77 L143 77 L143 -16 L89 -16 L89 736 L364 736 ZM143 128 L312 128 L312 388 L143 388 L143 128 ZM143 439 L312 439 L312 686 L143 686 L143 439 ZM504 440 Q596 305 650 192 L605 161 Q551 274 460 412 L504 440 ZM567 -87 L555 -35 Q671 -39 721 -39 Q773 -39 773 15 L773 572 L416 572 L416 625 L773 625 L773 806 L828 806 L828 625 L958 625 L958 572 L828 572 L828 1 Q828 -87 740 -87 L567 -87 Z" /><glyph glyph-name="uni6602" unicode="&#x6602;" d="M201 770 L801 770 L801 441 L201 441 L201 770 ZM748 488 L748 582 L254 582 L254 488 L748 488 ZM254 628 L748 628 L748 723 L254 723 L254 628 ZM109 24 Q138 33 138 59 L138 320 Q332 356 435 398 L465 356 Q366 315 188 281 L188 41 Q313 65 445 100 L456 50 Q312 14 123 -25 L109 24 ZM690 -7 L676 44 L780 41 Q823 41 823 90 L823 294 L584 294 L584 -104 L531 -104 L531 345 L876 345 L876 78 Q876 -7 797 -7 L690 -7 Z" /><glyph glyph-name="uni660E" unicode="&#x660e;" d="M377 750 L377 77 L149 77 L149 -6 L95 -6 L95 750 L377 750 ZM149 130 L324 130 L324 392 L149 392 L149 130 ZM149 445 L324 445 L324 698 L149 698 L149 445 ZM552 480 L552 304 L551 291 L838 291 L838 480 L552 480 ZM838 531 L838 725 L552 725 L552 531 L838 531 ZM548 239 Q530 33 435 -100 L392 -61 Q494 86 497 313 L497 778 L893 778 L893 -6 Q893 -88 811 -88 L678 -88 L663 -36 Q757 -38 793 -38 Q838 -38 838 13 L838 239 L548 239 Z" /><glyph glyph-name="uni662F" unicode="&#x662f;" d="M205 777 L805 777 L805 440 L205 440 L205 777 ZM751 488 L751 585 L259 585 L259 488 L751 488 ZM259 630 L751 630 L751 730 L259 730 L259 630 ZM485 306 L61 306 L61 355 L942 355 L942 306 L538 306 L538 176 L834 176 L834 126 L538 126 L538 -26 Q618 -34 721 -34 Q819 -34 935 -30 L920 -83 L725 -82 Q478 -80 392 -42 Q312 -6 249 101 Q190 -18 98 -93 L62 -50 Q202 66 252 262 L304 253 Q290 198 269 146 Q334 32 417 -1 Q447 -11 485 -18 L485 306 Z" /><glyph glyph-name="uni663E" unicode="&#x663e;" d="M178 773 L824 773 L824 378 L178 378 L178 773 ZM770 429 L770 551 L232 551 L232 429 L770 429 ZM232 600 L770 600 L770 723 L232 723 L232 600 ZM369 324 L423 324 L423 -16 L577 -16 L577 324 L631 324 L631 -16 L937 -16 L937 -69 L63 -69 L63 -16 L369 -16 L369 324 ZM889 280 Q831 141 756 44 L714 74 Q787 169 841 303 L889 280 ZM157 287 Q240 164 282 77 L240 47 Q190 147 113 259 L157 287 Z" /><glyph glyph-name="uni665A" unicode="&#x665a;" d="M412 542 L383 518 L348 560 Q480 662 558 821 L611 808 Q594 773 567 726 L823 726 L823 685 Q767 604 712 546 L897 546 L897 262 L730 262 L730 4 Q730 -30 765 -30 L836 -30 Q870 -30 882 -10 Q901 17 907 140 L955 125 Q946 -20 919 -53 Q897 -80 845 -80 L749 -80 Q679 -80 679 -6 L679 262 L656 262 L637 195 Q574 16 358 -95 L323 -53 Q516 46 582 199 Q590 223 601 262 L412 262 L412 542 ZM650 546 Q705 601 759 678 L535 678 Q483 607 416 546 L650 546 ZM847 312 L847 496 L682 496 Q680 393 666 312 L847 312 ZM612 312 Q627 396 630 496 L462 496 L462 312 L612 312 ZM322 733 L322 65 L141 65 L141 -22 L89 -22 L89 733 L322 733 ZM141 116 L271 116 L271 381 L141 381 L141 116 ZM141 433 L271 433 L271 682 L141 682 L141 433 Z" /><glyph glyph-name="uni6682" unicode="&#x6682;" d="M501 450 L501 404 Q404 394 346 390 L346 307 L295 307 L295 386 Q220 381 80 373 L73 421 Q192 427 295 433 L295 530 L101 530 L90 574 Q135 622 179 702 L60 702 L60 752 L204 752 L233 821 L287 812 L261 752 L515 752 L515 702 L236 702 Q194 625 154 575 L295 575 L295 646 L346 646 L346 575 L510 575 L510 530 L346 530 L346 437 L501 450 ZM633 530 Q618 402 552 307 L514 346 Q584 449 588 587 L588 737 Q768 754 876 804 L912 764 Q804 714 637 696 L637 579 L944 579 L944 530 L832 530 L832 305 L779 305 L779 530 L633 530 ZM824 270 L824 -98 L770 -98 L770 -55 L242 -55 L242 -98 L188 -98 L188 270 L824 270 ZM242 -8 L770 -8 L770 84 L242 84 L242 -8 ZM242 130 L770 130 L770 224 L242 224 L242 130 Z" /><glyph glyph-name="uni6697" unicode="&#x6697;" d="M881 332 L881 -100 L828 -100 L828 -48 L522 -48 L522 -102 L468 -102 L468 332 L881 332 ZM522 0 L828 0 L828 117 L522 117 L522 0 ZM522 164 L828 164 L828 284 L522 284 L522 164 ZM663 821 Q686 768 703 712 L928 712 L928 660 L841 660 Q825 564 790 477 L943 477 L943 425 L404 425 L404 477 L552 477 L509 660 L429 660 L429 712 L650 712 Q632 766 608 811 L663 821 ZM604 477 L739 477 Q777 564 792 660 L560 660 L604 477 ZM341 741 L341 22 L288 22 L288 80 L143 80 L143 0 L89 0 L89 741 L341 741 ZM143 132 L288 132 L288 383 L143 383 L143 132 ZM143 435 L288 435 L288 690 L143 690 L143 435 Z" /><glyph glyph-name="uni66B4" unicode="&#x66b4;" d="M334 521 L175 521 L175 786 L828 786 L828 521 L668 521 L668 452 L897 452 L897 409 L668 409 L668 332 L944 332 L944 285 L683 285 Q769 190 954 133 L932 86 Q813 129 733 185 Q682 140 618 108 L591 145 Q649 174 695 214 Q657 248 629 285 L379 285 Q349 246 310 213 Q367 177 407 143 L376 110 Q337 146 274 185 Q192 129 77 86 L50 132 Q235 192 321 285 L56 285 L56 332 L334 332 L334 409 L103 409 L103 452 L334 452 L334 521 ZM387 332 L615 332 L615 409 L387 409 L387 332 ZM387 452 L615 452 L615 521 L387 521 L387 452 ZM774 562 L774 633 L229 633 L229 562 L774 562 ZM229 673 L774 673 L774 743 L229 743 L229 673 ZM612 77 Q776 25 907 -46 L878 -90 Q739 -9 587 40 L612 77 ZM352 -95 L341 -48 Q395 -51 445 -51 Q480 -51 480 -21 L480 238 L534 238 L534 -33 Q534 -95 462 -95 L352 -95 ZM420 44 Q300 -23 120 -76 L100 -29 Q280 19 408 86 L420 44 Z" /><glyph glyph-name="uni66F2" unicode="&#x66f2;" d="M877 636 L877 -94 L824 -94 L824 -39 L176 -39 L176 -94 L123 -94 L123 636 L360 636 L360 817 L413 817 L413 636 L584 636 L584 817 L637 817 L637 636 L877 636 ZM176 14 L360 14 L360 284 L176 284 L176 14 ZM413 284 L413 14 L584 14 L584 284 L413 284 ZM637 284 L637 14 L824 14 L824 284 L637 284 ZM176 336 L360 336 L360 584 L176 584 L176 336 ZM413 584 L413 336 L584 336 L584 584 L413 584 ZM637 584 L637 336 L824 336 L824 584 L637 584 Z" /><glyph glyph-name="uni6700" unicode="&#x6700;" d="M62 421 L940 421 L940 375 L486 375 L486 44 L549 54 L549 10 L486 0 L486 -99 L434 -99 L434 -6 Q301 -22 74 -35 L67 13 L163 17 L163 375 L62 375 L62 421 ZM214 20 Q336 28 434 38 L434 117 L214 117 L214 20 ZM214 159 L434 159 L434 246 L214 246 L214 159 ZM214 288 L434 288 L434 375 L214 375 L214 288 ZM196 774 L811 774 L811 498 L196 498 L196 774 ZM758 540 L758 617 L247 617 L247 540 L758 540 ZM247 657 L758 657 L758 732 L247 732 L247 657 ZM547 250 L547 297 L882 297 L882 253 Q850 132 772 45 Q843 -9 940 -52 L912 -96 Q808 -47 738 11 Q665 -54 565 -97 L537 -55 Q633 -13 700 45 Q608 138 579 250 L547 250 ZM734 78 Q801 154 831 250 L627 250 Q657 152 734 78 Z" /><glyph glyph-name="uni2F49" unicode="&#x2f49;&#x6708;" d="M303 474 L303 277 L750 277 L750 474 L303 474 ZM750 525 L750 718 L303 718 L303 525 L750 525 ZM300 226 Q285 30 186 -98 L144 -60 Q247 74 250 285 L250 770 L804 770 L804 -11 Q804 -88 729 -88 L598 -88 L584 -36 Q676 -38 711 -38 Q750 -38 750 9 L750 226 L300 226 Z" /><glyph glyph-name="uni6709" unicode="&#x6709;" d="M340 465 L340 341 L756 341 L756 465 L340 465 ZM756 292 L340 292 L340 170 L756 170 L756 292 ZM756 121 L340 121 L340 -96 L289 -96 L289 447 Q198 330 79 235 L45 280 Q244 438 349 645 L71 645 L71 697 L374 697 Q399 753 420 820 L475 814 Q458 757 434 697 L940 697 L940 645 L411 645 Q377 576 336 513 L808 513 L808 -27 Q808 -92 732 -94 L620 -94 L607 -45 Q685 -47 715 -47 Q756 -47 756 -11 L756 121 Z" /><glyph glyph-name="uni670B" unicode="&#x670b;" d="M201 475 L201 296 L200 282 L409 282 L409 475 L201 475 ZM409 526 L409 719 L201 719 L201 526 L409 526 ZM197 230 Q182 32 99 -97 L57 -59 Q144 85 147 305 L147 771 L463 771 L463 -13 Q463 -86 385 -86 L278 -86 L264 -34 Q321 -37 368 -37 Q409 -37 409 6 L409 230 L197 230 ZM629 475 L629 282 L846 282 L846 475 L629 475 ZM846 526 L846 719 L629 719 L629 526 L846 526 ZM627 230 Q615 32 540 -97 L499 -59 Q573 77 576 291 L576 771 L901 771 L901 -11 Q901 -86 820 -86 L707 -86 L693 -34 Q753 -37 803 -37 Q846 -37 846 8 L846 230 L627 230 Z" /><glyph glyph-name="uni670D" unicode="&#x670d;" d="M174 483 L174 301 L352 301 L352 483 L174 483 ZM352 532 L352 716 L174 716 L174 532 L352 532 ZM173 250 Q166 39 105 -99 L63 -62 Q124 80 125 294 L125 767 L403 767 L403 -11 Q403 -95 325 -95 L245 -95 L232 -47 Q288 -49 309 -49 Q352 -49 352 7 L352 250 L173 250 ZM549 349 L549 -98 L498 -98 L498 767 L892 767 Q892 590 874 531 Q858 471 762 471 L685 471 L670 518 L737 518 Q776 518 795 524 Q814 530 824 554 Q837 595 838 717 L549 717 L549 398 L892 398 L892 352 Q860 189 786 79 Q858 7 958 -49 L932 -94 Q826 -33 756 38 Q689 -44 594 -95 L566 -52 Q659 1 720 76 Q618 196 582 349 L549 349 ZM629 349 Q662 220 750 117 Q814 216 843 349 L629 349 Z" /><glyph glyph-name="uni671F" unicode="&#x671f;" d="M134 813 L186 813 L186 695 L399 695 L399 811 L451 811 L451 695 L518 695 L518 644 L451 644 L451 202 L523 202 L523 152 L55 152 L55 202 L134 202 L134 644 L65 644 L65 695 L134 695 L134 813 ZM186 202 L399 202 L399 317 L186 317 L186 202 ZM399 644 L186 644 L186 528 L399 528 L399 644 ZM186 366 L399 366 L399 479 L186 479 L186 366 ZM362 114 Q433 26 475 -50 L430 -81 Q391 -7 320 87 L362 114 ZM230 95 Q172 -13 93 -93 L50 -63 Q128 12 185 117 L230 95 ZM645 480 L645 299 L644 282 L852 282 L852 480 L645 480 ZM852 530 L852 722 L645 722 L645 530 L852 530 ZM640 232 Q620 33 519 -97 L477 -60 Q587 86 590 313 L590 773 L907 773 L907 -2 Q907 -88 826 -88 L718 -88 L704 -36 Q780 -38 808 -38 Q852 -38 852 17 L852 232 L640 232 Z" /><glyph glyph-name="uni6726" unicode="&#x6726;" d="M147 480 L147 289 L273 289 L273 480 L147 480 ZM273 529 L273 720 L147 720 L147 529 L273 529 ZM146 239 Q137 33 82 -98 L42 -61 Q94 81 95 295 L95 771 L325 771 L325 -20 Q325 -92 252 -92 L184 -92 L171 -42 Q206 -45 235 -45 Q273 -45 273 -2 L273 239 L146 239 ZM922 617 L922 452 L872 452 L872 574 L448 574 L448 452 L397 452 L397 617 L529 617 L529 695 L375 695 L375 741 L529 741 L529 815 L580 815 L580 741 L741 741 L741 814 L792 814 L792 741 L945 741 L945 695 L792 695 L792 617 L922 617 ZM741 617 L741 695 L580 695 L580 617 L741 617 ZM510 504 L810 504 L810 463 L510 463 L510 504 ZM381 392 L937 392 L937 347 L657 347 L645 333 Q709 279 732 187 Q810 223 880 296 L912 263 Q861 211 811 180 Q865 45 963 -24 L931 -61 Q830 18 776 161 Q752 149 740 144 Q745 107 745 72 Q745 -43 709 -70 Q678 -90 621 -93 L577 -94 L562 -50 L615 -50 Q650 -49 673 -32 Q696 -11 696 72 Q696 88 694 110 Q564 -10 392 -76 L365 -36 Q555 30 688 157 Q680 194 667 222 Q568 122 404 59 L381 101 Q553 161 647 257 Q631 280 609 299 Q534 236 412 191 L387 232 Q535 279 603 347 L381 347 L381 392 Z" /><glyph glyph-name="uni672C" unicode="&#x672c;" d="M74 625 L473 625 L473 812 L527 812 L527 625 L925 625 L925 572 L584 572 Q688 323 955 129 L919 82 Q644 301 540 572 L527 572 L527 166 L749 166 L749 113 L527 113 L527 -98 L473 -98 L473 113 L259 113 L259 166 L473 166 L473 572 L459 572 Q349 266 71 70 L40 119 Q305 295 416 572 L74 572 L74 625 Z" /><glyph glyph-name="uni672F" unicode="&#x672f;" d="M78 571 L473 571 L473 817 L527 817 L527 571 L923 571 L923 520 L588 520 Q689 257 952 54 L916 9 Q641 236 537 520 L527 520 L527 -96 L473 -96 L473 520 L463 520 Q352 202 74 1 L44 48 Q302 230 413 520 L78 520 L78 571 ZM687 815 Q782 717 830 647 L787 617 Q736 693 644 788 L687 815 Z" /><glyph glyph-name="uni6743" unicode="&#x6743;" d="M278 -94 L224 -94 L224 458 Q168 287 64 148 L40 208 Q169 363 223 560 L61 560 L61 613 L224 613 L224 814 L278 814 L278 613 L417 613 L417 560 L278 560 L278 497 Q356 421 435 325 L403 278 Q332 376 278 440 L278 -94 ZM540 695 Q558 449 680 252 Q798 441 836 695 L540 695 ZM649 206 Q509 423 488 695 L445 695 L445 748 L889 748 L889 696 Q844 407 713 203 Q808 64 961 -49 L925 -92 Q780 21 682 158 Q576 10 416 -93 L381 -50 Q544 58 649 206 Z" /><glyph glyph-name="uni675F" unicode="&#x675f;" d="M74 706 L473 706 L473 812 L527 812 L527 706 L924 706 L924 653 L527 653 L527 540 L845 540 L845 272 L580 272 Q689 108 959 -17 L921 -63 Q643 87 535 272 L527 272 L527 -97 L473 -97 L473 272 L465 272 Q350 64 73 -68 L43 -18 Q306 95 420 272 L157 272 L157 540 L473 540 L473 653 L74 653 L74 706 ZM791 322 L791 489 L527 489 L527 322 L791 322 ZM473 322 L473 489 L211 489 L211 322 L473 322 Z" /><glyph glyph-name="uni6765" unicode="&#x6765;" d="M245 589 Q295 511 341 416 L295 392 Q249 489 197 565 L245 589 ZM67 317 L67 370 L473 370 L473 637 L106 637 L106 690 L473 690 L473 811 L527 811 L527 690 L903 690 L903 637 L527 637 L527 370 L639 370 Q701 476 746 597 L799 579 Q749 455 692 370 L931 370 L931 317 L584 317 Q692 135 957 -5 L920 -51 Q646 114 539 317 L527 317 L527 -96 L473 -96 L473 317 L460 317 Q367 102 70 -51 L40 -3 Q323 135 415 317 L67 317 Z" /><glyph glyph-name="uni679C" unicode="&#x679c;" d="M173 770 L822 770 L822 397 L527 397 L527 291 L929 291 L929 240 L583 240 Q688 94 951 -20 L913 -66 Q643 72 538 240 L527 240 L527 -98 L473 -98 L473 240 L462 240 Q350 54 79 -66 L49 -17 Q307 83 418 240 L71 240 L71 291 L473 291 L473 397 L173 397 L173 770 ZM767 444 L767 558 L527 558 L527 444 L767 444 ZM473 444 L473 558 L227 558 L227 444 L473 444 ZM227 606 L473 606 L473 721 L227 721 L227 606 ZM527 721 L527 606 L767 606 L767 721 L527 721 Z" /><glyph glyph-name="uni67D4" unicode="&#x67d4;" d="M184 771 L785 771 L785 730 Q689 650 569 591 L892 591 L892 547 Q824 450 728 373 L687 409 Q762 465 828 541 L571 541 L571 397 Q571 322 491 322 L376 322 L365 371 Q441 367 473 367 Q519 367 519 409 L519 541 L483 541 Q381 412 92 319 L63 366 Q335 442 431 541 L104 541 L104 591 L480 591 Q414 634 316 683 L349 714 Q455 663 525 614 Q629 663 707 723 L184 723 L184 771 ZM76 217 L475 217 L475 297 L529 297 L529 217 L927 217 L927 165 L595 165 Q703 42 945 -30 L923 -78 Q655 15 548 165 L529 165 L529 -98 L475 -98 L475 165 L457 165 Q361 21 80 -82 L51 -34 Q317 53 411 165 L76 165 L76 217 Z" /><glyph glyph-name="uni6821" unicode="&#x6821;" d="M64 615 L207 615 L207 813 L260 813 L260 615 L372 615 L372 562 L260 562 L260 476 Q328 389 397 282 L367 238 Q306 353 260 426 L260 -93 L207 -93 L207 451 Q155 286 63 157 L39 215 Q157 367 205 562 L64 562 L64 615 ZM403 680 L658 680 Q628 758 595 816 L650 826 Q681 767 711 680 L935 680 L935 626 L403 626 L403 680 ZM579 552 Q509 404 418 300 L375 330 Q467 432 533 574 L579 552 ZM779 577 Q888 441 949 338 L904 306 Q844 414 736 551 L779 577 ZM813 382 Q783 216 704 106 Q803 15 957 -46 L929 -94 Q770 -30 670 64 Q566 -52 397 -99 L366 -52 Q533 -7 631 103 Q530 218 504 371 L551 385 Q572 249 664 146 Q735 247 761 393 L813 382 Z" /><glyph glyph-name="uni6837" unicode="&#x6837;" d="M636 575 L405 575 L405 626 L710 626 Q764 717 799 816 L851 798 Q813 704 762 626 L925 626 L925 575 L690 575 L690 411 L896 411 L896 360 L690 360 L690 192 L952 192 L952 140 L690 140 L690 -107 L636 -107 L636 140 L381 140 L381 192 L636 192 L636 360 L436 360 L436 411 L636 411 L636 575 ZM254 -98 L201 -98 L201 453 Q153 293 68 165 L40 212 Q149 365 195 560 L70 560 L70 613 L201 613 L201 813 L254 813 L254 613 L360 613 L360 560 L254 560 L254 488 Q319 417 385 327 L356 284 Q294 379 254 429 L254 -98 ZM515 810 Q561 741 604 655 L559 633 Q519 717 469 788 L515 810 Z" /><glyph glyph-name="uni6838" unicode="&#x6838;" d="M253 -97 L200 -97 L200 432 Q148 261 64 127 L41 183 Q153 349 199 561 L56 561 L56 612 L200 612 L200 813 L253 813 L253 612 L377 612 L377 561 L253 561 L253 488 Q325 401 404 287 L374 242 Q298 368 253 429 L253 -97 ZM407 700 L665 700 Q646 752 616 806 L670 816 Q697 763 718 700 L943 700 L943 649 L670 649 Q576 486 513 428 Q653 436 722 441 Q763 499 793 558 L838 534 Q686 237 396 129 L366 175 Q559 244 685 393 L447 381 L435 427 Q445 431 446 432 Q510 473 613 649 L407 649 L407 700 ZM724 113 Q579 -19 383 -88 L352 -41 Q707 75 888 410 L934 386 Q860 249 758 146 Q872 47 949 -52 L910 -91 Q840 8 724 113 Z" /><glyph glyph-name="uni6839" unicode="&#x6839;" d="M500 360 L500 -13 Q594 11 691 52 L703 3 Q603 -40 438 -83 L426 -37 Q447 -28 447 -10 L447 770 L869 770 L869 360 L680 360 Q699 258 747 175 Q827 214 897 298 L933 263 Q862 179 772 135 Q842 32 959 -40 L929 -87 Q682 74 631 360 L500 360 ZM62 613 L202 613 L202 807 L255 807 L255 613 L382 613 L382 560 L255 560 L255 501 Q325 419 401 310 L370 263 Q302 383 255 450 L255 -93 L202 -93 L202 438 Q151 277 61 148 L38 205 Q152 360 201 560 L62 560 L62 613 ZM500 538 L500 409 L816 409 L816 538 L500 538 ZM816 586 L816 719 L500 719 L500 586 L816 586 Z" /><glyph glyph-name="uni6843" unicode="&#x6843;" d="M244 -94 L190 -94 L190 435 Q142 274 63 147 L39 205 Q145 361 189 561 L58 561 L58 612 L190 612 L190 814 L244 814 L244 612 L342 612 L342 561 L244 561 L244 495 Q306 423 374 327 L345 284 Q279 389 244 437 L244 -94 ZM537 811 L588 811 L588 368 Q584 45 394 -104 L352 -67 Q517 56 535 317 Q464 239 365 180 L335 229 Q448 286 537 385 L537 811 ZM936 678 Q879 547 806 454 L763 484 Q835 574 888 701 L936 678 ZM742 22 Q742 -36 786 -36 L828 -36 Q865 -36 878 -15 Q897 13 904 140 L952 125 Q943 -23 915 -57 Q891 -84 838 -84 L770 -84 Q688 -84 688 11 L688 811 L742 811 L742 411 Q856 337 948 237 L917 190 Q828 293 742 354 L742 22 ZM408 689 Q461 588 514 458 L471 437 Q422 562 362 667 L408 689 Z" /><glyph glyph-name="uni68B5" unicode="&#x68b5;" d="M404 189 Q505 111 571 36 L534 -2 Q473 73 368 155 L404 189 ZM734 385 L680 385 L680 643 Q605 501 497 410 L467 454 Q584 544 653 668 L516 668 L516 720 L680 720 L680 813 L734 813 L734 720 L925 720 L925 668 L766 668 Q819 546 948 450 L914 407 Q785 519 734 658 L734 385 ZM72 721 L249 721 L249 813 L302 813 L302 721 L465 721 L465 669 L302 669 L302 642 Q380 580 451 506 L421 461 Q356 544 302 600 L302 386 L249 386 L249 610 Q181 492 90 413 L59 457 Q172 544 240 669 L72 669 L72 721 ZM267 338 L691 338 L691 16 Q691 -31 730 -31 L808 -31 Q836 -31 851 -16 Q871 1 883 148 L934 132 Q923 -2 903 -40 Q882 -82 817 -82 L716 -82 Q638 -82 638 4 L638 287 L320 287 L320 241 Q314 -28 98 -93 L68 -48 Q267 12 267 248 L267 338 Z" /><glyph glyph-name="uni6B21" unicode="&#x6b21;" d="M499 604 Q451 470 373 383 L328 416 Q458 561 494 819 L548 810 Q537 730 516 657 L907 657 L907 621 Q874 487 821 356 L765 373 Q818 479 847 604 L499 604 ZM104 785 Q225 640 283 540 L238 508 Q173 618 57 756 L104 785 ZM288 350 Q206 118 113 -74 L57 -50 Q160 152 238 370 L288 350 ZM651 524 Q651 431 640 346 Q732 94 957 -52 L918 -97 Q719 44 623 254 Q609 201 606 193 Q543 14 333 -99 L296 -54 Q485 45 548 198 Q595 326 597 524 L651 524 Z" /><glyph glyph-name="uni6B22" unicode="&#x6b22;" d="M621 815 Q609 727 591 654 L916 654 L916 618 Q893 491 851 362 L797 377 Q836 477 860 601 L575 601 Q539 488 481 411 L437 442 Q540 582 567 824 L621 815 ZM395 69 Q328 171 285 231 Q202 51 71 -51 L44 -4 Q175 99 252 276 Q154 408 66 503 L103 538 Q186 452 275 334 Q323 469 347 642 L59 642 L59 694 L400 694 L400 644 Q368 440 309 288 Q369 206 435 108 L395 69 ZM711 522 Q711 424 700 336 Q774 93 952 -51 L915 -94 Q758 44 683 244 L670 194 Q616 18 426 -94 L391 -52 Q558 46 615 198 Q658 330 658 522 L711 522 Z" /><glyph glyph-name="uni6B4C" unicode="&#x6b4c;" d="M97 238 L329 238 L329 50 L97 50 L97 238 ZM283 89 L283 200 L144 200 L144 89 L283 89 ZM651 805 Q642 730 630 668 L909 668 L909 633 Q888 499 852 368 L801 382 Q836 490 857 616 L618 616 Q585 482 528 396 L485 427 Q575 566 599 813 L651 805 ZM402 718 L75 718 L75 768 L508 768 L508 718 L454 718 L454 420 L402 420 L402 718 ZM98 635 L327 635 L327 454 L98 454 L98 635 ZM281 491 L281 598 L144 598 L144 491 L281 491 ZM284 -95 L273 -46 Q333 -50 360 -50 Q405 -50 405 -3 L405 320 L58 320 L58 369 L529 369 L529 320 L456 320 L456 -15 Q456 -95 378 -95 L284 -95 ZM731 510 Q731 417 723 329 Q792 86 957 -55 L921 -97 Q780 35 708 227 L699 185 Q654 9 505 -99 L472 -57 Q601 39 646 189 Q679 317 679 510 L731 510 Z" /><glyph glyph-name="uni6B63" unicode="&#x6b63;" d="M502 704 L116 704 L116 757 L902 757 L902 704 L555 704 L555 394 L852 394 L852 341 L555 341 L555 3 L944 3 L944 -50 L57 -50 L57 3 L220 3 L220 494 L274 494 L274 3 L502 3 L502 704 Z" /><glyph glyph-name="uni6B64" unicode="&#x6b64;" d="M327 786 L380 786 L380 486 L543 486 L543 434 L380 434 L380 66 Q483 94 548 116 L548 61 Q329 -12 41 -57 L33 -3 Q97 7 129 13 L129 618 L183 618 L183 23 Q258 38 327 53 L327 786 ZM947 576 Q824 477 663 410 L663 44 Q663 -11 718 -11 L799 -11 Q845 -11 865 15 Q890 49 899 209 L950 193 Q938 11 903 -31 Q875 -64 810 -64 L701 -64 Q609 -64 609 32 L609 802 L663 802 L663 465 Q801 526 915 620 L947 576 Z" /><glyph glyph-name="uni6BCF" unicode="&#x6bcf;" d="M257 673 Q183 553 91 468 L55 510 Q192 633 271 820 L325 808 Q305 761 286 726 L915 726 L915 673 L257 673 ZM417 260 Q527 220 617 160 L591 120 Q495 185 392 223 L417 260 ZM174 49 Q197 168 210 292 L43 292 L43 344 L215 344 Q226 466 229 576 L837 576 L830 344 L959 344 L959 292 L828 292 L818 100 L933 100 L933 49 L814 49 Q810 8 806 -7 Q793 -53 755 -77 Q717 -97 645 -97 L533 -97 L517 -47 Q605 -49 638 -49 Q675 -49 707 -41 Q739 -31 754 8 Q759 22 761 49 L174 49 ZM765 100 L775 292 L264 292 Q252 187 237 100 L765 100 ZM777 344 L783 525 L280 525 Q277 452 269 344 L777 344 ZM426 495 Q533 455 623 395 L597 356 Q500 421 401 458 L426 495 Z" /><glyph glyph-name="uni2F50" unicode="&#x2f50;&#x6bd4;" d="M191 455 L191 -12 Q317 16 462 64 L476 13 Q311 -39 132 -79 L115 -28 Q136 -16 136 4 L136 792 L191 792 L191 509 L455 509 L455 455 L191 455 ZM624 -70 Q538 -70 538 29 L538 802 L591 802 L591 473 Q741 515 892 596 L923 552 Q749 463 591 421 L591 39 Q591 -16 639 -16 L793 -16 Q826 -16 847 0 Q877 30 884 181 L935 164 Q923 -2 890 -39 Q862 -68 806 -70 L624 -70 Z" /><glyph glyph-name="uni2EA0" unicode="&#x2ea0;&#x6c11;" d="M212 284 L212 -17 Q352 10 488 58 L500 6 Q354 -42 152 -82 L139 -32 Q158 -22 158 -4 L158 771 L863 771 L863 494 L572 494 Q578 406 593 336 L926 336 L926 284 L605 284 Q619 233 636 192 Q687 75 746 19 Q801 -30 846 -30 Q866 -30 881 -1 Q897 30 909 138 L957 112 Q939 -15 914 -50 Q889 -87 857 -87 Q789 -86 716 -19 Q642 52 589 178 Q570 221 554 284 L212 284 ZM212 494 L212 336 L542 336 Q526 409 518 494 L212 494 ZM809 719 L212 719 L212 546 L809 546 L809 719 Z" /><glyph glyph-name="uni2F53" unicode="&#x2f53;&#x6c14;" d="M252 664 Q184 542 89 449 L53 490 Q187 621 265 820 L319 807 Q295 748 279 716 L875 716 L875 664 L252 664 ZM851 -95 Q776 -93 743 -19 Q707 56 707 288 L707 354 L136 354 L136 405 L758 405 L758 288 Q758 78 781 22 Q802 -36 845 -36 Q868 -36 886 18 Q897 64 913 140 L958 118 Q937 -8 908 -54 Q882 -95 851 -95 ZM247 561 L823 561 L823 510 L247 510 L247 561 Z" /><glyph glyph-name="uni2F54" unicode="&#x2f54;&#x6c34;" d="M70 554 L391 554 L391 511 Q310 179 77 8 L44 53 Q256 210 336 502 L70 502 L70 554 ZM892 620 Q771 472 642 374 Q762 175 958 46 L924 -4 Q646 201 535 485 L535 -10 Q535 -93 455 -93 L325 -93 L313 -41 Q399 -45 436 -45 Q481 -45 481 4 L481 819 L535 819 L535 614 Q567 510 618 416 Q743 517 848 652 L892 620 Z" /><glyph glyph-name="uni6C47" unicode="&#x6c47;" d="M446 -9 L940 -9 L940 -64 L391 -64 L391 768 L931 768 L931 714 L446 714 L446 -9 ZM115 796 Q234 715 314 636 L275 597 Q199 676 76 758 L115 796 ZM97 548 Q208 473 282 399 L243 361 Q172 434 59 510 L97 548 ZM280 238 Q214 69 126 -93 L71 -69 Q162 89 231 258 L280 238 Z" /><glyph glyph-name="uni6C49" unicode="&#x6c49;" d="M123 800 Q237 715 311 632 L272 593 Q206 670 85 762 L123 800 ZM99 562 Q210 484 285 406 L247 368 Q182 438 60 525 L99 562 ZM306 268 Q230 74 138 -94 L85 -70 Q186 107 257 288 L306 268 ZM923 -91 Q759 24 656 154 Q533 4 354 -93 L319 -50 Q502 46 623 197 Q465 415 441 687 L359 687 L359 740 L889 740 L889 692 Q835 399 688 196 Q794 63 961 -49 L923 -91 ZM655 239 Q785 423 834 687 L493 687 Q512 439 655 239 Z" /><glyph glyph-name="uni6C5F" unicode="&#x6c5f;" d="M616 693 L359 693 L359 745 L919 745 L919 693 L669 693 L669 -6 L953 -6 L953 -58 L310 -58 L310 -6 L616 -6 L616 693 ZM115 795 Q228 719 303 645 L265 607 Q197 678 76 758 L115 795 ZM87 558 Q201 479 275 402 L237 365 Q170 438 49 522 L87 558 ZM286 276 Q210 82 118 -86 L67 -64 Q169 116 239 295 L286 276 Z" /><glyph glyph-name="uni6C99" unicode="&#x6c99;" d="M889 337 Q754 -1 352 -100 L323 -52 Q716 42 843 366 L889 337 ZM788 716 Q877 587 961 422 L913 398 Q833 561 742 693 L788 716 ZM511 681 Q454 415 349 272 L308 310 Q411 460 460 694 L511 681 ZM607 812 L661 812 L661 212 L607 212 L607 812 ZM108 795 Q216 718 293 636 L255 597 Q183 675 69 757 L108 795 ZM90 550 Q195 472 263 397 L224 358 Q164 428 52 512 L90 550 ZM272 255 Q202 65 120 -95 L66 -71 Q156 97 223 275 L272 255 Z" /><glyph glyph-name="uni6CA1" unicode="&#x6ca1;" d="M117 797 Q220 723 293 646 L255 608 Q190 679 78 759 L117 797 ZM89 557 Q186 483 255 407 L217 368 Q158 438 50 519 L89 557 ZM277 268 Q211 86 123 -86 L70 -63 Q163 111 228 288 L277 268 ZM348 323 L348 375 L867 375 L867 326 Q804 177 669 72 Q792 -10 963 -54 L936 -102 Q747 -50 625 40 Q499 -44 323 -98 L296 -49 Q466 0 582 74 Q461 178 409 323 L348 323 ZM626 104 Q751 196 807 323 L461 323 Q517 194 626 104 ZM447 771 L788 771 L788 548 Q788 513 830 513 L943 513 L943 461 L819 461 Q734 461 734 539 L734 720 L500 720 L500 668 Q500 508 344 419 L307 460 Q447 532 447 663 L447 771 Z" /><glyph glyph-name="uni6CB3" unicode="&#x6cb3;" d="M111 789 Q213 716 287 639 L249 600 Q184 671 72 751 L111 789 ZM93 544 Q193 470 257 399 L218 361 Q160 428 54 506 L93 544 ZM269 261 Q204 72 120 -98 L66 -74 Q155 97 220 281 L269 261 ZM317 750 L953 750 L953 697 L871 697 L871 -6 Q871 -94 782 -94 L625 -94 L614 -42 Q718 -46 763 -46 Q817 -46 817 8 L817 697 L317 697 L317 750 ZM365 527 L668 527 L668 173 L365 173 L365 527 ZM617 223 L617 477 L416 477 L416 223 L617 223 Z" /><glyph glyph-name="uni6CB9" unicode="&#x6cb9;" d="M908 630 L908 -93 L856 -93 L856 -29 L409 -29 L409 -92 L357 -92 L357 630 L606 630 L606 812 L660 812 L660 630 L908 630 ZM409 23 L606 23 L606 283 L409 283 L409 23 ZM660 283 L660 23 L856 23 L856 283 L660 283 ZM409 333 L606 333 L606 578 L409 578 L409 333 ZM660 578 L660 333 L856 333 L856 578 L660 578 ZM125 799 Q233 723 305 646 L266 607 Q200 681 87 762 L125 799 ZM100 558 Q207 482 278 406 L239 368 Q172 441 61 521 L100 558 ZM276 276 Q209 86 127 -86 L77 -64 Q167 117 228 295 L276 276 Z" /><glyph glyph-name="uni6CEA" unicode="&#x6cea;" d="M118 800 Q244 716 321 639 L282 600 Q208 676 79 762 L118 800 ZM93 565 Q212 485 292 403 L252 364 Q182 438 55 528 L93 565 ZM301 268 Q229 79 136 -91 L81 -67 Q181 108 252 288 L301 268 ZM895 759 L895 -81 L841 -81 L841 -15 L451 -15 L451 -82 L397 -82 L397 759 L895 759 ZM451 38 L841 38 L841 228 L451 228 L451 38 ZM451 279 L841 279 L841 465 L451 465 L451 279 ZM451 517 L841 517 L841 705 L451 705 L451 517 Z" /><glyph glyph-name="uni6CFD" unicode="&#x6cfd;" d="M372 771 L864 771 L864 724 Q813 601 686 518 Q800 461 965 440 L946 392 Q759 419 638 488 Q523 424 351 381 L324 428 Q476 463 588 519 Q478 598 430 721 L372 721 L372 771 ZM482 721 Q527 614 635 546 Q754 621 806 721 L482 721 ZM388 309 L613 309 L613 390 L664 390 L664 309 L888 309 L888 260 L664 260 L664 132 L943 132 L943 79 L664 79 L664 -96 L613 -96 L613 79 L332 79 L332 132 L613 132 L613 260 L388 260 L388 309 ZM118 805 Q238 721 320 636 L281 597 Q208 676 79 768 L118 805 ZM93 571 Q204 490 286 402 L248 364 Q174 446 55 534 L93 571 ZM303 271 Q222 74 130 -85 L77 -62 Q176 106 255 291 L303 271 Z" /><glyph glyph-name="uni6D3B" unicode="&#x6d3b;" d="M312 519 L604 519 L604 693 Q487 681 351 681 L333 730 Q665 732 875 805 L903 759 Q803 722 659 700 L659 519 L954 519 L954 466 L659 466 L659 291 L887 291 L887 -97 L833 -97 L833 -41 L433 -41 L433 -100 L379 -100 L379 291 L604 291 L604 466 L312 466 L312 519 ZM433 11 L833 11 L833 240 L433 240 L433 11 ZM118 797 Q220 733 295 664 L258 627 Q191 692 80 762 L118 797 ZM97 559 Q200 485 272 409 L234 371 Q172 441 58 522 L97 559 ZM283 280 Q211 78 131 -86 L78 -63 Q169 116 234 299 L283 280 Z" /><glyph glyph-name="uni6D41" unicode="&#x6d41;" d="M339 453 Q353 460 350 458 Q410 496 506 656 L318 656 L318 706 L606 706 Q585 763 556 817 L611 827 Q637 775 660 706 L927 706 L927 656 L562 656 Q485 519 425 457 Q634 470 800 489 Q767 536 726 587 L769 615 Q868 494 923 399 L878 368 Q862 397 831 444 Q631 422 351 406 L339 453 ZM121 798 Q214 734 282 666 L243 627 Q179 695 82 760 L121 798 ZM97 561 Q190 490 261 410 L222 371 Q163 442 58 524 L97 561 ZM263 280 Q206 89 132 -86 L83 -64 Q158 109 216 299 L263 280 ZM562 352 L617 352 L617 -77 L562 -77 L562 352 ZM452 352 Q446 158 413 66 Q378 -28 292 -97 L258 -54 Q333 6 364 89 Q393 170 399 352 L452 352 ZM811 -88 Q735 -88 735 -16 L735 351 L787 351 L787 -8 Q787 -36 811 -38 L862 -38 Q892 -36 898 -7 Q904 29 904 113 L952 95 Q952 -29 935 -58 Q919 -85 864 -88 L811 -88 Z" /><glyph glyph-name="uni6D77" unicode="&#x6d77;&#xfa45;" d="M427 679 Q370 584 302 519 L267 561 Q372 662 436 821 L489 808 Q475 774 454 730 L928 730 L928 679 L427 679 ZM255 348 L366 348 Q378 464 381 583 L876 583 L867 348 L957 348 L957 297 L865 297 L855 100 L941 100 L941 51 L851 51 Q845 6 842 -5 Q827 -52 785 -76 Q743 -96 664 -96 L582 -96 L566 -47 Q632 -49 656 -49 Q699 -49 737 -41 Q774 -29 791 9 Q795 21 799 51 L322 51 Q346 171 361 297 L255 297 L255 348 ZM412 297 Q400 191 382 100 L803 100 Q806 142 814 297 L412 297 ZM816 348 L823 535 L429 535 Q424 434 417 348 L816 348 ZM569 506 Q647 454 697 404 L662 369 Q614 418 534 473 L569 506 ZM561 269 Q634 215 686 157 L651 122 Q605 175 526 236 L561 269 ZM107 794 Q203 730 264 671 L225 633 Q170 690 68 756 L107 794 ZM92 550 Q185 487 248 424 L210 385 Q150 447 54 513 L92 550 ZM255 246 Q194 77 113 -84 L62 -62 Q142 89 208 264 L255 246 Z" /><glyph glyph-name="uni6DCB" unicode="&#x6dcb;" d="M91 781 Q196 707 262 638 L225 602 Q161 671 54 745 L91 781 ZM74 554 Q171 479 236 406 L198 369 Q137 441 36 518 L74 554 ZM225 232 Q167 59 99 -91 L49 -68 Q125 93 177 251 L225 232 ZM604 612 L726 612 L726 812 L778 812 L778 612 L934 612 L934 561 L804 561 Q859 302 963 130 L928 83 Q837 254 778 536 L778 -98 L726 -98 L726 521 Q660 235 559 69 L528 118 Q641 286 703 561 L604 561 L604 612 ZM270 612 L399 612 L399 813 L451 813 L451 612 L564 612 L564 561 L451 561 L451 489 Q516 410 584 305 L553 259 Q493 370 451 436 L451 -98 L399 -98 L399 446 Q351 288 268 159 L245 216 Q354 366 399 561 L270 561 L270 612 Z" /><glyph glyph-name="uni6DF1" unicode="&#x6df1;" d="M123 800 Q235 723 316 642 L277 603 Q204 679 84 762 L123 800 ZM99 565 Q209 484 281 406 L243 368 Q173 446 60 528 L99 565 ZM304 268 Q230 86 134 -88 L81 -65 Q179 103 256 288 L304 268 ZM358 280 L358 332 L605 332 L605 453 L659 453 L659 332 L917 332 L917 280 L719 280 Q788 132 954 14 L919 -30 Q744 109 675 280 L659 280 L659 -94 L605 -94 L605 280 L589 280 Q511 86 326 -39 L298 8 Q470 114 545 280 L358 280 ZM905 771 L905 593 L853 593 L853 720 L413 720 L413 591 L361 591 L361 771 L905 771 ZM584 626 Q515 488 402 416 L363 450 Q479 523 538 644 L584 626 ZM710 649 Q824 537 882 450 L839 420 Q776 515 670 624 L710 649 Z" /><glyph glyph-name="uni6E05" unicode="&#x6e05;" d="M129 804 Q228 732 287 667 L249 628 Q187 696 91 766 L129 804 ZM95 561 Q197 486 267 408 L228 370 Q164 443 56 524 L95 561 ZM265 266 Q204 80 127 -86 L77 -64 Q155 98 217 284 L265 266 ZM597 815 L651 815 L651 747 L924 747 L924 701 L651 701 L651 622 L886 622 L886 576 L651 576 L651 496 L951 496 L951 449 L300 449 L300 496 L597 496 L597 576 L372 576 L372 622 L597 622 L597 701 L331 701 L331 747 L597 747 L597 815 ZM452 194 L452 111 L799 111 L799 194 L452 194 ZM799 237 L799 324 L452 324 L452 237 L799 237 ZM452 67 L452 -97 L401 -97 L401 370 L851 370 L851 -23 Q851 -92 782 -92 L686 -92 L673 -43 L766 -46 Q799 -46 799 -13 L799 67 L452 67 Z" /><glyph glyph-name="uni6E56" unicode="&#x6e56;" d="M694 480 L694 284 L865 284 L865 480 L694 480 ZM865 529 L865 724 L694 724 L694 529 L865 529 ZM692 235 Q678 34 595 -94 L556 -59 Q641 80 644 294 L644 773 L915 773 L915 -27 Q915 -95 847 -95 L761 -95 L747 -47 Q807 -49 832 -49 Q865 -49 865 -10 L865 235 L692 235 ZM105 791 Q205 717 268 649 L230 611 Q171 679 68 756 L105 791 ZM87 556 Q183 483 249 409 L212 371 Q151 443 50 520 L87 556 ZM249 274 Q189 87 112 -83 L63 -61 Q140 106 202 292 L249 274 ZM566 355 L566 24 L348 24 L348 -39 L299 -39 L299 355 L410 355 L410 557 L272 557 L272 608 L410 608 L410 786 L461 786 L461 608 L598 608 L598 557 L461 557 L461 355 L566 355 ZM348 71 L517 71 L517 308 L348 308 L348 71 Z" /><glyph glyph-name="uni6EF4" unicode="&#x6ef4;" d="M113 801 Q220 726 285 659 L247 621 Q185 686 74 763 L113 801 ZM89 559 Q197 484 268 410 L229 372 Q162 444 51 522 L89 559 ZM279 273 Q203 71 116 -99 L62 -75 Q161 107 230 293 L279 273 ZM612 489 L411 489 L411 -97 L362 -97 L362 536 L498 536 Q473 593 436 643 L486 662 Q520 613 551 536 L702 536 Q741 599 770 669 L822 651 Q791 584 757 536 L906 536 L906 -5 Q906 -95 812 -95 L715 -95 L701 -47 L796 -49 Q857 -49 857 6 L857 489 L660 489 L660 374 L790 374 L790 329 L660 329 L660 233 L760 233 L760 17 L510 17 L510 233 L612 233 L612 329 L480 329 L480 374 L612 374 L612 489 ZM715 60 L715 191 L555 191 L555 60 L715 60 ZM623 825 Q647 779 664 734 L941 734 L941 685 L320 685 L320 734 L609 734 Q590 779 567 815 L623 825 Z" /><glyph glyph-name="uni6F13" unicode="&#x6f13;" d="M307 739 L601 739 Q578 783 552 814 L607 824 Q632 788 656 739 L941 739 L941 690 L307 690 L307 739 ZM825 416 L825 629 L876 629 L876 368 L655 368 Q639 318 625 282 L927 282 L927 -19 Q927 -95 851 -95 L752 -95 L738 -46 L835 -49 Q876 -49 876 -8 L876 233 L606 233 Q560 120 516 64 Q640 82 713 100 Q687 150 669 177 L712 192 Q766 111 803 17 L757 6 L734 59 Q610 31 461 11 L453 60 Q500 92 554 233 L392 233 L392 -96 L339 -96 L339 282 L572 282 L600 368 L374 368 L374 630 L425 630 L425 416 L825 416 ZM505 648 Q584 607 639 572 Q693 616 729 671 L765 644 Q729 591 679 547 Q731 514 777 477 L743 444 Q692 486 642 518 Q577 474 491 443 L474 483 Q542 506 601 544 Q536 586 474 618 L505 648 ZM268 266 Q204 80 125 -83 L74 -61 Q160 110 220 284 L268 266 ZM121 801 Q214 728 276 657 L237 619 Q181 687 82 763 L121 801 ZM97 559 Q196 484 261 410 L222 371 Q163 442 58 521 L97 559 Z" /><glyph glyph-name="uni6F14" unicode="&#x6f14;" d="M934 736 L934 559 L880 559 L880 686 L380 686 L380 560 L325 560 L325 736 L596 736 Q580 782 565 811 L619 821 Q638 778 651 736 L934 736 ZM395 593 L863 593 L863 545 L655 545 L655 460 L892 460 L892 111 L366 111 L366 460 L603 460 L603 545 L395 545 L395 593 ZM839 158 L839 262 L655 262 L655 158 L839 158 ZM603 158 L603 262 L419 262 L419 158 L603 158 ZM419 307 L603 307 L603 413 L419 413 L419 307 ZM655 413 L655 307 L839 307 L839 413 L655 413 ZM725 71 Q855 20 961 -52 L930 -99 Q815 -16 697 30 L725 71 ZM568 36 Q468 -42 322 -98 L290 -55 Q432 -1 529 71 L568 36 ZM105 797 Q216 721 287 649 L249 611 Q179 683 66 759 L105 797 ZM86 554 Q191 478 258 407 L219 368 Q157 437 48 516 L86 554 ZM282 272 Q210 87 116 -88 L65 -66 Q161 105 234 291 L282 272 Z" /><glyph glyph-name="uni6F2B" unicode="&#x6f2b;" d="M115 803 Q219 730 288 662 L250 624 Q189 689 78 768 L115 803 ZM93 556 Q189 487 256 415 L218 377 Q160 443 57 521 L93 556 ZM258 259 Q199 87 116 -85 L65 -63 Q150 106 211 278 L258 259 ZM388 790 L843 790 L843 524 L388 524 L388 790 ZM790 566 L790 638 L441 638 L441 566 L790 566 ZM441 678 L790 678 L790 748 L441 748 L441 678 ZM326 471 L904 471 L904 277 L326 277 L326 471 ZM854 319 L854 428 L725 428 L725 319 L854 319 ZM677 319 L677 428 L556 428 L556 319 L677 319 ZM508 319 L508 428 L375 428 L375 319 L508 319 ZM323 166 L323 214 L875 214 L875 172 Q796 83 683 23 Q799 -20 959 -47 L929 -92 Q751 -58 627 -4 Q486 -65 303 -93 L278 -45 Q443 -22 567 25 Q454 85 383 166 L323 166 ZM622 48 Q728 98 802 166 L439 166 Q510 98 622 48 Z" /><glyph glyph-name="uni6FC0" unicode="&#x6fc0;" d="M290 724 L387 724 Q405 769 414 817 L466 810 Q457 766 440 724 L577 724 L577 420 L430 420 L464 324 L609 324 L609 278 L403 278 Q402 266 390 188 L575 188 Q575 -3 551 -45 Q527 -84 468 -87 L404 -87 L392 -41 L454 -41 Q497 -38 509 -7 Q519 24 522 142 L380 142 Q368 94 356 58 Q322 -27 251 -97 L218 -55 Q279 7 310 80 Q337 155 352 278 L248 278 L248 324 L413 324 L380 420 L290 420 L290 724 ZM529 463 L529 549 L338 549 L338 463 L529 463 ZM338 591 L529 591 L529 682 L338 682 L338 591 ZM704 575 L681 513 Q718 333 773 210 Q831 364 836 575 L704 575 ZM749 152 Q688 279 651 447 Q626 401 605 373 L573 412 Q673 563 707 815 L758 805 Q742 702 720 627 L947 627 L947 575 L885 575 Q879 323 803 150 Q870 26 961 -42 L930 -88 Q840 -19 777 97 Q715 -17 620 -94 L591 -48 Q688 30 749 152 ZM90 792 Q181 723 244 653 L210 618 Q150 686 54 758 L90 792 ZM76 550 Q160 480 223 405 L186 369 Q135 434 40 515 L76 550 ZM230 239 Q172 65 102 -89 L54 -69 Q128 89 183 257 L230 239 Z" /><glyph glyph-name="uni706F" unicode="&#x706f;" d="M137 616 Q132 456 100 318 L53 331 Q86 468 89 620 L137 616 ZM440 635 Q377 553 271 474 L271 437 Q269 352 261 286 Q339 196 420 82 L389 35 Q303 169 253 231 Q214 21 97 -96 L56 -60 Q216 97 219 437 L219 805 L271 805 L271 529 Q354 600 409 675 L440 635 ZM445 748 L952 748 L952 695 L769 695 L769 -3 Q769 -89 686 -89 L545 -89 L533 -36 Q627 -40 667 -40 Q715 -40 715 11 L715 695 L445 695 L445 748 Z" /><glyph glyph-name="uni7070" unicode="&#x7070;" d="M75 682 L309 682 Q321 768 325 817 L378 817 Q371 745 360 682 L926 682 L926 630 L351 630 Q328 507 287 400 Q214 226 76 93 L43 135 Q181 264 248 440 Q278 522 300 630 L75 630 L75 682 ZM168 -52 Q531 37 561 324 Q563 414 563 579 L617 579 Q617 378 613 324 Q706 30 959 -48 L931 -94 Q698 -11 596 241 Q521 -9 196 -97 L168 -52 ZM878 472 Q829 328 752 220 L710 245 Q782 345 831 490 L878 472 ZM453 447 Q430 318 368 204 L321 220 Q383 334 407 459 L453 447 Z" /><glyph glyph-name="uni70B9" unicode="&#x70b9;" d="M457 816 L510 816 L510 711 L904 711 L904 660 L510 660 L510 516 L829 516 L829 209 L184 209 L184 516 L457 516 L457 816 ZM776 260 L776 465 L238 465 L238 260 L776 260 ZM227 135 Q169 2 94 -93 L50 -62 Q128 33 181 158 L227 135 ZM383 130 Q416 20 438 -88 L383 -101 Q364 24 332 119 L383 130 ZM593 139 Q639 32 673 -86 L619 -99 Q587 33 543 128 L593 139 ZM803 157 Q897 33 949 -66 L905 -97 Q853 1 759 129 L803 157 Z" /><glyph glyph-name="uni70BD" unicode="&#x70bd;" d="M134 613 Q130 460 93 317 L47 330 Q83 466 86 617 L134 613 ZM427 630 Q366 545 265 465 L265 437 Q263 349 253 273 Q332 193 411 94 L379 47 Q298 160 244 220 Q201 14 77 -102 L36 -66 Q210 91 213 437 L213 802 L265 802 L265 524 Q342 592 396 670 L427 630 ZM470 751 L890 751 L890 296 L470 296 L470 751 ZM836 348 L836 699 L525 699 L525 348 L836 348 ZM618 202 Q542 25 442 -98 L396 -65 Q499 56 571 224 L618 202 ZM788 230 Q902 66 966 -63 L920 -95 Q859 34 745 202 L788 230 Z" /><glyph glyph-name="uni70C8" unicode="&#x70c8;" d="M156 453 Q110 407 76 379 L49 425 Q194 539 257 716 L85 716 L85 768 L554 768 L554 716 L309 716 Q288 652 258 596 L511 596 L511 552 Q430 265 100 146 L73 193 Q219 243 313 326 Q254 385 156 453 ZM230 548 Q202 508 188 490 Q287 420 348 360 Q421 440 458 548 L230 548 ZM634 741 L686 741 L686 327 L634 327 L634 741 ZM679 168 L667 219 Q747 215 783 215 Q831 215 831 261 L831 809 L882 809 L882 248 Q882 168 801 168 L679 168 ZM234 107 Q180 -10 106 -96 L61 -64 Q134 16 187 130 L234 107 ZM382 126 Q417 35 445 -76 L391 -88 Q366 33 332 115 L382 126 ZM591 138 Q640 40 675 -71 L622 -83 Q589 36 541 128 L591 138 ZM806 138 Q891 25 938 -62 L893 -93 Q846 -2 762 111 L806 138 Z" /><glyph glyph-name="uni70ED" unicode="&#x70ed;" d="M892 159 Q851 159 819 201 Q762 282 762 491 L762 626 L614 626 L614 623 Q611 497 585 405 Q656 351 724 285 L693 238 Q630 303 567 352 Q517 225 419 148 L379 184 Q477 260 522 386 Q468 424 420 451 L449 495 Q498 466 538 438 Q558 520 560 623 L560 626 L438 626 L438 680 L560 680 L560 815 L614 815 L614 680 L815 680 L815 491 Q815 314 852 241 Q868 213 881 213 Q893 213 904 245 Q917 286 920 371 L963 350 Q955 224 934 187 Q914 159 892 159 ZM65 683 L213 683 L213 820 L267 820 L267 683 L396 683 L396 629 L267 629 L267 461 Q328 476 395 497 L395 445 L267 409 L267 239 Q267 161 190 161 L100 161 L88 213 Q146 209 171 209 Q213 209 213 252 L213 396 Q132 378 50 363 L37 414 Q129 429 213 447 L213 629 L65 629 L65 683 ZM231 99 Q173 -19 100 -103 L55 -71 Q130 11 184 122 L231 99 ZM378 99 Q410 16 436 -90 L382 -103 Q359 6 328 88 L378 99 ZM585 113 Q631 17 665 -88 L612 -101 Q581 14 535 102 L585 113 ZM784 132 Q870 23 921 -66 L876 -98 Q828 -10 739 104 L784 132 Z" /><glyph glyph-name="uni714C" unicode="&#x714c;" d="M144 619 Q138 453 95 306 L49 319 Q91 463 97 623 L144 619 ZM214 806 L266 806 L266 528 Q329 591 369 654 L400 615 Q350 543 266 471 L266 454 Q265 355 252 264 Q327 175 396 76 L364 28 Q292 148 243 211 Q204 14 98 -98 L58 -62 Q211 100 214 454 L214 806 ZM450 728 L607 728 Q623 768 633 821 L689 813 Q680 768 663 728 L886 728 L886 396 L450 396 L450 728 ZM835 443 L835 540 L501 540 L501 443 L835 443 ZM501 584 L835 584 L835 681 L501 681 L501 584 ZM640 258 L409 258 L409 308 L929 308 L929 258 L692 258 L692 145 L903 145 L903 98 L692 98 L692 -21 L957 -21 L957 -71 L374 -71 L374 -21 L640 -21 L640 98 L435 98 L435 145 L640 145 L640 258 Z" /><glyph glyph-name="uni7167" unicode="&#x7167;" d="M105 771 L378 771 L378 184 L105 184 L105 771 ZM327 234 L327 454 L159 454 L159 234 L327 234 ZM159 505 L327 505 L327 721 L159 721 L159 505 ZM470 435 L880 435 L880 184 L470 184 L470 435 ZM827 233 L827 386 L523 386 L523 233 L827 233 ZM446 719 L446 771 L898 771 Q895 608 879 559 Q858 490 772 487 Q755 487 699 491 L683 538 Q747 534 767 534 Q823 537 833 589 Q843 629 843 719 L649 719 Q633 553 445 476 L416 521 Q582 582 597 719 L446 719 ZM210 118 Q178 -4 124 -103 L75 -84 Q125 1 161 131 L210 118 ZM383 117 Q410 22 431 -88 L378 -101 Q360 16 333 106 L383 117 ZM596 124 Q637 27 668 -86 L615 -99 Q586 22 546 113 L596 124 ZM803 140 Q890 20 935 -70 L892 -101 Q845 -5 760 113 L803 140 Z" /><glyph glyph-name="uni7231" unicode="&#x7231;" d="M905 564 L905 405 L851 405 L851 514 L151 514 L151 405 L97 405 L97 564 L250 564 Q234 620 215 668 L268 676 Q281 642 303 564 L485 564 Q465 632 447 676 L499 684 Q520 632 538 564 L676 564 Q716 629 745 703 L797 684 Q769 618 732 564 L905 564 ZM893 747 Q597 700 116 700 L99 751 Q566 751 866 796 L893 747 ZM418 476 L401 397 L834 397 L834 345 L387 345 Q368 286 355 252 L799 252 L799 210 Q725 110 617 35 Q752 -23 917 -44 L893 -92 Q712 -68 568 4 Q436 -69 281 -99 L257 -50 Q405 -24 515 32 Q409 94 322 180 Q235 11 93 -86 L67 -39 Q255 96 332 345 L169 345 L169 397 L346 397 Q356 437 364 482 L418 476 ZM358 204 Q450 117 562 60 Q662 122 735 204 L358 204 Z" /><glyph glyph-name="uni7279" unicode="&#x7279;" d="M136 547 Q119 463 96 394 L46 409 Q98 565 106 741 L157 737 Q154 678 144 599 L248 599 L248 814 L301 814 L301 599 L394 599 L394 547 L301 547 L301 288 L405 330 L405 279 Q357 258 301 237 L301 -98 L248 -98 L248 218 Q157 188 62 164 L49 217 Q154 239 248 269 L248 547 L136 547 ZM659 814 L713 814 L713 703 L905 703 L905 652 L713 652 L713 519 L949 519 L949 467 L423 467 L423 519 L659 519 L659 652 L477 652 L477 703 L659 703 L659 814 ZM444 325 L768 325 L768 407 L822 407 L822 325 L940 325 L940 273 L822 273 L822 -8 Q822 -90 744 -90 L627 -90 L615 -38 Q691 -42 725 -42 Q768 -42 768 6 L768 273 L444 273 L444 325 ZM511 219 Q591 126 632 61 L589 30 Q543 105 468 192 L511 219 Z" /><glyph glyph-name="uni72EC" unicode="&#x72ec;" d="M422 644 L631 644 L631 811 L686 811 L686 644 L898 644 L898 253 L686 253 L686 3 Q776 15 851 33 Q830 104 798 187 L842 202 Q894 82 937 -89 L887 -102 Q876 -53 865 -16 Q688 -56 389 -80 L381 -26 Q524 -18 632 -4 L632 253 L422 253 L422 644 ZM845 304 L845 593 L685 593 L685 304 L845 304 ZM633 304 L633 593 L474 593 L474 304 L633 304 ZM399 771 Q335 673 271 609 Q270 609 269 608 Q280 586 290 561 Q333 441 338 221 Q338 -14 279 -62 Q243 -87 178 -87 L116 -86 L100 -35 Q146 -39 166 -39 Q222 -39 243 -20 Q286 21 286 223 Q284 308 279 364 Q200 247 87 166 L55 213 Q192 305 270 436 Q259 498 245 536 Q236 559 229 572 Q169 524 89 476 L59 522 Q142 565 204 620 Q158 697 91 755 L135 788 Q202 721 242 655 Q304 718 353 799 L399 771 Z" /><glyph glyph-name="uni732E" unicode="&#x732e;" d="M64 710 L282 710 L295 820 L347 813 Q340 749 334 710 L549 710 L549 660 L327 660 Q314 588 302 535 L520 535 L520 -7 Q520 -85 453 -85 L389 -85 L376 -37 L438 -39 Q472 -39 472 3 L472 489 L132 489 L132 -85 L85 -85 L85 535 L250 535 Q263 589 275 660 L64 660 L64 710 ZM175 315 L241 315 Q221 376 192 427 L232 442 Q262 387 282 315 L322 315 Q352 376 373 446 L414 431 Q392 365 365 315 L428 315 L428 272 L324 272 L324 171 L437 171 L437 127 L324 127 L324 -66 L276 -66 L276 127 L165 127 L165 171 L276 171 L276 272 L175 272 L175 315 ZM559 540 L704 540 Q707 714 707 805 L758 805 Q758 699 755 550 L756 540 L930 540 L930 489 L762 489 Q807 134 957 -60 L921 -100 Q787 82 740 371 Q698 94 564 -99 L529 -60 Q683 175 702 489 L559 489 L559 540 ZM840 770 Q910 676 944 613 L904 585 Q866 660 802 746 L840 770 Z" /><glyph glyph-name="uni738B" unicode="&#x738b;" d="M104 760 L897 760 L897 708 L527 708 L527 401 L847 401 L847 350 L527 350 L527 8 L932 8 L932 -44 L69 -44 L69 8 L473 8 L473 350 L153 350 L153 401 L473 401 L473 708 L104 708 L104 760 Z" /><glyph glyph-name="uni73B0" unicode="&#x73b0;" d="M871 771 L871 224 L817 224 L817 719 L495 719 L495 224 L441 224 L441 771 L871 771 ZM751 -82 Q678 -82 678 -10 L678 228 L732 228 L732 2 Q732 -31 767 -31 L845 -31 Q875 -31 886 -15 Q902 5 908 107 L958 90 Q949 -31 925 -59 Q902 -82 855 -82 L751 -82 ZM626 641 L677 641 L677 393 Q674 193 600 75 Q528 -34 361 -98 L330 -52 Q493 8 560 113 Q623 221 626 393 L626 641 ZM66 438 L188 438 L188 690 L52 690 L52 741 L376 741 L376 690 L242 690 L242 438 L362 438 L362 386 L242 386 L242 136 Q310 159 378 187 L378 134 Q230 74 62 35 L49 87 Q119 102 188 120 L188 386 L66 386 L66 438 Z" /><glyph glyph-name="uni2F62" unicode="&#x2f62;&#x7518;" d="M51 647 L227 647 L227 812 L281 812 L281 647 L719 647 L719 812 L773 812 L773 647 L949 647 L949 596 L773 596 L773 -95 L719 -95 L719 -31 L281 -31 L281 -96 L227 -96 L227 596 L51 596 L51 647 ZM281 21 L719 21 L719 287 L281 287 L281 21 ZM281 338 L719 338 L719 596 L281 596 L281 338 Z" /><glyph glyph-name="uni2F63" unicode="&#x2f63;&#x751f;" d="M233 568 Q171 426 81 336 L45 380 Q191 530 242 789 L297 778 Q280 696 253 620 L491 620 L491 807 L544 807 L544 620 L881 620 L881 568 L544 568 L544 317 L861 317 L861 264 L544 264 L544 -9 L945 -9 L945 -63 L69 -63 L69 -9 L491 -9 L491 264 L190 264 L190 317 L491 317 L491 568 L233 568 Z" /><glyph glyph-name="uni2F64" unicode="&#x2f64;&#x7528;" d="M203 477 L203 293 L202 285 L477 285 L477 477 L203 477 ZM199 234 Q184 40 86 -87 L46 -50 Q145 86 148 297 L148 771 L878 771 L878 23 Q878 -75 780 -75 L665 -75 L651 -22 Q711 -25 762 -25 Q824 -25 824 43 L824 234 L531 234 L531 -64 L477 -64 L477 234 L199 234 ZM824 285 L824 477 L531 477 L531 285 L824 285 ZM824 527 L824 718 L531 718 L531 527 L824 527 ZM477 718 L203 718 L203 527 L477 527 L477 718 Z" /><glyph glyph-name="uni7531" unicode="&#x7531;" d="M864 647 L864 -93 L810 -93 L810 -24 L190 -24 L190 -93 L136 -93 L136 647 L473 647 L473 810 L527 810 L527 647 L864 647 ZM190 29 L473 29 L473 294 L190 294 L190 29 ZM527 29 L810 29 L810 294 L527 294 L527 29 ZM190 345 L473 345 L473 596 L190 596 L190 345 ZM527 596 L527 345 L810 345 L810 596 L527 596 Z" /><glyph glyph-name="uni7535" unicode="&#x7535;" d="M191 404 L191 236 L457 236 L457 404 L191 404 ZM457 185 L191 185 L191 95 L137 95 L137 670 L457 670 L457 812 L510 812 L510 670 L836 670 L836 185 L510 185 L510 44 Q510 -32 580 -32 L816 -32 Q858 -32 877 -14 Q895 4 901 114 L953 97 Q944 -29 919 -57 Q891 -82 825 -82 L567 -82 Q457 -82 457 36 L457 185 ZM510 236 L783 236 L783 404 L510 404 L510 236 ZM783 455 L783 618 L510 618 L510 455 L783 455 ZM457 618 L191 618 L191 455 L457 455 L457 618 Z" /><glyph glyph-name="uni753B" unicode="&#x753b;" d="M324 336 L324 186 L478 186 L478 336 L324 336 ZM527 186 L680 186 L680 336 L527 336 L527 186 ZM680 384 L680 532 L527 532 L527 384 L680 384 ZM478 532 L324 532 L324 384 L478 384 L478 532 ZM59 752 L941 752 L941 700 L59 700 L59 752 ZM843 515 L897 515 L897 -95 L843 -95 L843 -36 L159 -36 L159 -97 L105 -97 L105 510 L159 510 L159 16 L843 16 L843 515 ZM272 582 L733 582 L733 136 L272 136 L272 582 Z" /><glyph glyph-name="uni7545" unicode="&#x7545;" d="M125 401 L125 243 L225 243 L225 401 L125 401 ZM273 401 L273 243 L376 243 L376 401 L273 401 ZM376 196 L273 196 L273 -95 L225 -95 L225 196 L125 196 L125 132 L76 132 L76 651 L225 651 L225 816 L273 816 L273 651 L425 651 L425 136 L376 136 L376 196 ZM376 447 L376 604 L273 604 L273 447 L376 447 ZM225 447 L225 604 L125 604 L125 447 L225 447 ZM488 418 L488 468 Q644 581 784 719 L490 719 L490 769 L855 769 L855 721 Q723 582 572 466 L926 466 Q918 118 898 20 Q876 -82 775 -85 Q732 -85 691 -82 L677 -31 Q724 -34 768 -34 Q826 -33 847 27 Q865 84 874 418 L799 418 Q768 239 710 133 Q644 23 513 -67 L481 -25 Q602 56 664 154 Q723 256 750 418 L670 418 Q614 228 477 119 L445 158 Q569 257 619 418 L488 418 Z" /><glyph glyph-name="uni754C" unicode="&#x754c;" d="M162 771 L842 771 L842 388 L640 388 Q739 260 959 188 L936 140 Q687 234 584 388 L415 388 Q310 243 69 147 L39 194 Q259 269 360 388 L162 388 L162 771 ZM789 436 L789 557 L527 557 L527 436 L789 436 ZM473 436 L473 557 L215 557 L215 436 L473 436 ZM215 604 L473 604 L473 722 L215 722 L215 604 ZM527 722 L527 604 L789 604 L789 722 L527 722 ZM384 273 Q384 157 350 74 Q304 -33 144 -101 L109 -57 Q247 -1 295 87 Q330 162 330 273 L384 273 ZM631 272 L686 272 L686 -100 L631 -100 L631 272 Z" /><glyph glyph-name="uni756A" unicode="&#x756a;" d="M526 554 L649 554 Q701 615 739 685 L789 667 Q752 604 706 554 L914 554 L914 502 L609 502 Q732 408 959 339 L933 291 Q697 369 553 502 L526 502 L526 360 L472 360 L472 502 L444 502 Q330 367 68 279 L40 325 Q280 394 391 502 L89 502 L89 554 L283 554 Q258 608 224 650 L274 669 Q308 622 338 554 L472 554 L472 713 Q302 705 125 705 L108 753 Q555 754 847 797 L873 752 Q725 728 526 716 L526 554 ZM472 263 L242 263 L242 154 L472 154 L472 263 ZM472 107 L242 107 L242 2 L472 2 L472 107 ZM524 2 L752 2 L752 107 L524 107 L524 2 ZM752 -48 L242 -48 L242 -96 L190 -96 L190 313 L803 313 L803 -97 L752 -97 L752 -48 ZM524 154 L752 154 L752 263 L524 263 L524 154 Z" /><glyph glyph-name="uni2F69" unicode="&#x2f69;&#x767d;" d="M839 650 L839 -96 L786 -96 L786 -10 L215 -10 L215 -98 L162 -98 L162 650 L396 650 Q434 730 450 818 L508 810 Q489 720 455 650 L839 650 ZM215 42 L786 42 L786 303 L215 303 L215 42 ZM215 355 L786 355 L786 599 L215 599 L215 355 Z" /><glyph glyph-name="uni7684" unicode="&#x7684;" d="M396 636 L396 -36 L344 -36 L344 25 L142 25 L142 -64 L90 -64 L90 636 L180 636 Q211 721 225 815 L280 808 Q264 716 232 636 L396 636 ZM142 75 L344 75 L344 312 L142 312 L142 75 ZM142 361 L344 361 L344 584 L142 584 L142 361 ZM566 410 Q681 283 740 190 L697 159 Q637 256 522 382 L566 410 ZM914 635 Q914 154 900 36 Q885 -84 761 -84 L663 -82 L650 -32 Q710 -35 755 -35 Q836 -35 848 54 Q859 136 862 581 L567 581 Q524 482 466 406 L434 448 Q542 598 581 816 L634 810 Q615 712 588 635 L914 635 Z" /><glyph glyph-name="uni76CF" unicode="&#x76cf;" d="M840 734 L847 687 L459 648 Q478 594 501 545 L905 595 L913 547 L526 499 Q551 456 575 429 Q591 411 599 403 Q714 445 796 499 L837 471 Q749 412 638 369 Q717 308 805 306 Q829 306 844 323 Q862 351 877 421 L924 401 Q903 312 880 284 Q855 256 818 256 Q688 256 583 349 Q377 281 99 260 L68 304 Q353 325 547 386 Q504 433 472 492 L94 446 L87 494 L448 539 Q425 587 406 643 L115 613 L108 660 L391 689 Q370 754 356 815 L411 820 Q426 753 444 694 L676 717 Q631 753 562 789 L595 821 Q663 785 719 742 L696 719 L840 734 ZM831 200 L831 -19 L948 -19 L948 -68 L49 -68 L49 -19 L169 -19 L169 200 L831 200 ZM220 -19 L370 -19 L370 152 L220 152 L220 -19 ZM421 -19 L576 -19 L576 152 L421 152 L421 -19 ZM627 -19 L779 -19 L779 152 L627 152 L627 -19 Z" /><glyph glyph-name="uni2F6C" unicode="&#x2f6c;&#x76ee;" d="M839 756 L839 -97 L786 -97 L786 -27 L214 -27 L214 -97 L161 -97 L161 756 L839 756 ZM214 26 L786 26 L786 218 L214 218 L214 26 ZM214 269 L786 269 L786 462 L214 462 L214 269 ZM214 513 L786 513 L786 703 L214 703 L214 513 Z" /><glyph glyph-name="uni76F4" unicode="&#x76f4;" d="M79 716 L469 716 L481 817 L536 809 Q533 774 525 716 L921 716 L921 665 L517 665 L498 568 L791 568 L791 -20 L942 -20 L942 -70 L59 -70 L59 -20 L205 -20 L205 568 L443 568 Q450 601 462 665 L79 665 L79 716 ZM259 -20 L737 -20 L737 85 L259 85 L259 -20 ZM259 130 L737 130 L737 230 L259 230 L259 130 ZM259 275 L737 275 L737 374 L259 374 L259 275 ZM259 419 L737 419 L737 519 L259 519 L259 419 Z" /><glyph glyph-name="uni76F8" unicode="&#x76f8;" d="M905 752 L905 -97 L851 -97 L851 -32 L502 -32 L502 -98 L450 -98 L450 752 L905 752 ZM502 19 L851 19 L851 217 L502 217 L502 19 ZM502 268 L851 268 L851 461 L502 461 L502 268 ZM502 512 L851 512 L851 701 L502 701 L502 512 ZM260 -97 L207 -97 L207 445 Q155 284 64 154 L43 207 Q159 363 205 561 L60 561 L60 612 L207 612 L207 814 L260 814 L260 612 L395 612 L395 561 L260 561 L260 502 Q334 421 402 331 L372 287 Q301 393 260 445 L260 -97 Z" /><glyph glyph-name="uni770B" unicode="&#x770b;" d="M124 625 L444 625 Q464 669 481 714 Q313 704 152 704 L137 750 Q562 751 837 809 L863 764 Q724 733 532 718 Q518 674 497 625 L880 625 L880 577 L475 577 Q458 544 429 496 L937 496 L937 447 L396 447 Q361 400 329 363 L832 363 L832 -99 L781 -99 L781 -53 L313 -53 L313 -99 L261 -99 L261 293 Q174 212 74 144 L45 191 Q222 312 331 447 L71 447 L71 496 L368 496 Q395 537 419 577 L124 577 L124 625 ZM313 194 L313 118 L781 118 L781 194 L313 194 ZM781 237 L781 317 L313 317 L313 237 L781 237 ZM313 75 L313 -7 L781 -7 L781 75 L313 75 Z" /><glyph glyph-name="uni771F" unicode="&#x771f;" d="M97 735 L484 735 Q488 763 494 817 L548 809 L539 735 L903 735 L903 688 L532 688 L516 609 L803 609 L803 135 L940 135 L940 86 L60 86 L60 135 L212 135 L212 609 L461 609 Q467 636 477 688 L97 688 L97 735 ZM264 135 L751 135 L751 212 L264 212 L264 135 ZM264 255 L751 255 L751 328 L264 328 L264 255 ZM264 371 L751 371 L751 445 L264 445 L264 371 ZM264 488 L751 488 L751 564 L264 564 L264 488 ZM637 76 Q789 23 922 -57 L894 -100 Q756 -13 612 38 L637 76 ZM393 37 Q280 -45 109 -99 L87 -52 Q252 -4 360 74 L393 37 Z" /><glyph glyph-name="uni773C" unicode="&#x773c;" d="M518 360 L518 -12 Q607 12 693 51 L705 2 Q599 -43 458 -80 L446 -37 Q465 -29 465 -12 L465 769 L870 769 L870 360 L691 360 Q709 261 755 174 Q829 216 894 299 L929 265 Q863 178 779 133 Q845 32 955 -40 L926 -87 Q691 75 642 360 L518 360 ZM362 755 L362 -29 L310 -29 L310 52 L137 52 L137 -52 L85 -52 L85 755 L362 755 ZM137 104 L310 104 L310 270 L137 270 L137 104 ZM137 319 L310 319 L310 486 L137 486 L137 319 ZM137 535 L310 535 L310 703 L137 703 L137 535 ZM518 538 L518 410 L817 410 L817 538 L518 538 ZM817 586 L817 719 L518 719 L518 586 L817 586 Z" /><glyph glyph-name="uni7740" unicode="&#x7740;" d="M101 725 L334 725 Q312 775 283 815 L336 825 Q361 785 386 725 L624 725 Q659 775 675 827 L729 820 Q713 774 677 725 L900 725 L900 677 L509 677 Q498 635 485 597 L851 597 L851 551 L468 551 Q454 519 428 472 L947 472 L947 425 L398 425 Q368 383 334 346 L834 346 L834 -99 L781 -99 L781 -59 L310 -59 L310 -99 L257 -99 L257 274 Q171 205 68 155 L44 203 Q232 287 338 425 L53 425 L53 472 L370 472 Q398 518 413 551 L151 551 L151 597 L432 597 Q445 635 456 677 L101 677 L101 725 ZM310 182 L310 107 L781 107 L781 182 L310 182 ZM781 224 L781 301 L310 301 L310 224 L781 224 ZM781 -14 L781 64 L310 64 L310 -14 L781 -14 Z" /><glyph glyph-name="uni7761" unicode="&#x7761;" d="M472 551 L388 551 L388 603 L640 603 L640 705 Q532 696 408 696 L392 743 Q701 744 901 802 L926 757 Q823 726 692 710 L692 603 L941 603 L941 551 L860 551 L860 383 L942 383 L942 337 L860 337 L860 175 L941 175 L941 124 L692 124 L692 -11 L913 -11 L913 -63 L420 -63 L420 -11 L640 -11 L640 124 L393 124 L393 175 L472 175 L472 337 L387 337 L387 383 L472 383 L472 551 ZM810 551 L692 551 L692 383 L810 383 L810 551 ZM640 551 L522 551 L522 383 L640 383 L640 551 ZM810 337 L692 337 L692 175 L810 175 L810 337 ZM640 337 L522 337 L522 175 L640 175 L640 337 ZM325 760 L325 -32 L275 -32 L275 24 L138 24 L138 -55 L87 -55 L87 760 L325 760 ZM138 73 L275 73 L275 250 L138 250 L138 73 ZM138 300 L275 300 L275 478 L138 478 L138 300 ZM138 527 L275 527 L275 710 L138 710 L138 527 Z" /><glyph glyph-name="uni2F6F" unicode="&#x2f6f;&#x77f3;" d="M65 751 L937 751 L937 697 L463 697 Q410 539 324 413 L855 413 L855 -87 L800 -87 L800 -29 L363 -29 L363 -87 L307 -87 L307 389 Q212 257 77 154 L46 206 Q298 395 406 697 L65 697 L65 751 ZM363 24 L800 24 L800 360 L363 360 L363 24 Z" /><glyph glyph-name="uni793C" unicode="&#x793c;" d="M253 353 Q167 280 60 209 L43 264 Q321 444 407 613 L76 613 L76 666 L463 666 L463 619 Q415 511 312 408 Q417 350 500 273 L470 227 Q389 305 306 354 L306 -100 L253 -100 L253 353 ZM661 -82 Q576 -82 576 5 L576 809 L629 809 L629 13 Q629 -29 674 -29 L820 -29 Q857 -29 876 -4 Q891 23 897 179 L949 162 Q940 -12 917 -46 Q893 -82 829 -82 L661 -82 ZM256 821 Q292 743 308 689 L259 671 Q236 743 204 806 L256 821 Z" /><glyph glyph-name="uni793E" unicode="&#x793e;" d="M639 811 L693 811 L693 503 L928 503 L928 450 L693 450 L693 -10 L953 -10 L953 -63 L373 -63 L373 -10 L639 -10 L639 450 L407 450 L407 503 L639 503 L639 811 ZM206 341 Q147 277 61 206 L44 261 Q260 440 330 613 L69 613 L69 665 L384 665 L384 619 Q344 507 259 402 L259 398 Q345 349 421 277 L391 230 Q326 298 259 342 L259 -96 L206 -96 L206 341 ZM224 818 Q258 748 278 687 L231 670 Q207 739 173 804 L224 818 Z" /><glyph glyph-name="uni795E" unicode="&#x795e;" d="M479 399 L479 245 L642 245 L642 399 L479 399 ZM695 399 L695 245 L861 245 L861 399 L695 399 ZM861 194 L695 194 L695 -95 L642 -95 L642 194 L479 194 L479 135 L425 135 L425 656 L642 656 L642 816 L695 816 L695 656 L915 656 L915 136 L861 136 L861 194 ZM861 450 L861 605 L695 605 L695 450 L861 450 ZM642 450 L642 605 L479 605 L479 450 L642 450 ZM196 340 Q138 274 60 206 L43 261 Q245 440 310 613 L66 613 L66 665 L364 665 L364 619 Q329 514 249 405 L249 397 Q330 342 388 281 L359 236 Q303 299 249 340 L249 -98 L196 -98 L196 340 ZM216 820 Q252 750 270 689 L223 672 Q199 741 165 806 L216 820 Z" /><glyph glyph-name="uni7968" unicode="&#x7968;" d="M58 771 L942 771 L942 723 L636 723 L636 625 L858 625 L858 423 L142 423 L142 625 L367 625 L367 723 L58 723 L58 771 ZM585 625 L585 723 L418 723 L418 625 L585 625 ZM806 469 L806 579 L636 579 L636 469 L806 469 ZM585 469 L585 579 L418 579 L418 469 L585 469 ZM367 469 L367 579 L194 579 L194 469 L367 469 ZM174 333 L833 333 L833 285 L174 285 L174 333 ZM74 198 L926 198 L926 151 L537 151 L537 -15 Q537 -94 450 -94 L364 -94 L353 -45 Q409 -49 432 -49 Q485 -49 485 -3 L485 151 L74 151 L74 198 ZM695 105 Q837 29 936 -48 L898 -85 Q810 -12 659 71 L695 105 ZM361 71 Q255 -19 105 -85 L72 -43 Q221 19 324 103 L361 71 Z" /><glyph glyph-name="uni798F" unicode="&#x798f;" d="M401 771 L941 771 L941 722 L401 722 L401 771 ZM462 639 L878 639 L878 426 L462 426 L462 639 ZM827 472 L827 593 L513 593 L513 472 L827 472 ZM922 345 L922 -98 L871 -98 L871 -55 L467 -55 L467 -98 L416 -98 L416 345 L922 345 ZM467 -7 L643 -7 L643 122 L467 122 L467 -7 ZM695 -7 L871 -7 L871 122 L695 122 L695 -7 ZM467 170 L643 170 L643 297 L467 297 L467 170 ZM695 297 L695 170 L871 170 L871 297 L695 297 ZM190 335 Q131 270 63 209 L46 264 Q244 443 307 613 L66 613 L66 665 L361 665 L361 619 Q325 509 244 401 L244 395 Q318 346 379 281 L349 236 Q295 300 244 340 L244 -98 L190 -98 L190 335 ZM213 820 Q248 744 265 689 L218 672 Q197 735 162 806 L213 820 Z" /><glyph glyph-name="uni79C0" unicode="&#x79c0;" d="M212 273 L212 324 L718 324 L718 298 L680 191 L865 191 L865 165 Q856 -17 799 -58 Q775 -82 731 -87 Q692 -89 596 -91 L580 -39 Q672 -41 702 -41 Q736 -41 753 -27 Q798 0 810 138 L610 138 L656 273 L419 273 Q401 18 102 -99 L72 -51 Q350 48 368 273 L212 273 ZM74 611 L478 611 L478 709 Q337 700 175 700 L158 748 Q552 748 804 802 L831 756 Q705 728 532 713 L532 611 L924 611 L924 560 L615 560 Q717 446 941 383 L917 333 Q665 419 561 560 L532 560 L532 372 L478 372 L478 560 L447 560 Q357 424 94 325 L64 374 Q309 455 393 560 L74 560 L74 611 Z" /><glyph glyph-name="uni79CD" unicode="&#x79cd;" d="M661 811 L714 811 L714 629 L917 629 L917 187 L864 187 L864 242 L714 242 L714 -98 L661 -98 L661 242 L514 242 L514 187 L462 187 L462 629 L661 629 L661 811 ZM514 292 L661 292 L661 577 L514 577 L514 292 ZM714 292 L864 292 L864 577 L714 577 L714 292 ZM57 732 Q245 753 384 805 L402 755 Q341 733 268 715 L268 535 L403 535 L403 482 L268 482 L268 425 Q340 354 424 253 L393 208 Q323 312 268 376 L268 -104 L214 -104 L214 382 Q159 223 59 95 L37 152 Q159 296 210 482 L54 482 L54 535 L214 535 L214 704 Q139 689 67 681 L57 732 Z" /><glyph glyph-name="uni7A9F" unicode="&#x7a9f;" d="M583 652 Q772 606 929 538 L904 500 Q737 572 557 614 L583 652 ZM448 616 Q309 548 95 503 L75 545 Q285 586 418 651 L448 616 ZM904 739 L904 601 L852 601 L852 692 L147 692 L147 601 L95 601 L95 739 L474 739 Q458 775 433 809 L491 819 Q516 775 531 739 L904 739 ZM784 472 L226 472 L226 376 L784 376 L784 472 ZM226 330 L226 295 Q224 74 97 -85 L57 -50 Q175 86 176 295 L176 518 L834 518 L834 330 L226 330 ZM752 180 L752 281 L802 281 L802 133 L585 133 L585 -17 L806 -17 L806 93 L856 93 L856 -102 L806 -102 L806 -64 L314 -64 L314 -102 L263 -102 L263 93 L314 93 L314 -17 L534 -17 L534 133 L317 133 L317 278 L367 278 L367 180 L534 180 L534 303 L585 303 L585 180 L752 180 Z" /><glyph glyph-name="uni2F74" unicode="&#x2f74;&#x7acb;" d="M85 647 L479 647 Q454 738 427 806 L488 816 Q516 736 538 647 L918 647 L918 594 L85 594 L85 647 ZM51 17 L552 17 Q647 225 715 526 L772 511 Q710 236 612 17 L952 17 L952 -36 L51 -36 L51 17 ZM287 521 Q355 319 405 72 L348 57 Q300 294 230 502 L287 521 Z" /><glyph glyph-name="uni7AD9" unicode="&#x7ad9;" d="M633 816 L687 816 L687 634 L946 634 L946 580 L687 580 L687 370 L890 370 L890 -91 L838 -91 L838 -22 L538 -22 L538 -92 L487 -92 L487 370 L633 370 L633 816 ZM538 29 L838 29 L838 321 L538 321 L538 29 ZM59 642 L228 642 Q207 727 183 799 L238 808 Q262 724 281 642 L447 642 L447 590 L59 590 L59 642 ZM138 519 Q177 336 206 114 L160 102 Q133 312 91 503 L138 519 ZM433 58 Q258 6 64 -28 L51 24 Q168 43 271 66 Q321 284 343 529 L396 522 Q373 288 323 79 Q369 91 433 111 L433 58 Z" /><glyph glyph-name="uni7B11" unicode="&#x7b11;" d="M75 278 L454 278 Q461 321 463 367 L463 426 Q322 417 160 417 L144 466 Q560 468 822 527 L850 480 Q704 446 517 430 L517 367 Q516 320 508 278 L928 278 L928 225 L550 225 Q631 51 956 -48 L926 -96 Q579 21 498 225 L496 225 Q469 131 408 66 Q307 -38 74 -98 L44 -52 Q274 5 372 104 Q418 159 440 225 L75 225 L75 278 ZM197 677 Q157 600 108 541 L61 570 Q154 681 197 818 L250 807 Q236 763 220 727 L499 727 L499 677 L321 677 Q367 609 395 547 L345 528 Q312 603 264 677 L197 677 ZM619 680 Q585 600 541 535 L496 564 Q574 678 610 820 L662 809 L638 730 L944 730 L944 680 L752 680 Q796 618 819 573 L770 555 Q737 622 694 680 L619 680 Z" /><glyph glyph-name="uni7B49" unicode="&#x7b49;" d="M171 511 L473 511 L473 581 L527 581 L527 511 L825 511 L825 463 L527 463 L527 354 L940 354 L940 306 L742 306 L742 193 L896 193 L896 144 L742 144 L742 -23 Q742 -97 664 -97 L517 -97 L505 -46 Q603 -50 646 -50 Q688 -50 688 -11 L688 144 L120 144 L120 193 L688 193 L688 306 L59 306 L59 354 L473 354 L473 463 L171 463 L171 511 ZM265 105 Q357 23 406 -39 L364 -70 Q312 -2 221 77 L265 105 ZM188 692 Q149 617 98 557 L52 587 Q145 693 190 829 L242 818 Q225 772 211 739 L481 739 L481 692 L290 692 Q339 633 367 584 L318 566 Q283 630 232 692 L188 692 ZM599 693 Q570 634 530 584 L486 612 Q561 708 597 830 L649 819 Q640 788 621 740 L923 740 L923 693 L726 693 Q774 634 800 585 L752 567 Q718 632 668 693 L599 693 Z" /></font>
</defs>
</svg>
